<svg width="13" height="13" viewBox="0 0 13 13" fill="none" xmlns="http://www.w3.org/2000/svg">
<g clip-path="url(#clip0_826_11463)">
<path d="M12.1121 4.55653L8.51478 4.04816L6.90666 0.87805C6.86274 0.791254 6.79048 0.720991 6.70122 0.678282C6.47736 0.570821 6.20532 0.660372 6.09339 0.87805L4.48528 4.04816L0.88791 4.55653C0.788731 4.57031 0.698053 4.61577 0.628627 4.68466C0.544696 4.76854 0.498446 4.88139 0.50004 4.99842C0.501634 5.11544 0.550942 5.22707 0.637128 5.30876L3.23987 7.77623L2.62496 11.2605C2.61054 11.3415 2.61976 11.4249 2.65159 11.5011C2.68341 11.5773 2.73655 11.6433 2.805 11.6916C2.87344 11.74 2.95444 11.7687 3.03882 11.7746C3.1232 11.7804 3.20757 11.7631 3.28238 11.7247L6.50003 10.0798L9.71768 11.7247C9.80553 11.7702 9.90754 11.7854 10.0053 11.7688C10.2518 11.7275 10.4176 11.5002 10.3751 11.2605L9.76019 7.77623L12.3629 5.30876C12.4338 5.24125 12.4805 5.15308 12.4947 5.05664C12.533 4.81554 12.3601 4.59235 12.1121 4.55653V4.55653Z" fill="#FCFCFD"/>
</g>
<defs>
<clipPath id="clip0_826_11463">
<rect width="12" height="12" fill="white" transform="translate(0.5 0.5)"/>
</clipPath>
</defs>
</svg>
