<svg width="13" height="13" viewBox="0 0 13 13" fill="none" xmlns="http://www.w3.org/2000/svg">
<g clip-path="url(#clip0_826_11458)">
<path d="M3.28238 11.7247L6.50003 10.0798L9.71768 11.7247C9.80553 11.7702 9.90754 11.7854 10.0053 11.7688C10.2518 11.7275 10.4176 11.5002 10.3751 11.2605L3.28238 11.7247ZM3.28238 11.7247C3.20757 11.7631 3.1232 11.7804 3.03882 11.7746M3.28238 11.7247L3.03882 11.7746M2.65159 11.5011C2.61976 11.4249 2.61054 11.3415 2.62496 11.2605L2.65159 11.5011ZM2.65159 11.5011C2.68341 11.5773 2.73655 11.6433 2.805 11.6916M2.65159 11.5011L2.805 11.6916M2.805 11.6916C2.87344 11.74 2.95444 11.7687 3.03882 11.7746M2.805 11.6916L3.03882 11.7746M8.06887 4.27435L8.18677 4.50677L8.44482 4.54324L11.9249 5.03504L9.41619 7.41338L9.22107 7.59836L9.2678 7.86313L9.86335 11.2377L6.72763 9.63457L6.50003 9.51821L6.27243 9.63457L3.13671 11.2377L3.73226 7.86313L3.77899 7.59836L3.58387 7.41338L1.07515 5.03504L4.55524 4.54324L4.81329 4.50677L4.93118 4.27435L6.50003 1.18167L8.06887 4.27435ZM0.981127 4.9459C0.981139 4.94591 0.981151 4.94592 0.981163 4.94594L0.981127 4.9459ZM0.956869 5.05175C0.956814 5.05176 0.95676 5.05177 0.956705 5.05178L0.956869 5.05175ZM6.46075 1.10425C6.4607 1.10414 6.46065 1.10404 6.46059 1.10393L6.46075 1.10425Z" fill="#F4F5F6" stroke="#585858"/>
</g>
<defs>
<clipPath id="clip0_826_11458">
<rect width="12" height="12" fill="white" transform="translate(0.5 0.5)"/>
</clipPath>
</defs>
</svg>
