<svg width="16" height="19" viewBox="0 0 16 19" fill="none" xmlns="http://www.w3.org/2000/svg">
<mask id="path-1-outside-1_826_11400" maskUnits="userSpaceOnUse" x="-0.450195" y="-0.5" width="17" height="20" fill="black">
<rect fill="white" x="-0.450195" y="-0.5" width="17" height="20"/>
<path fill-rule="evenodd" clip-rule="evenodd" d="M3.79745 0.560068C3.64559 0.641693 3.52037 0.806811 3.47827 0.980939C3.46086 1.05292 3.44655 1.27256 3.44646 1.46897L3.44627 1.82606L2.84101 1.84176C2.16355 1.85929 1.98693 1.90216 1.6075 2.14105C1.3019 2.33348 0.941622 2.76991 0.784499 3.13806C0.529493 3.73555 0.550209 3.11317 0.550209 10.1755C0.550209 17.225 0.530443 16.6176 0.778677 17.1994C1.00693 17.7345 1.44946 18.1767 1.97164 18.3914L2.23575 18.5H8.10449H13.9732L14.2184 18.4009C14.907 18.1225 15.4153 17.4943 15.605 16.6873C15.6553 16.4732 15.6588 16.0559 15.6588 10.1755C15.6588 3.11116 15.6796 3.73598 15.4235 3.13577C15.2435 2.71384 14.8785 2.29593 14.5095 2.08913C14.1502 1.88773 13.8868 1.83342 13.2697 1.83342H12.7627L12.7625 1.47263C12.7623 1.04408 12.7295 0.887028 12.6064 0.725994C12.3406 0.378407 11.8338 0.451761 11.6605 0.862882C11.6087 0.985831 11.5982 1.08045 11.5982 1.42215V1.83342H8.10691H4.6157L4.60559 1.38189C4.59645 0.972878 4.58855 0.918742 4.52165 0.80674C4.35407 0.526207 4.05187 0.423286 3.79745 0.560068ZM3.45173 3.58455C3.46558 4.06579 3.51228 4.21461 3.69779 4.36895C3.92089 4.55459 4.20483 4.53636 4.41659 4.32281C4.58095 4.15706 4.61083 4.04227 4.61083 3.57688V3.17097H8.10449H11.5982V3.57688C11.5982 4.04227 11.628 4.15706 11.7924 4.32281C12.0085 4.54069 12.3056 4.5516 12.5356 4.35005C12.6981 4.20774 12.7439 4.04967 12.7573 3.58455L12.7692 3.17097H13.2551C13.6695 3.17097 13.7658 3.18156 13.9085 3.24291C14.1193 3.33351 14.3077 3.54115 14.413 3.79909L14.4942 3.99814V10.1755V16.3529L14.4141 16.5465C14.3182 16.7785 14.1529 16.9741 13.961 17.0827L13.82 17.1624H8.10449H2.38898L2.24718 17.0822C2.05114 16.9713 1.88942 16.7806 1.79478 16.5488L1.71476 16.3529V10.1755C1.71476 4.30739 1.71752 3.9911 1.7698 3.85734C1.85788 3.6321 1.971 3.46516 2.10403 3.36403C2.32358 3.19715 2.41653 3.17611 2.94505 3.17343L3.43981 3.17097L3.45173 3.58455ZM4.43562 6.60305C3.96959 6.87387 3.90177 7.57161 4.30308 7.96616C4.90892 8.56175 5.77872 7.7337 5.38712 6.93409C5.25697 6.66834 5.07122 6.53839 4.79835 6.5222C4.62713 6.51203 4.57056 6.52463 4.43562 6.60305ZM7.66012 6.58172C7.40153 6.71952 7.2464 7.0046 7.2464 7.34201C7.2464 7.68932 7.40251 7.96056 7.68176 8.09854C7.9629 8.23747 8.26262 8.16408 8.48417 7.90206C8.81876 7.50636 8.71128 6.83184 8.27663 6.59939C8.08236 6.49548 7.8352 6.48841 7.66012 6.58172ZM10.839 6.58742C10.192 6.96461 10.3752 8.09354 11.0946 8.16204C11.5512 8.20554 11.9029 7.794 11.8655 7.25989C11.847 6.99436 11.7492 6.8071 11.5417 6.63959C11.4305 6.54983 11.3766 6.53188 11.1902 6.52234C11.0118 6.51326 10.945 6.52565 10.839 6.58742ZM7.844 9.85963C7.46864 9.92394 7.22602 10.2889 7.25164 10.7507C7.26702 11.0282 7.36769 11.2226 7.57367 11.3727C7.74853 11.5 7.93125 11.5337 8.14172 11.4773C8.35496 11.4201 8.59366 11.1533 8.65437 10.9043C8.79712 10.3186 8.37105 9.76931 7.844 9.85963ZM11.0259 9.86344C10.8461 9.89983 10.7322 9.9754 10.6102 10.1391C10.2753 10.5884 10.4372 11.263 10.9273 11.4616C11.3852 11.6472 11.874 11.2426 11.874 10.6779C11.874 10.4502 11.8118 10.2677 11.6809 10.1109C11.507 9.90275 11.2714 9.81374 11.0259 9.86344ZM4.43391 9.9332C4.09239 10.1274 3.9417 10.645 4.11227 11.0379C4.23924 11.3303 4.47209 11.4929 4.76406 11.4929C5.10677 11.4929 5.35979 11.2729 5.45648 10.8909C5.49904 10.7227 5.50122 10.6619 5.47027 10.5031C5.42445 10.2679 5.28127 10.0481 5.10401 9.94059C4.92213 9.83035 4.62073 9.82701 4.43391 9.9332ZM4.54953 13.2197C4.37163 13.2855 4.19732 13.4526 4.11408 13.6372C4.01788 13.8505 4.02135 14.1895 4.12184 14.3982C4.22119 14.6045 4.41622 14.7709 4.6202 14.8233C5.11486 14.9504 5.58096 14.4151 5.47027 13.8469C5.37741 13.3703 4.94275 13.0742 4.54953 13.2197ZM7.74715 13.2162C7.55804 13.2867 7.43907 13.3987 7.33766 13.6017C7.2627 13.7519 7.24698 13.823 7.24698 14.0122C7.24698 14.9219 8.29428 15.163 8.62299 14.329C8.86761 13.7083 8.31399 13.0049 7.74715 13.2162ZM11.0006 13.1985C10.4641 13.3589 10.2519 14.0902 10.6098 14.5452C10.7689 14.7475 10.9314 14.8337 11.1538 14.8337C11.9117 14.8337 12.1547 13.671 11.4795 13.2753C11.335 13.1906 11.1346 13.1585 11.0006 13.1985Z"/>
</mask>
<path fill-rule="evenodd" clip-rule="evenodd" d="M3.79745 0.560068C3.64559 0.641693 3.52037 0.806811 3.47827 0.980939C3.46086 1.05292 3.44655 1.27256 3.44646 1.46897L3.44627 1.82606L2.84101 1.84176C2.16355 1.85929 1.98693 1.90216 1.6075 2.14105C1.3019 2.33348 0.941622 2.76991 0.784499 3.13806C0.529493 3.73555 0.550209 3.11317 0.550209 10.1755C0.550209 17.225 0.530443 16.6176 0.778677 17.1994C1.00693 17.7345 1.44946 18.1767 1.97164 18.3914L2.23575 18.5H8.10449H13.9732L14.2184 18.4009C14.907 18.1225 15.4153 17.4943 15.605 16.6873C15.6553 16.4732 15.6588 16.0559 15.6588 10.1755C15.6588 3.11116 15.6796 3.73598 15.4235 3.13577C15.2435 2.71384 14.8785 2.29593 14.5095 2.08913C14.1502 1.88773 13.8868 1.83342 13.2697 1.83342H12.7627L12.7625 1.47263C12.7623 1.04408 12.7295 0.887028 12.6064 0.725994C12.3406 0.378407 11.8338 0.451761 11.6605 0.862882C11.6087 0.985831 11.5982 1.08045 11.5982 1.42215V1.83342H8.10691H4.6157L4.60559 1.38189C4.59645 0.972878 4.58855 0.918742 4.52165 0.80674C4.35407 0.526207 4.05187 0.423286 3.79745 0.560068ZM3.45173 3.58455C3.46558 4.06579 3.51228 4.21461 3.69779 4.36895C3.92089 4.55459 4.20483 4.53636 4.41659 4.32281C4.58095 4.15706 4.61083 4.04227 4.61083 3.57688V3.17097H8.10449H11.5982V3.57688C11.5982 4.04227 11.628 4.15706 11.7924 4.32281C12.0085 4.54069 12.3056 4.5516 12.5356 4.35005C12.6981 4.20774 12.7439 4.04967 12.7573 3.58455L12.7692 3.17097H13.2551C13.6695 3.17097 13.7658 3.18156 13.9085 3.24291C14.1193 3.33351 14.3077 3.54115 14.413 3.79909L14.4942 3.99814V10.1755V16.3529L14.4141 16.5465C14.3182 16.7785 14.1529 16.9741 13.961 17.0827L13.82 17.1624H8.10449H2.38898L2.24718 17.0822C2.05114 16.9713 1.88942 16.7806 1.79478 16.5488L1.71476 16.3529V10.1755C1.71476 4.30739 1.71752 3.9911 1.7698 3.85734C1.85788 3.6321 1.971 3.46516 2.10403 3.36403C2.32358 3.19715 2.41653 3.17611 2.94505 3.17343L3.43981 3.17097L3.45173 3.58455ZM4.43562 6.60305C3.96959 6.87387 3.90177 7.57161 4.30308 7.96616C4.90892 8.56175 5.77872 7.7337 5.38712 6.93409C5.25697 6.66834 5.07122 6.53839 4.79835 6.5222C4.62713 6.51203 4.57056 6.52463 4.43562 6.60305ZM7.66012 6.58172C7.40153 6.71952 7.2464 7.0046 7.2464 7.34201C7.2464 7.68932 7.40251 7.96056 7.68176 8.09854C7.9629 8.23747 8.26262 8.16408 8.48417 7.90206C8.81876 7.50636 8.71128 6.83184 8.27663 6.59939C8.08236 6.49548 7.8352 6.48841 7.66012 6.58172ZM10.839 6.58742C10.192 6.96461 10.3752 8.09354 11.0946 8.16204C11.5512 8.20554 11.9029 7.794 11.8655 7.25989C11.847 6.99436 11.7492 6.8071 11.5417 6.63959C11.4305 6.54983 11.3766 6.53188 11.1902 6.52234C11.0118 6.51326 10.945 6.52565 10.839 6.58742ZM7.844 9.85963C7.46864 9.92394 7.22602 10.2889 7.25164 10.7507C7.26702 11.0282 7.36769 11.2226 7.57367 11.3727C7.74853 11.5 7.93125 11.5337 8.14172 11.4773C8.35496 11.4201 8.59366 11.1533 8.65437 10.9043C8.79712 10.3186 8.37105 9.76931 7.844 9.85963ZM11.0259 9.86344C10.8461 9.89983 10.7322 9.9754 10.6102 10.1391C10.2753 10.5884 10.4372 11.263 10.9273 11.4616C11.3852 11.6472 11.874 11.2426 11.874 10.6779C11.874 10.4502 11.8118 10.2677 11.6809 10.1109C11.507 9.90275 11.2714 9.81374 11.0259 9.86344ZM4.43391 9.9332C4.09239 10.1274 3.9417 10.645 4.11227 11.0379C4.23924 11.3303 4.47209 11.4929 4.76406 11.4929C5.10677 11.4929 5.35979 11.2729 5.45648 10.8909C5.49904 10.7227 5.50122 10.6619 5.47027 10.5031C5.42445 10.2679 5.28127 10.0481 5.10401 9.94059C4.92213 9.83035 4.62073 9.82701 4.43391 9.9332ZM4.54953 13.2197C4.37163 13.2855 4.19732 13.4526 4.11408 13.6372C4.01788 13.8505 4.02135 14.1895 4.12184 14.3982C4.22119 14.6045 4.41622 14.7709 4.6202 14.8233C5.11486 14.9504 5.58096 14.4151 5.47027 13.8469C5.37741 13.3703 4.94275 13.0742 4.54953 13.2197ZM7.74715 13.2162C7.55804 13.2867 7.43907 13.3987 7.33766 13.6017C7.2627 13.7519 7.24698 13.823 7.24698 14.0122C7.24698 14.9219 8.29428 15.163 8.62299 14.329C8.86761 13.7083 8.31399 13.0049 7.74715 13.2162ZM11.0006 13.1985C10.4641 13.3589 10.2519 14.0902 10.6098 14.5452C10.7689 14.7475 10.9314 14.8337 11.1538 14.8337C11.9117 14.8337 12.1547 13.671 11.4795 13.2753C11.335 13.1906 11.1346 13.1585 11.0006 13.1985Z" fill="#777E91"/>
<path fill-rule="evenodd" clip-rule="evenodd" d="M3.79745 0.560068C3.64559 0.641693 3.52037 0.806811 3.47827 0.980939C3.46086 1.05292 3.44655 1.27256 3.44646 1.46897L3.44627 1.82606L2.84101 1.84176C2.16355 1.85929 1.98693 1.90216 1.6075 2.14105C1.3019 2.33348 0.941622 2.76991 0.784499 3.13806C0.529493 3.73555 0.550209 3.11317 0.550209 10.1755C0.550209 17.225 0.530443 16.6176 0.778677 17.1994C1.00693 17.7345 1.44946 18.1767 1.97164 18.3914L2.23575 18.5H8.10449H13.9732L14.2184 18.4009C14.907 18.1225 15.4153 17.4943 15.605 16.6873C15.6553 16.4732 15.6588 16.0559 15.6588 10.1755C15.6588 3.11116 15.6796 3.73598 15.4235 3.13577C15.2435 2.71384 14.8785 2.29593 14.5095 2.08913C14.1502 1.88773 13.8868 1.83342 13.2697 1.83342H12.7627L12.7625 1.47263C12.7623 1.04408 12.7295 0.887028 12.6064 0.725994C12.3406 0.378407 11.8338 0.451761 11.6605 0.862882C11.6087 0.985831 11.5982 1.08045 11.5982 1.42215V1.83342H8.10691H4.6157L4.60559 1.38189C4.59645 0.972878 4.58855 0.918742 4.52165 0.80674C4.35407 0.526207 4.05187 0.423286 3.79745 0.560068ZM3.45173 3.58455C3.46558 4.06579 3.51228 4.21461 3.69779 4.36895C3.92089 4.55459 4.20483 4.53636 4.41659 4.32281C4.58095 4.15706 4.61083 4.04227 4.61083 3.57688V3.17097H8.10449H11.5982V3.57688C11.5982 4.04227 11.628 4.15706 11.7924 4.32281C12.0085 4.54069 12.3056 4.5516 12.5356 4.35005C12.6981 4.20774 12.7439 4.04967 12.7573 3.58455L12.7692 3.17097H13.2551C13.6695 3.17097 13.7658 3.18156 13.9085 3.24291C14.1193 3.33351 14.3077 3.54115 14.413 3.79909L14.4942 3.99814V10.1755V16.3529L14.4141 16.5465C14.3182 16.7785 14.1529 16.9741 13.961 17.0827L13.82 17.1624H8.10449H2.38898L2.24718 17.0822C2.05114 16.9713 1.88942 16.7806 1.79478 16.5488L1.71476 16.3529V10.1755C1.71476 4.30739 1.71752 3.9911 1.7698 3.85734C1.85788 3.6321 1.971 3.46516 2.10403 3.36403C2.32358 3.19715 2.41653 3.17611 2.94505 3.17343L3.43981 3.17097L3.45173 3.58455ZM4.43562 6.60305C3.96959 6.87387 3.90177 7.57161 4.30308 7.96616C4.90892 8.56175 5.77872 7.7337 5.38712 6.93409C5.25697 6.66834 5.07122 6.53839 4.79835 6.5222C4.62713 6.51203 4.57056 6.52463 4.43562 6.60305ZM7.66012 6.58172C7.40153 6.71952 7.2464 7.0046 7.2464 7.34201C7.2464 7.68932 7.40251 7.96056 7.68176 8.09854C7.9629 8.23747 8.26262 8.16408 8.48417 7.90206C8.81876 7.50636 8.71128 6.83184 8.27663 6.59939C8.08236 6.49548 7.8352 6.48841 7.66012 6.58172ZM10.839 6.58742C10.192 6.96461 10.3752 8.09354 11.0946 8.16204C11.5512 8.20554 11.9029 7.794 11.8655 7.25989C11.847 6.99436 11.7492 6.8071 11.5417 6.63959C11.4305 6.54983 11.3766 6.53188 11.1902 6.52234C11.0118 6.51326 10.945 6.52565 10.839 6.58742ZM7.844 9.85963C7.46864 9.92394 7.22602 10.2889 7.25164 10.7507C7.26702 11.0282 7.36769 11.2226 7.57367 11.3727C7.74853 11.5 7.93125 11.5337 8.14172 11.4773C8.35496 11.4201 8.59366 11.1533 8.65437 10.9043C8.79712 10.3186 8.37105 9.76931 7.844 9.85963ZM11.0259 9.86344C10.8461 9.89983 10.7322 9.9754 10.6102 10.1391C10.2753 10.5884 10.4372 11.263 10.9273 11.4616C11.3852 11.6472 11.874 11.2426 11.874 10.6779C11.874 10.4502 11.8118 10.2677 11.6809 10.1109C11.507 9.90275 11.2714 9.81374 11.0259 9.86344ZM4.43391 9.9332C4.09239 10.1274 3.9417 10.645 4.11227 11.0379C4.23924 11.3303 4.47209 11.4929 4.76406 11.4929C5.10677 11.4929 5.35979 11.2729 5.45648 10.8909C5.49904 10.7227 5.50122 10.6619 5.47027 10.5031C5.42445 10.2679 5.28127 10.0481 5.10401 9.94059C4.92213 9.83035 4.62073 9.82701 4.43391 9.9332ZM4.54953 13.2197C4.37163 13.2855 4.19732 13.4526 4.11408 13.6372C4.01788 13.8505 4.02135 14.1895 4.12184 14.3982C4.22119 14.6045 4.41622 14.7709 4.6202 14.8233C5.11486 14.9504 5.58096 14.4151 5.47027 13.8469C5.37741 13.3703 4.94275 13.0742 4.54953 13.2197ZM7.74715 13.2162C7.55804 13.2867 7.43907 13.3987 7.33766 13.6017C7.2627 13.7519 7.24698 13.823 7.24698 14.0122C7.24698 14.9219 8.29428 15.163 8.62299 14.329C8.86761 13.7083 8.31399 13.0049 7.74715 13.2162ZM11.0006 13.1985C10.4641 13.3589 10.2519 14.0902 10.6098 14.5452C10.7689 14.7475 10.9314 14.8337 11.1538 14.8337C11.9117 14.8337 12.1547 13.671 11.4795 13.2753C11.335 13.1906 11.1346 13.1585 11.0006 13.1985Z" stroke="#777E91" stroke-width="0.4" mask="url(#path-1-outside-1_826_11400)"/>
</svg>
