<svg width="49" height="49" viewBox="0 0 49 49" fill="none" xmlns="http://www.w3.org/2000/svg">
<circle cx="24.6537" cy="24.5013" r="24.1537" fill="#3B71FE"/>
<path fill-rule="evenodd" clip-rule="evenodd" d="M24.5 23.0977C22.2843 23.0977 20.3105 23.1784 18.698 23.2809C17.1684 23.3781 15.9922 24.5451 15.8825 26.0639C15.8044 27.1443 15.75 28.2827 15.75 29.3477C15.75 30.4126 15.8044 31.551 15.8825 32.6314C15.9922 34.1502 17.1684 35.3172 18.698 35.4145C20.3105 35.517 22.2843 35.5977 24.5 35.5977C26.7157 35.5977 28.6895 35.517 30.302 35.4145C31.8316 35.3172 33.0078 34.1502 33.1175 32.6314C33.1956 31.551 33.25 30.4126 33.25 29.3477C33.25 28.2827 33.1956 27.1443 33.1175 26.0639C33.0078 24.5451 31.8316 23.3781 30.302 23.2809C28.6895 23.1784 26.7157 23.0977 24.5 23.0977ZM18.5394 20.7859C15.7672 20.9621 13.5892 23.1131 13.389 25.8837C13.3081 27.0019 13.25 28.2038 13.25 29.3477C13.25 30.4915 13.3081 31.6934 13.389 32.8116C13.5892 35.5822 15.7672 37.7332 18.5394 37.9094C20.1972 38.0148 22.2243 38.0977 24.5 38.0977C26.7757 38.0977 28.8028 38.0148 30.4606 37.9094C33.2328 37.7332 35.4108 35.5822 35.611 32.8116C35.6919 31.6934 35.75 30.4915 35.75 29.3477C35.75 28.2038 35.6919 27.0019 35.611 25.8837C35.4108 23.1131 33.2328 20.9621 30.4606 20.7859C28.8028 20.6805 26.7757 20.5977 24.5 20.5977C22.2243 20.5977 20.1972 20.6805 18.5394 20.7859Z" fill="#D9D9D9"/>
<path fill-rule="evenodd" clip-rule="evenodd" d="M25.75 30.2632C26.4973 29.8309 27 29.023 27 28.0977C27 26.7169 25.8807 25.5977 24.5 25.5977C23.1193 25.5977 22 26.7169 22 28.0977C22 29.023 22.5027 29.8309 23.25 30.2632V31.8477C23.25 32.538 23.8096 33.0977 24.5 33.0977C25.1904 33.0977 25.75 32.538 25.75 31.8477V30.2632Z" fill="#D9D9D9"/>
<path fill-rule="evenodd" clip-rule="evenodd" d="M18.25 16.8477C18.25 13.3959 21.0482 10.5977 24.5 10.5977C27.9518 10.5977 30.75 13.3959 30.75 16.8477V21.8477C30.75 22.538 30.1904 23.0977 29.5 23.0977C28.8096 23.0977 28.25 22.538 28.25 21.8477V16.8477C28.25 14.7766 26.5711 13.0977 24.5 13.0977C22.4289 13.0977 20.75 14.7766 20.75 16.8477V21.8477C20.75 22.538 20.1904 23.0977 19.5 23.0977C18.8096 23.0977 18.25 22.538 18.25 21.8477V16.8477Z" fill="#D9D9D9"/>
</svg>
