<svg width="14" height="17" viewBox="0 0 14 17" fill="none" xmlns="http://www.w3.org/2000/svg">
<path fill-rule="evenodd" clip-rule="evenodd" d="M4.25482 0.127347C3.80912 0.376586 3.79247 1.01089 4.22503 1.26198C4.30634 1.30918 4.63304 1.31527 7.84486 1.32953C11.3684 1.34517 11.3756 1.34533 11.5308 1.41235C11.8565 1.55303 12.1162 1.83023 12.2459 2.17589C12.2957 2.30836 12.2998 2.61964 12.3138 7.28542C12.3274 11.8316 12.3329 12.2619 12.378 12.3479C12.6295 12.8276 13.3338 12.7613 13.4764 12.2446C13.4988 12.1633 13.5058 10.626 13.4995 7.11301L13.4906 2.09752L13.4206 1.8781C13.1503 1.03098 12.5975 0.449341 11.7924 0.164995L11.5839 0.0913297L7.96403 0.0843394C4.7002 0.0780386 4.33541 0.0822705 4.25482 0.127347ZM2.60356 2.64841C1.72771 2.83192 1.02365 3.50954 0.749492 4.43286L0.679688 4.66796V9.36998V14.072L0.749492 14.3071C1.00148 15.1558 1.58619 15.771 2.39277 16.0361L2.61622 16.1095H5.89343H9.17064L9.39408 16.0361C10.2007 15.771 10.7854 15.1558 11.0374 14.3071L11.1072 14.072V9.36998V4.66796L11.0374 4.43286C10.7877 3.59208 10.2216 2.99113 9.40898 2.70408L9.20043 2.63042L5.96791 2.62562C4.19002 2.62296 2.67607 2.63324 2.60356 2.64841ZM9.12595 3.93999C9.46332 4.08021 9.74888 4.38512 9.86186 4.72576C9.91251 4.87846 9.91546 5.13509 9.91546 9.36998C9.91546 13.6049 9.91251 13.8615 9.86186 14.0142C9.74888 14.3548 9.46332 14.6598 9.12595 14.8C9.00052 14.8521 8.79304 14.8557 5.90832 14.8557C3.01637 14.8557 2.81524 14.8522 2.67116 14.7993C2.3474 14.6804 2.0576 14.38 1.92434 14.025C1.87465 13.8925 1.87089 13.6148 1.86336 9.48239C1.85799 6.56269 1.86562 5.0219 1.88597 4.90576C1.97231 4.41267 2.35467 3.99808 2.81121 3.90244C2.88421 3.88714 4.30473 3.8768 5.96791 3.87946C8.78914 3.88398 9.00088 3.88802 9.12595 3.93999Z" fill="#23262F"/>
</svg>
