<svg width="51" height="51" viewBox="0 0 51 51" fill="none" xmlns="http://www.w3.org/2000/svg">
<circle cx="25.5" cy="25.1719" r="25" fill="#3C64B1"/>
<path fill-rule="evenodd" clip-rule="evenodd" d="M36.167 33.1706V23.8372C36.167 22.3645 34.9731 21.1706 33.5003 21.1706H17.5003C16.0276 21.1706 14.8337 22.3645 14.8337 23.8372V33.1706C14.8337 34.6433 16.0276 35.8372 17.5003 35.8372H33.5003C34.9731 35.8372 36.167 34.6433 36.167 33.1706ZM17.5003 18.5039C14.5548 18.5039 12.167 20.8917 12.167 23.8372V33.1706C12.167 36.1161 14.5548 38.5039 17.5003 38.5039H33.5003C36.4458 38.5039 38.8337 36.1161 38.8337 33.1706V23.8372C38.8337 20.8917 36.4458 18.5039 33.5003 18.5039H17.5003Z" fill="white"/>
<path fill-rule="evenodd" clip-rule="evenodd" d="M21.5 14.5065C20.7636 14.5065 20.1667 15.1035 20.1667 15.8398V19.8398C20.1667 20.5762 19.5697 21.1732 18.8333 21.1732C18.097 21.1732 17.5 20.5762 17.5 19.8398V15.8398C17.5 13.6307 19.2909 11.8398 21.5 11.8398H29.5C31.7091 11.8398 33.5 13.6307 33.5 15.8398V19.8398C33.5 20.5762 32.903 21.1732 32.1667 21.1732C31.4303 21.1732 30.8333 20.5762 30.8333 19.8398V15.8398C30.8333 15.1035 30.2364 14.5065 29.5 14.5065H21.5Z" fill="white"/>
</svg>
