<svg width="51" height="51" viewBox="0 0 51 51" fill="none" xmlns="http://www.w3.org/2000/svg">
<circle cx="25.5" cy="25.1719" r="25" fill="#3C64B1"/>
<path fill-rule="evenodd" clip-rule="evenodd" d="M26.3895 17.9918C25.8833 18.4449 25.1173 18.4449 24.6111 17.9918L23.7219 17.196C22.7766 16.3499 21.5347 15.8385 20.167 15.8385C17.2215 15.8385 14.8337 18.2264 14.8337 21.1719C14.8337 25.3099 17.4197 28.626 20.4995 31.0898C22.004 32.2933 23.5229 33.2063 24.6718 33.819C25.1899 34.0953 25.8107 34.0952 26.3288 33.8189C27.4777 33.2062 28.9966 32.2932 30.5012 31.0896C33.581 28.6258 36.167 25.3101 36.167 21.1721C36.167 18.2266 33.7792 15.8385 30.8337 15.8385C29.466 15.8385 28.2241 16.3499 27.2788 17.196L26.3895 17.9918ZM25.5003 15.2089C24.085 13.9422 22.2159 13.1719 20.167 13.1719C15.7487 13.1719 12.167 16.7536 12.167 21.1719C12.167 30.0803 21.4671 35.2688 24.533 36.7372C25.1505 37.0329 25.8501 37.0329 26.4677 36.7372C29.5336 35.2688 38.8337 30.0805 38.8337 21.1721C38.8337 16.7538 35.2519 13.1719 30.8337 13.1719C28.7847 13.1719 26.9157 13.9422 25.5003 15.2089Z" fill="#FCFCFD"/>
</svg>
