<svg width="14" height="17" viewBox="0 0 14 17" fill="none" xmlns="http://www.w3.org/2000/svg">
<path fill-rule="evenodd" clip-rule="evenodd" d="M3.99018 0.127347C3.54447 0.376586 3.52782 1.01089 3.96038 1.26198C4.04169 1.30918 4.36839 1.31527 7.58021 1.32953C11.1037 1.34517 11.111 1.34533 11.2661 1.41235C11.5919 1.55303 11.8515 1.83023 11.9813 2.17589C12.031 2.30836 12.0351 2.61964 12.0491 7.28542C12.0628 11.8316 12.0682 12.2619 12.1133 12.3479C12.3648 12.8276 13.0691 12.7613 13.2117 12.2446C13.2342 12.1633 13.2411 10.626 13.2349 7.11301L13.2259 2.09752L13.1559 1.8781C12.8857 1.03098 12.3329 0.449341 11.5278 0.164995L11.3192 0.0913297L7.69938 0.0843394C4.43555 0.0780386 4.07076 0.0822705 3.99018 0.127347ZM2.33891 2.64841C1.46306 2.83192 0.758997 3.50954 0.484844 4.43286L0.415039 4.66796V9.36998V14.072L0.484844 14.3071C0.736831 15.1558 1.32154 15.771 2.12813 16.0361L2.35157 16.1095H5.62878H8.90599L9.12943 16.0361C9.93601 15.771 10.5207 15.1558 10.7727 14.3071L10.8425 14.072V9.36998V4.66796L10.7727 4.43286C10.5231 3.59208 9.95699 2.99113 9.14433 2.70408L8.93578 2.63042L5.70326 2.62562C3.92538 2.62296 2.41142 2.63324 2.33891 2.64841ZM8.8613 3.93999C9.19867 4.08021 9.48424 4.38512 9.59721 4.72576C9.64786 4.87846 9.65081 5.13509 9.65081 9.36998C9.65081 13.6049 9.64786 13.8615 9.59721 14.0142C9.48424 14.3548 9.19867 14.6598 8.8613 14.8C8.73587 14.8521 8.52839 14.8557 5.64368 14.8557C2.75172 14.8557 2.55059 14.8522 2.40651 14.7993C2.08275 14.6804 1.79296 14.38 1.65969 14.025C1.61 13.8925 1.60624 13.6148 1.59871 9.48239C1.59334 6.56269 1.60097 5.0219 1.62132 4.90576C1.70766 4.41267 2.09002 3.99808 2.54656 3.90244C2.61956 3.88714 4.04008 3.8768 5.70326 3.87946C8.52449 3.88398 8.73623 3.88802 8.8613 3.93999Z" fill="#23262F"/>
</svg>
