<svg width="16" height="12" viewBox="0 0 16 12" fill="none" xmlns="http://www.w3.org/2000/svg">
<path d="M12.5127 0.716917L12.5127 0.716917C12.5618 0.725742 12.6019 0.749225 12.6237 0.762845C12.6503 0.779511 12.6787 0.80058 12.7081 0.824208C12.7674 0.871704 12.845 0.940779 12.9448 1.03422C13.1451 1.22181 13.448 1.51982 13.8977 1.96951C14.2227 2.29445 14.5242 2.60165 14.7481 2.835C14.86 2.95156 14.9533 3.05044 15.0207 3.12422C15.0543 3.16095 15.0826 3.19264 15.1039 3.21773C15.1144 3.23017 15.1245 3.24238 15.1331 3.25358L15.1333 3.25385C15.1389 3.26117 15.1539 3.28068 15.1653 3.30384L12.5127 0.716917ZM12.5127 0.716917C12.3236 0.682906 12.1467 0.757695 12.0301 0.873412M12.5127 0.716917L12.0301 0.873412M13.3126 2.91164L12.806 2.40105L12.9415 2.26662L12.806 2.40105C12.5222 2.11496 12.3063 1.89144 12.1588 1.73066C12.0853 1.65055 12.0267 1.5838 11.9846 1.53153C11.9638 1.50558 11.9448 1.48055 11.9295 1.45757L13.3126 2.91164ZM13.3126 2.91164L8.50417 2.91164C8.23924 2.91164 7.98717 2.91162 7.74733 2.9116C5.40655 2.91143 4.23079 2.91135 3.63319 2.9291C3.31363 2.9386 3.13169 2.95312 3.02439 2.98629C2.96011 3.00616 2.89939 3.03908 2.85404 3.09912C2.83478 3.12461 2.82313 3.14894 2.81721 3.16164C2.81357 3.16945 2.81175 3.17349 2.8106 3.17603C2.80927 3.17899 2.80886 3.1799 2.80757 3.18232L13.3126 2.91164ZM13.4783 3.9777L8.55284 3.9777L3.14435 3.9777L3.06066 3.9777L3.00162 3.91839L2.9051 3.82147C2.74136 3.65702 2.69751 3.38888 2.80756 3.18234L13.4783 3.9777ZM13.4783 3.9777L12.9067 4.55471C12.9067 4.55471 12.9067 4.55472 12.9067 4.55472C12.6553 4.80845 12.422 5.04824 12.2485 5.23033C12.1618 5.32126 12.0894 5.3985 12.0368 5.45619C12.0107 5.4849 11.9884 5.50986 11.9715 5.52976C11.9631 5.53961 11.9549 5.54953 11.9478 5.55878L11.9474 5.55919C11.9429 5.56505 11.9296 5.58225 11.919 5.60295L11.9189 5.60303C11.8258 5.78503 11.8745 5.98199 11.9674 6.11714C12.061 6.25329 12.2241 6.36524 12.4208 6.36524C12.4824 6.36524 12.5438 6.35311 12.6172 6.30994C12.677 6.27482 12.7451 6.21886 12.8326 6.1392C13.0107 5.97705 13.3168 5.67198 13.8839 5.10408C14.2145 4.77293 14.5207 4.46153 14.7478 4.22643C14.8612 4.10899 14.9555 4.00997 15.0234 3.93681C15.0572 3.90036 15.0854 3.86932 15.1065 3.84518C15.117 3.83322 15.1268 3.82169 15.1351 3.81136L15.1355 3.81076C15.1407 3.80431 15.1556 3.78576 15.167 3.76416L15.167 3.76404C15.198 3.70528 15.2351 3.62849 15.2336 3.53415C15.2322 3.44475 15.1961 3.36666 15.1653 3.30393L13.4783 3.9777ZM2.72379 7.81937L7.4003 7.81937C7.64004 7.81937 7.86901 7.81936 8.0877 7.81934C10.4041 7.81919 11.5679 7.81911 12.1633 7.83771C12.4806 7.84762 12.6624 7.86287 12.773 7.89616C12.8378 7.91566 12.8938 7.9454 12.9397 7.99424C12.9599 8.01572 12.9739 8.03655 12.9824 8.04957C12.9873 8.05716 12.9901 8.06154 12.9921 8.06475C12.9946 8.06872 12.996 8.07092 12.999 8.07523L2.72379 7.81937ZM2.72379 7.81937L3.19651 7.34177L3.19652 7.34177C3.42066 7.11529 3.62928 6.90027 3.78497 6.7361C3.8627 6.65413 3.92796 6.58408 3.9756 6.5313C3.9993 6.50504 4.01967 6.48192 4.0354 6.46318L4.03673 6.46159C4.04663 6.44982 4.07038 6.42159 4.08495 6.39318L4.08498 6.39312C4.17824 6.21112 4.12959 6.01409 4.03667 5.87893C3.94306 5.74276 3.78001 5.63079 3.58326 5.63079C3.52162 5.63079 3.46028 5.64292 3.38683 5.68608C3.32706 5.72121 3.25899 5.77717 3.17148 5.85683C2.99335 6.01898 2.68726 6.32405 2.1202 6.89195C1.7895 7.22314 1.48304 7.53504 1.25556 7.7709C1.14193 7.88873 1.04738 7.98823 0.979167 8.06194C0.945189 8.09866 0.916794 8.13 0.895518 8.15448C0.884971 8.16662 0.875071 8.17833 0.866698 8.18887L0.866316 8.18935C0.860954 8.1961 0.846255 8.21459 0.834918 8.23613L0.832736 8.24026C0.807052 8.28891 0.759332 8.3793 0.77623 8.49779C0.791615 8.60569 0.855551 8.70435 0.934434 8.80383C1.09659 9.00832 1.43567 9.3494 2.07503 9.99115C2.53949 10.4574 2.84995 10.7642 3.05427 10.9565C3.15604 11.0523 3.23472 11.1228 3.29461 11.171C3.32441 11.195 3.35303 11.2164 3.37989 11.2332C3.40185 11.247 3.44232 11.2708 3.49195 11.2796L3.49196 11.2796C3.68097 11.3129 3.85756 11.2382 3.9741 11.1224C4.09033 11.007 4.16778 10.8285 4.12106 10.6376C4.12106 10.6376 4.12105 10.6375 4.12104 10.6375L3.9254 10.6854C3.90981 10.6217 3.59848 10.2847 2.97246 9.65394L2.72379 7.81937ZM12.0301 0.873412C11.9138 0.988839 11.8362 1.16748 11.8831 1.35853L12.0301 0.873412ZM2.52641 8.91859L7.33625 8.91859C9.77549 8.91859 11.102 8.91751 11.8293 8.91006C12.192 8.90634 12.4098 8.90101 12.5431 8.89312C12.6093 8.88921 12.6606 8.88435 12.7008 8.8775C12.74 8.87081 12.784 8.8599 12.8256 8.83519C12.8256 8.83519 12.8257 8.83518 12.8257 8.83517L12.7229 8.66195L2.52641 8.91859Z" fill="#3772FF"/>
<path d="M12.5127 0.716917L12.5127 0.716917C12.5618 0.725742 12.6019 0.749225 12.6237 0.762845C12.6503 0.779511 12.6787 0.80058 12.7081 0.824208C12.7674 0.871704 12.845 0.940779 12.9448 1.03422C13.1451 1.22181 13.448 1.51982 13.8977 1.96951C14.2227 2.29445 14.5242 2.60165 14.7481 2.835C14.86 2.95156 14.9533 3.05044 15.0207 3.12422C15.0543 3.16095 15.0826 3.19264 15.1039 3.21773C15.1144 3.23017 15.1245 3.24238 15.1331 3.25358L15.1333 3.25385C15.1389 3.26117 15.1539 3.28068 15.1653 3.30384L12.5127 0.716917ZM12.5127 0.716917C12.3236 0.682906 12.1467 0.757695 12.0301 0.873412M12.5127 0.716917L12.0301 0.873412M13.3126 2.91164L12.806 2.40105L12.9415 2.26662L12.806 2.40105C12.5222 2.11496 12.3063 1.89144 12.1588 1.73066C12.0853 1.65055 12.0267 1.5838 11.9846 1.53153C11.9638 1.50558 11.9448 1.48055 11.9295 1.45757L13.3126 2.91164ZM13.3126 2.91164L8.50417 2.91164C8.23924 2.91164 7.98717 2.91162 7.74733 2.9116C5.40655 2.91143 4.23079 2.91135 3.63319 2.9291C3.31363 2.9386 3.13169 2.95312 3.02439 2.98629C2.96011 3.00616 2.89939 3.03908 2.85404 3.09912C2.83478 3.12461 2.82313 3.14894 2.81721 3.16164C2.81357 3.16945 2.81175 3.17349 2.8106 3.17603C2.80927 3.17899 2.80886 3.1799 2.80757 3.18232L13.3126 2.91164ZM13.4783 3.9777L8.55284 3.9777L3.14435 3.9777L3.06066 3.9777L3.00162 3.91839L2.9051 3.82147C2.74136 3.65702 2.69751 3.38888 2.80756 3.18234L13.4783 3.9777ZM13.4783 3.9777L12.9067 4.55471C12.9067 4.55471 12.9067 4.55472 12.9067 4.55472C12.6553 4.80845 12.422 5.04824 12.2485 5.23033C12.1618 5.32126 12.0894 5.3985 12.0368 5.45619C12.0107 5.4849 11.9884 5.50986 11.9715 5.52976C11.9631 5.53961 11.9549 5.54953 11.9478 5.55878L11.9474 5.55919C11.9429 5.56505 11.9296 5.58225 11.919 5.60295L11.9189 5.60303C11.8258 5.78503 11.8745 5.98199 11.9674 6.11714C12.061 6.25329 12.2241 6.36524 12.4208 6.36524C12.4824 6.36524 12.5438 6.35311 12.6172 6.30994C12.677 6.27482 12.7451 6.21886 12.8326 6.1392C13.0107 5.97705 13.3168 5.67198 13.8839 5.10408C14.2145 4.77293 14.5207 4.46153 14.7478 4.22643C14.8612 4.10899 14.9555 4.00997 15.0234 3.93681C15.0572 3.90036 15.0854 3.86932 15.1065 3.84518C15.117 3.83322 15.1268 3.82169 15.1351 3.81136L15.1355 3.81076C15.1407 3.80431 15.1556 3.78576 15.167 3.76416L15.167 3.76404C15.198 3.70528 15.2351 3.62849 15.2336 3.53415C15.2322 3.44475 15.1961 3.36666 15.1653 3.30393L13.4783 3.9777ZM2.72379 7.81937L7.4003 7.81937C7.64004 7.81937 7.86901 7.81936 8.0877 7.81934C10.4041 7.81919 11.5679 7.81911 12.1633 7.83771C12.4806 7.84762 12.6624 7.86287 12.773 7.89616C12.8378 7.91566 12.8938 7.9454 12.9397 7.99424C12.9599 8.01572 12.9739 8.03655 12.9824 8.04957C12.9873 8.05716 12.9901 8.06154 12.9921 8.06475C12.9946 8.06872 12.996 8.07092 12.999 8.07523L2.72379 7.81937ZM2.72379 7.81937L3.19651 7.34177L3.19652 7.34177C3.42066 7.11529 3.62928 6.90027 3.78497 6.7361C3.8627 6.65413 3.92796 6.58408 3.9756 6.5313C3.9993 6.50504 4.01967 6.48192 4.0354 6.46318L4.03673 6.46159C4.04663 6.44982 4.07038 6.42159 4.08495 6.39318L4.08498 6.39312C4.17824 6.21112 4.12959 6.01409 4.03667 5.87893C3.94306 5.74276 3.78001 5.63079 3.58326 5.63079C3.52162 5.63079 3.46028 5.64292 3.38683 5.68608C3.32706 5.72121 3.25899 5.77717 3.17148 5.85683C2.99335 6.01898 2.68726 6.32405 2.1202 6.89195C1.7895 7.22314 1.48304 7.53504 1.25556 7.7709C1.14193 7.88873 1.04738 7.98823 0.979167 8.06194C0.945189 8.09866 0.916794 8.13 0.895518 8.15448C0.884971 8.16662 0.875071 8.17833 0.866698 8.18887L0.866316 8.18935C0.860954 8.1961 0.846255 8.21459 0.834918 8.23613L0.832736 8.24026C0.807052 8.28891 0.759332 8.3793 0.77623 8.49779C0.791615 8.60569 0.855551 8.70435 0.934434 8.80383C1.09659 9.00832 1.43567 9.3494 2.07503 9.99115C2.53949 10.4574 2.84995 10.7642 3.05427 10.9565C3.15604 11.0523 3.23472 11.1228 3.29461 11.171C3.32441 11.195 3.35303 11.2164 3.37989 11.2332C3.40185 11.247 3.44232 11.2708 3.49195 11.2796L3.49196 11.2796C3.68097 11.3129 3.85756 11.2382 3.9741 11.1224C4.09033 11.007 4.16778 10.8285 4.12106 10.6376C4.12106 10.6376 4.12105 10.6375 4.12104 10.6375L3.9254 10.6854C3.90981 10.6217 3.59848 10.2847 2.97246 9.65394L2.72379 7.81937ZM12.0301 0.873412C11.9138 0.988839 11.8362 1.16748 11.8831 1.35853L12.0301 0.873412ZM2.52641 8.91859L7.33625 8.91859C9.77549 8.91859 11.102 8.91751 11.8293 8.91006C12.192 8.90634 12.4098 8.90101 12.5431 8.89312C12.6093 8.88921 12.6606 8.88435 12.7008 8.8775C12.74 8.87081 12.784 8.8599 12.8256 8.83519C12.8256 8.83519 12.8257 8.83518 12.8257 8.83517L12.7229 8.66195L2.52641 8.91859Z" fill="black" fill-opacity="0.25"/>
<path d="M12.5127 0.716917L12.5127 0.716917C12.5618 0.725742 12.6019 0.749225 12.6237 0.762845C12.6503 0.779511 12.6787 0.80058 12.7081 0.824208C12.7674 0.871704 12.845 0.940779 12.9448 1.03422C13.1451 1.22181 13.448 1.51982 13.8977 1.96951C14.2227 2.29445 14.5242 2.60165 14.7481 2.835C14.86 2.95156 14.9533 3.05044 15.0207 3.12422C15.0543 3.16095 15.0826 3.19264 15.1039 3.21773C15.1144 3.23017 15.1245 3.24238 15.1331 3.25358L15.1333 3.25385C15.1389 3.26117 15.1539 3.28068 15.1653 3.30384L12.5127 0.716917ZM12.5127 0.716917C12.3236 0.682906 12.1467 0.757695 12.0301 0.873412M12.5127 0.716917L12.0301 0.873412M13.3126 2.91164L12.806 2.40105L12.9415 2.26662L12.806 2.40105C12.5222 2.11496 12.3063 1.89144 12.1588 1.73066C12.0853 1.65055 12.0267 1.5838 11.9846 1.53153C11.9638 1.50558 11.9448 1.48055 11.9295 1.45757L13.3126 2.91164ZM13.3126 2.91164L8.50417 2.91164C8.23924 2.91164 7.98717 2.91162 7.74733 2.9116C5.40655 2.91143 4.23079 2.91135 3.63319 2.9291C3.31363 2.9386 3.13169 2.95312 3.02439 2.98629C2.96011 3.00616 2.89939 3.03908 2.85404 3.09912C2.83478 3.12461 2.82313 3.14894 2.81721 3.16164C2.81357 3.16945 2.81175 3.17349 2.8106 3.17603C2.80927 3.17899 2.80886 3.1799 2.80757 3.18232L13.3126 2.91164ZM13.4783 3.9777L8.55284 3.9777L3.14435 3.9777L3.06066 3.9777L3.00162 3.91839L2.9051 3.82147C2.74136 3.65702 2.69751 3.38888 2.80756 3.18234L13.4783 3.9777ZM13.4783 3.9777L12.9067 4.55471C12.9067 4.55471 12.9067 4.55472 12.9067 4.55472C12.6553 4.80845 12.422 5.04824 12.2485 5.23033C12.1618 5.32126 12.0894 5.3985 12.0368 5.45619C12.0107 5.4849 11.9884 5.50986 11.9715 5.52976C11.9631 5.53961 11.9549 5.54953 11.9478 5.55878L11.9474 5.55919C11.9429 5.56505 11.9296 5.58225 11.919 5.60295L11.9189 5.60303C11.8258 5.78503 11.8745 5.98199 11.9674 6.11714C12.061 6.25329 12.2241 6.36524 12.4208 6.36524C12.4824 6.36524 12.5438 6.35311 12.6172 6.30994C12.677 6.27482 12.7451 6.21886 12.8326 6.1392C13.0107 5.97705 13.3168 5.67198 13.8839 5.10408C14.2145 4.77293 14.5207 4.46153 14.7478 4.22643C14.8612 4.10899 14.9555 4.00997 15.0234 3.93681C15.0572 3.90036 15.0854 3.86932 15.1065 3.84518C15.117 3.83322 15.1268 3.82169 15.1351 3.81136L15.1355 3.81076C15.1407 3.80431 15.1556 3.78576 15.167 3.76416L15.167 3.76404C15.198 3.70528 15.2351 3.62849 15.2336 3.53415C15.2322 3.44475 15.1961 3.36666 15.1653 3.30393L13.4783 3.9777ZM2.72379 7.81937L7.4003 7.81937C7.64004 7.81937 7.86901 7.81936 8.0877 7.81934C10.4041 7.81919 11.5679 7.81911 12.1633 7.83771C12.4806 7.84762 12.6624 7.86287 12.773 7.89616C12.8378 7.91566 12.8938 7.9454 12.9397 7.99424C12.9599 8.01572 12.9739 8.03655 12.9824 8.04957C12.9873 8.05716 12.9901 8.06154 12.9921 8.06475C12.9946 8.06872 12.996 8.07092 12.999 8.07523L2.72379 7.81937ZM2.72379 7.81937L3.19651 7.34177L3.19652 7.34177C3.42066 7.11529 3.62928 6.90027 3.78497 6.7361C3.8627 6.65413 3.92796 6.58408 3.9756 6.5313C3.9993 6.50504 4.01967 6.48192 4.0354 6.46318L4.03673 6.46159C4.04663 6.44982 4.07038 6.42159 4.08495 6.39318L4.08498 6.39312C4.17824 6.21112 4.12959 6.01409 4.03667 5.87893C3.94306 5.74276 3.78001 5.63079 3.58326 5.63079C3.52162 5.63079 3.46028 5.64292 3.38683 5.68608C3.32706 5.72121 3.25899 5.77717 3.17148 5.85683C2.99335 6.01898 2.68726 6.32405 2.1202 6.89195C1.7895 7.22314 1.48304 7.53504 1.25556 7.7709C1.14193 7.88873 1.04738 7.98823 0.979167 8.06194C0.945189 8.09866 0.916794 8.13 0.895518 8.15448C0.884971 8.16662 0.875071 8.17833 0.866698 8.18887L0.866316 8.18935C0.860954 8.1961 0.846255 8.21459 0.834918 8.23613L0.832736 8.24026C0.807052 8.28891 0.759332 8.3793 0.77623 8.49779C0.791615 8.60569 0.855551 8.70435 0.934434 8.80383C1.09659 9.00832 1.43567 9.3494 2.07503 9.99115C2.53949 10.4574 2.84995 10.7642 3.05427 10.9565C3.15604 11.0523 3.23472 11.1228 3.29461 11.171C3.32441 11.195 3.35303 11.2164 3.37989 11.2332C3.40185 11.247 3.44232 11.2708 3.49195 11.2796L3.49196 11.2796C3.68097 11.3129 3.85756 11.2382 3.9741 11.1224C4.09033 11.007 4.16778 10.8285 4.12106 10.6376C4.12106 10.6376 4.12105 10.6375 4.12104 10.6375L3.9254 10.6854C3.90981 10.6217 3.59848 10.2847 2.97246 9.65394L2.72379 7.81937ZM12.0301 0.873412C11.9138 0.988839 11.8362 1.16748 11.8831 1.35853L12.0301 0.873412ZM2.52641 8.91859L7.33625 8.91859C9.77549 8.91859 11.102 8.91751 11.8293 8.91006C12.192 8.90634 12.4098 8.90101 12.5431 8.89312C12.6093 8.88921 12.6606 8.88435 12.7008 8.8775C12.74 8.87081 12.784 8.8599 12.8256 8.83519C12.8256 8.83519 12.8257 8.83518 12.8257 8.83517L12.7229 8.66195L2.52641 8.91859Z" stroke="#3772FF" stroke-width="0.40285"/>
<path d="M12.5127 0.716917L12.5127 0.716917C12.5618 0.725742 12.6019 0.749225 12.6237 0.762845C12.6503 0.779511 12.6787 0.80058 12.7081 0.824208C12.7674 0.871704 12.845 0.940779 12.9448 1.03422C13.1451 1.22181 13.448 1.51982 13.8977 1.96951C14.2227 2.29445 14.5242 2.60165 14.7481 2.835C14.86 2.95156 14.9533 3.05044 15.0207 3.12422C15.0543 3.16095 15.0826 3.19264 15.1039 3.21773C15.1144 3.23017 15.1245 3.24238 15.1331 3.25358L15.1333 3.25385C15.1389 3.26117 15.1539 3.28068 15.1653 3.30384L12.5127 0.716917ZM12.5127 0.716917C12.3236 0.682906 12.1467 0.757695 12.0301 0.873412M12.5127 0.716917L12.0301 0.873412M13.3126 2.91164L12.806 2.40105L12.9415 2.26662L12.806 2.40105C12.5222 2.11496 12.3063 1.89144 12.1588 1.73066C12.0853 1.65055 12.0267 1.5838 11.9846 1.53153C11.9638 1.50558 11.9448 1.48055 11.9295 1.45757L13.3126 2.91164ZM13.3126 2.91164L8.50417 2.91164C8.23924 2.91164 7.98717 2.91162 7.74733 2.9116C5.40655 2.91143 4.23079 2.91135 3.63319 2.9291C3.31363 2.9386 3.13169 2.95312 3.02439 2.98629C2.96011 3.00616 2.89939 3.03908 2.85404 3.09912C2.83478 3.12461 2.82313 3.14894 2.81721 3.16164C2.81357 3.16945 2.81175 3.17349 2.8106 3.17603C2.80927 3.17899 2.80886 3.1799 2.80757 3.18232L13.3126 2.91164ZM13.4783 3.9777L8.55284 3.9777L3.14435 3.9777L3.06066 3.9777L3.00162 3.91839L2.9051 3.82147C2.74136 3.65702 2.69751 3.38888 2.80756 3.18234L13.4783 3.9777ZM13.4783 3.9777L12.9067 4.55471C12.9067 4.55471 12.9067 4.55472 12.9067 4.55472C12.6553 4.80845 12.422 5.04824 12.2485 5.23033C12.1618 5.32126 12.0894 5.3985 12.0368 5.45619C12.0107 5.4849 11.9884 5.50986 11.9715 5.52976C11.9631 5.53961 11.9549 5.54953 11.9478 5.55878L11.9474 5.55919C11.9429 5.56505 11.9296 5.58225 11.919 5.60295L11.9189 5.60303C11.8258 5.78503 11.8745 5.98199 11.9674 6.11714C12.061 6.25329 12.2241 6.36524 12.4208 6.36524C12.4824 6.36524 12.5438 6.35311 12.6172 6.30994C12.677 6.27482 12.7451 6.21886 12.8326 6.1392C13.0107 5.97705 13.3168 5.67198 13.8839 5.10408C14.2145 4.77293 14.5207 4.46153 14.7478 4.22643C14.8612 4.10899 14.9555 4.00997 15.0234 3.93681C15.0572 3.90036 15.0854 3.86932 15.1065 3.84518C15.117 3.83322 15.1268 3.82169 15.1351 3.81136L15.1355 3.81076C15.1407 3.80431 15.1556 3.78576 15.167 3.76416L15.167 3.76404C15.198 3.70528 15.2351 3.62849 15.2336 3.53415C15.2322 3.44475 15.1961 3.36666 15.1653 3.30393L13.4783 3.9777ZM2.72379 7.81937L7.4003 7.81937C7.64004 7.81937 7.86901 7.81936 8.0877 7.81934C10.4041 7.81919 11.5679 7.81911 12.1633 7.83771C12.4806 7.84762 12.6624 7.86287 12.773 7.89616C12.8378 7.91566 12.8938 7.9454 12.9397 7.99424C12.9599 8.01572 12.9739 8.03655 12.9824 8.04957C12.9873 8.05716 12.9901 8.06154 12.9921 8.06475C12.9946 8.06872 12.996 8.07092 12.999 8.07523L2.72379 7.81937ZM2.72379 7.81937L3.19651 7.34177L3.19652 7.34177C3.42066 7.11529 3.62928 6.90027 3.78497 6.7361C3.8627 6.65413 3.92796 6.58408 3.9756 6.5313C3.9993 6.50504 4.01967 6.48192 4.0354 6.46318L4.03673 6.46159C4.04663 6.44982 4.07038 6.42159 4.08495 6.39318L4.08498 6.39312C4.17824 6.21112 4.12959 6.01409 4.03667 5.87893C3.94306 5.74276 3.78001 5.63079 3.58326 5.63079C3.52162 5.63079 3.46028 5.64292 3.38683 5.68608C3.32706 5.72121 3.25899 5.77717 3.17148 5.85683C2.99335 6.01898 2.68726 6.32405 2.1202 6.89195C1.7895 7.22314 1.48304 7.53504 1.25556 7.7709C1.14193 7.88873 1.04738 7.98823 0.979167 8.06194C0.945189 8.09866 0.916794 8.13 0.895518 8.15448C0.884971 8.16662 0.875071 8.17833 0.866698 8.18887L0.866316 8.18935C0.860954 8.1961 0.846255 8.21459 0.834918 8.23613L0.832736 8.24026C0.807052 8.28891 0.759332 8.3793 0.77623 8.49779C0.791615 8.60569 0.855551 8.70435 0.934434 8.80383C1.09659 9.00832 1.43567 9.3494 2.07503 9.99115C2.53949 10.4574 2.84995 10.7642 3.05427 10.9565C3.15604 11.0523 3.23472 11.1228 3.29461 11.171C3.32441 11.195 3.35303 11.2164 3.37989 11.2332C3.40185 11.247 3.44232 11.2708 3.49195 11.2796L3.49196 11.2796C3.68097 11.3129 3.85756 11.2382 3.9741 11.1224C4.09033 11.007 4.16778 10.8285 4.12106 10.6376C4.12106 10.6376 4.12105 10.6375 4.12104 10.6375L3.9254 10.6854C3.90981 10.6217 3.59848 10.2847 2.97246 9.65394L2.72379 7.81937ZM12.0301 0.873412C11.9138 0.988839 11.8362 1.16748 11.8831 1.35853L12.0301 0.873412ZM2.52641 8.91859L7.33625 8.91859C9.77549 8.91859 11.102 8.91751 11.8293 8.91006C12.192 8.90634 12.4098 8.90101 12.5431 8.89312C12.6093 8.88921 12.6606 8.88435 12.7008 8.8775C12.74 8.87081 12.784 8.8599 12.8256 8.83519C12.8256 8.83519 12.8257 8.83518 12.8257 8.83517L12.7229 8.66195L2.52641 8.91859Z" stroke="black" stroke-opacity="0.25" stroke-width="0.40285"/>
</svg>
