<svg width="14" height="17" viewBox="0 0 14 17" fill="none" xmlns="http://www.w3.org/2000/svg">
<path fill-rule="evenodd" clip-rule="evenodd" d="M4.25482 0.963285C3.80912 1.21252 3.79247 1.84683 4.22503 2.09791C4.30634 2.14512 4.63304 2.1512 7.84486 2.16547C11.3684 2.18111 11.3756 2.18126 11.5308 2.24828C11.8565 2.38897 12.1162 2.66617 12.2459 3.01183C12.2957 3.1443 12.2998 3.45557 12.3138 8.12136C12.3274 12.6676 12.3329 13.0978 12.378 13.1839C12.6295 13.6635 13.3338 13.5973 13.4764 13.0806C13.4988 12.9992 13.5058 11.4619 13.4995 7.94895L13.4906 2.93346L13.4206 2.71403C13.1503 1.86692 12.5975 1.28528 11.7924 1.00093L11.5839 0.927267L7.96403 0.920277C4.7002 0.913976 4.33541 0.918208 4.25482 0.963285ZM2.60356 3.48435C1.72771 3.66785 1.02365 4.34548 0.749492 5.2688L0.679688 5.5039V10.2059V14.9079L0.749492 15.143C1.00148 15.9917 1.58619 16.6069 2.39277 16.872L2.61622 16.9455H5.89343H9.17064L9.39408 16.872C10.2007 16.6069 10.7854 15.9917 11.0374 15.143L11.1072 14.9079V10.2059V5.5039L11.0374 5.2688C10.7877 4.42801 10.2216 3.82706 9.40898 3.54002L9.20043 3.46636L5.96791 3.46156C4.19002 3.4589 2.67607 3.46918 2.60356 3.48435ZM9.12595 4.77593C9.46332 4.91615 9.74888 5.22106 9.86186 5.5617C9.91251 5.71439 9.91546 5.97103 9.91546 10.2059C9.91546 14.4408 9.91251 14.6974 9.86186 14.8501C9.74888 15.1908 9.46332 15.4957 9.12595 15.6359C9.00052 15.688 8.79304 15.6916 5.90832 15.6916C3.01637 15.6916 2.81524 15.6881 2.67116 15.6352C2.3474 15.5163 2.0576 15.2159 1.92434 14.8609C1.87465 14.7285 1.87089 14.4507 1.86336 10.3183C1.85799 7.39862 1.86562 5.85784 1.88597 5.7417C1.97231 5.24861 2.35467 4.83402 2.81121 4.73838C2.88421 4.72308 4.30473 4.71274 5.96791 4.7154C8.78914 4.71992 9.00088 4.72396 9.12595 4.77593Z" fill="#23262F"/>
</svg>
