<svg width="15" height="12" viewBox="0 0 15 12" fill="none" xmlns="http://www.w3.org/2000/svg">
<path d="M5.6832 4.1815L5.10742 3.63279L5.10742 3.63278C4.71919 3.26276 4.02191 2.59885 3.55796 2.15744C3.3257 1.93646 3.11576 1.73417 2.96456 1.58622C2.88904 1.51232 2.82777 1.45158 2.78559 1.4087C2.76466 1.38743 2.74758 1.36969 2.7356 1.35663C2.72993 1.35044 2.72372 1.34348 2.71853 1.33697C2.71647 1.33438 2.71141 1.32797 2.70655 1.31981C2.7047 1.3167 2.69843 1.30613 2.69404 1.29136C2.69189 1.28412 2.68788 1.26845 2.68927 1.24829C2.69078 1.22632 2.69956 1.19285 2.72953 1.16616L5.6832 4.1815ZM5.6832 4.1815L4.8562 4.55281L4.89581 4.64101L4.8562 4.55281L3.90964 4.97781L2.93995 4.62953L2.93994 4.62953C2.66044 4.52915 2.40321 4.43783 2.21389 4.37155C2.11929 4.33844 2.04136 4.31147 1.986 4.29274C1.9584 4.2834 1.93589 4.27592 1.91954 4.27071C1.91149 4.26814 1.90409 4.26585 1.898 4.2641C1.89506 4.26326 1.89133 4.26223 1.88746 4.2613C1.88556 4.26085 1.88258 4.26017 1.87905 4.25954C1.87711 4.25919 1.8684 4.25758 1.85737 4.25752L5.6832 4.1815ZM2.77111 1.14185C2.7684 1.14274 2.7486 1.14924 2.72971 1.166L14.2818 2.75861C14.2818 2.7586 14.2818 2.75859 14.2818 2.75858C14.3479 2.54397 14.3234 2.33991 14.2033 2.15855C14.0868 1.98289 13.8878 1.83913 13.6246 1.72054L13.6246 1.72054C13.3077 1.57777 13.0683 1.5234 12.6908 1.50638L12.6908 1.50638C12.3197 1.48967 12.0709 1.51671 11.6697 1.61583L11.6987 1.73316L11.6697 1.61583C11.331 1.69951 11.0758 1.80277 9.82183 2.3557L9.87059 2.46628L9.82183 2.3557L8.79519 2.80843L6.96742 1.94343L6.91572 2.05267L6.96742 1.94343L5.08972 1.05482L5.06428 1.04279L5.03615 1.04322L4.79978 1.04689L4.79977 1.04689C4.66779 1.04895 4.16741 1.06736 3.68856 1.08774C3.44856 1.09794 3.2288 1.10844 3.06802 1.11716C2.98772 1.12151 2.92168 1.12544 2.87505 1.12869C2.85188 1.1303 2.83265 1.1318 2.81856 1.13316C2.81175 1.13382 2.80466 1.13458 2.79841 1.13548C2.79555 1.13589 2.79065 1.13665 2.78519 1.13787C2.78262 1.13845 2.7775 1.13967 2.77136 1.14177C2.77131 1.14179 2.77123 1.14181 2.77111 1.14185ZM1.85733 4.25752C1.83898 4.25743 1.82304 4.2614 1.81757 4.26276L1.81749 4.26278C1.80911 4.26486 1.80048 4.26749 1.79241 4.27012C1.77609 4.27545 1.75625 4.28273 1.7343 4.2912C1.69009 4.30828 1.632 4.33229 1.56558 4.36062C1.43247 4.41742 1.26232 4.49317 1.09533 4.56947C0.92837 4.64576 0.763618 4.72304 0.641377 4.78292C0.580518 4.81274 0.528876 4.83889 0.492468 4.85872C0.474786 4.86835 0.457979 4.87795 0.444965 4.88655C0.439424 4.89021 0.429142 4.89719 0.419363 4.9064C0.415532 4.91001 0.403524 4.92145 0.393858 4.93941C0.385485 4.95497 0.359451 5.01602 0.406019 5.07393L0.406042 5.07395C0.418775 5.08978 0.699791 5.42055 1.02824 5.80646L1.10734 5.73914L1.02824 5.80646C1.28695 6.11042 1.43312 6.28505 1.51134 6.38811C1.53185 6.41513 1.54617 6.4353 1.55603 6.45016C1.40367 6.68016 1.37946 6.96869 1.54519 7.17378L1.5452 7.1738C1.66743 7.32501 1.90949 7.44462 2.15293 7.49711C2.50063 7.57208 3.01019 7.5708 3.54065 7.51419C4.07342 7.45733 4.63981 7.34328 5.10468 7.18525L5.10468 7.18524C5.14139 7.17276 5.29876 7.10619 5.53592 7.00418C5.77697 6.9005 6.10796 6.75688 6.49888 6.58652C7.28076 6.24579 8.30289 5.79788 9.3258 5.34809C11.367 4.45054 13.4231 3.54039 13.5649 3.46523L1.85733 4.25752ZM1.5914 6.40081L1.59138 6.40083L1.5914 6.40081ZM8.72495 3.64494L8.7749 3.6687L8.82553 3.64643L10.0853 3.09235L10.0369 2.98234L10.0853 3.09235C10.7803 2.78663 11.4568 2.49882 11.5917 2.45081C12.2253 2.2254 12.8252 2.21789 13.2564 2.409C13.3399 2.446 13.4168 2.49037 13.471 2.52954C13.4804 2.53639 13.4888 2.54279 13.4961 2.5487C13.481 2.56432 13.4617 2.58243 13.4387 2.60223C13.37 2.66142 13.2785 2.72672 13.1915 2.77512C13.1915 2.77512 13.1915 2.77512 13.1914 2.77512L13.1913 2.77518L13.1908 2.77547L13.1887 2.77657L13.1813 2.78026L13.1567 2.79211C13.1363 2.8018 13.1087 2.81463 13.0743 2.83045C13.0055 2.86208 12.9104 2.90519 12.7926 2.9582C12.5571 3.0642 12.2316 3.20942 11.8459 3.3808C11.0745 3.72354 10.0626 4.17066 9.04819 4.61737C7.01479 5.5128 4.98299 6.40131 4.8437 6.45092C4.52916 6.56295 4.08961 6.65862 3.65702 6.71803C3.22311 6.77762 2.80871 6.79898 2.54297 6.76816C2.48538 6.76148 2.42625 6.75311 2.37454 6.74463L2.38636 6.73421L2.38637 6.7342L2.56797 6.57418L2.65718 6.49556L2.58002 6.40508L2.03638 5.76765C1.88706 5.59257 1.7504 5.43093 1.65054 5.31159C1.62065 5.27587 1.59413 5.24403 1.5716 5.21681C1.599 5.20322 1.62964 5.18864 1.66139 5.17408C1.71804 5.14812 1.77611 5.12322 1.82291 5.10507C1.84615 5.09606 1.86526 5.08924 1.87938 5.08482C1.89363 5.08928 1.91326 5.09566 1.93807 5.10392C1.9928 5.12214 2.0702 5.14864 2.1648 5.18153C2.35386 5.24727 2.61018 5.33804 2.88805 5.43793C2.88805 5.43793 2.88805 5.43794 2.88806 5.43794L3.89947 5.80161L3.94539 5.81813L3.98991 5.79812L5.01302 5.33826L5.01302 5.33826C5.57572 5.08532 6.22599 4.7941 6.45801 4.69105C6.57499 4.6391 6.68183 4.58975 6.75989 4.55198C6.79871 4.5332 6.83153 4.51674 6.85523 4.50399C6.86673 4.49781 6.87818 4.49138 6.88765 4.48535C6.89192 4.48263 6.89913 4.47789 6.90646 4.47179C6.90983 4.46898 6.91696 4.46284 6.9243 4.45387L6.9246 4.45351C6.92852 4.44878 6.95218 4.42021 6.95218 4.37622C6.95218 4.34526 6.9398 4.32263 6.93848 4.32022L6.93838 4.32004C6.93495 4.31345 6.93162 4.30855 6.9301 4.30636C6.92679 4.30161 6.92371 4.29788 6.9223 4.29619C6.91906 4.2923 6.91557 4.28847 6.9128 4.28548C6.90688 4.27911 6.89891 4.27086 6.88952 4.26131C6.87051 4.24198 6.84293 4.2145 6.808 4.18005C6.73801 4.111 6.63702 4.01249 6.51268 3.89191C6.26392 3.65066 5.92093 3.32035 5.54374 2.95917L5.46503 3.04137L5.54374 2.95917L4.37426 1.83939C4.43525 1.83599 4.48416 1.83222 4.52618 1.82899C4.59158 1.82395 4.64027 1.8202 4.69182 1.82112C4.76744 1.82247 4.8423 1.83494 4.97026 1.88101C5.1851 1.95837 5.52573 2.12101 6.2213 2.45312C6.38942 2.53339 6.57827 2.62356 6.7911 2.72482L8.72495 3.64494ZM0.810649 10.8325V10.9533H0.931504H7.42131H13.9111H14.032V10.8325V10.5667V10.301V10.1801H13.9111H7.42131H0.931504H0.810649V10.301V10.5667V10.8325Z" fill="#3772FF"/>
<path d="M5.6832 4.1815L5.10742 3.63279L5.10742 3.63278C4.71919 3.26276 4.02191 2.59885 3.55796 2.15744C3.3257 1.93646 3.11576 1.73417 2.96456 1.58622C2.88904 1.51232 2.82777 1.45158 2.78559 1.4087C2.76466 1.38743 2.74758 1.36969 2.7356 1.35663C2.72993 1.35044 2.72372 1.34348 2.71853 1.33697C2.71647 1.33438 2.71141 1.32797 2.70655 1.31981C2.7047 1.3167 2.69843 1.30613 2.69404 1.29136C2.69189 1.28412 2.68788 1.26845 2.68927 1.24829C2.69078 1.22632 2.69956 1.19285 2.72953 1.16616L5.6832 4.1815ZM5.6832 4.1815L4.8562 4.55281L4.89581 4.64101L4.8562 4.55281L3.90964 4.97781L2.93995 4.62953L2.93994 4.62953C2.66044 4.52915 2.40321 4.43783 2.21389 4.37155C2.11929 4.33844 2.04136 4.31147 1.986 4.29274C1.9584 4.2834 1.93589 4.27592 1.91954 4.27071C1.91149 4.26814 1.90409 4.26585 1.898 4.2641C1.89506 4.26326 1.89133 4.26223 1.88746 4.2613C1.88556 4.26085 1.88258 4.26017 1.87905 4.25954C1.87711 4.25919 1.8684 4.25758 1.85737 4.25752L5.6832 4.1815ZM2.77111 1.14185C2.7684 1.14274 2.7486 1.14924 2.72971 1.166L14.2818 2.75861C14.2818 2.7586 14.2818 2.75859 14.2818 2.75858C14.3479 2.54397 14.3234 2.33991 14.2033 2.15855C14.0868 1.98289 13.8878 1.83913 13.6246 1.72054L13.6246 1.72054C13.3077 1.57777 13.0683 1.5234 12.6908 1.50638L12.6908 1.50638C12.3197 1.48967 12.0709 1.51671 11.6697 1.61583L11.6987 1.73316L11.6697 1.61583C11.331 1.69951 11.0758 1.80277 9.82183 2.3557L9.87059 2.46628L9.82183 2.3557L8.79519 2.80843L6.96742 1.94343L6.91572 2.05267L6.96742 1.94343L5.08972 1.05482L5.06428 1.04279L5.03615 1.04322L4.79978 1.04689L4.79977 1.04689C4.66779 1.04895 4.16741 1.06736 3.68856 1.08774C3.44856 1.09794 3.2288 1.10844 3.06802 1.11716C2.98772 1.12151 2.92168 1.12544 2.87505 1.12869C2.85188 1.1303 2.83265 1.1318 2.81856 1.13316C2.81175 1.13382 2.80466 1.13458 2.79841 1.13548C2.79555 1.13589 2.79065 1.13665 2.78519 1.13787C2.78262 1.13845 2.7775 1.13967 2.77136 1.14177C2.77131 1.14179 2.77123 1.14181 2.77111 1.14185ZM1.85733 4.25752C1.83898 4.25743 1.82304 4.2614 1.81757 4.26276L1.81749 4.26278C1.80911 4.26486 1.80048 4.26749 1.79241 4.27012C1.77609 4.27545 1.75625 4.28273 1.7343 4.2912C1.69009 4.30828 1.632 4.33229 1.56558 4.36062C1.43247 4.41742 1.26232 4.49317 1.09533 4.56947C0.92837 4.64576 0.763618 4.72304 0.641377 4.78292C0.580518 4.81274 0.528876 4.83889 0.492468 4.85872C0.474786 4.86835 0.457979 4.87795 0.444965 4.88655C0.439424 4.89021 0.429142 4.89719 0.419363 4.9064C0.415532 4.91001 0.403524 4.92145 0.393858 4.93941C0.385485 4.95497 0.359451 5.01602 0.406019 5.07393L0.406042 5.07395C0.418775 5.08978 0.699791 5.42055 1.02824 5.80646L1.10734 5.73914L1.02824 5.80646C1.28695 6.11042 1.43312 6.28505 1.51134 6.38811C1.53185 6.41513 1.54617 6.4353 1.55603 6.45016C1.40367 6.68016 1.37946 6.96869 1.54519 7.17378L1.5452 7.1738C1.66743 7.32501 1.90949 7.44462 2.15293 7.49711C2.50063 7.57208 3.01019 7.5708 3.54065 7.51419C4.07342 7.45733 4.63981 7.34328 5.10468 7.18525L5.10468 7.18524C5.14139 7.17276 5.29876 7.10619 5.53592 7.00418C5.77697 6.9005 6.10796 6.75688 6.49888 6.58652C7.28076 6.24579 8.30289 5.79788 9.3258 5.34809C11.367 4.45054 13.4231 3.54039 13.5649 3.46523L1.85733 4.25752ZM1.5914 6.40081L1.59138 6.40083L1.5914 6.40081ZM8.72495 3.64494L8.7749 3.6687L8.82553 3.64643L10.0853 3.09235L10.0369 2.98234L10.0853 3.09235C10.7803 2.78663 11.4568 2.49882 11.5917 2.45081C12.2253 2.2254 12.8252 2.21789 13.2564 2.409C13.3399 2.446 13.4168 2.49037 13.471 2.52954C13.4804 2.53639 13.4888 2.54279 13.4961 2.5487C13.481 2.56432 13.4617 2.58243 13.4387 2.60223C13.37 2.66142 13.2785 2.72672 13.1915 2.77512C13.1915 2.77512 13.1915 2.77512 13.1914 2.77512L13.1913 2.77518L13.1908 2.77547L13.1887 2.77657L13.1813 2.78026L13.1567 2.79211C13.1363 2.8018 13.1087 2.81463 13.0743 2.83045C13.0055 2.86208 12.9104 2.90519 12.7926 2.9582C12.5571 3.0642 12.2316 3.20942 11.8459 3.3808C11.0745 3.72354 10.0626 4.17066 9.04819 4.61737C7.01479 5.5128 4.98299 6.40131 4.8437 6.45092C4.52916 6.56295 4.08961 6.65862 3.65702 6.71803C3.22311 6.77762 2.80871 6.79898 2.54297 6.76816C2.48538 6.76148 2.42625 6.75311 2.37454 6.74463L2.38636 6.73421L2.38637 6.7342L2.56797 6.57418L2.65718 6.49556L2.58002 6.40508L2.03638 5.76765C1.88706 5.59257 1.7504 5.43093 1.65054 5.31159C1.62065 5.27587 1.59413 5.24403 1.5716 5.21681C1.599 5.20322 1.62964 5.18864 1.66139 5.17408C1.71804 5.14812 1.77611 5.12322 1.82291 5.10507C1.84615 5.09606 1.86526 5.08924 1.87938 5.08482C1.89363 5.08928 1.91326 5.09566 1.93807 5.10392C1.9928 5.12214 2.0702 5.14864 2.1648 5.18153C2.35386 5.24727 2.61018 5.33804 2.88805 5.43793C2.88805 5.43793 2.88805 5.43794 2.88806 5.43794L3.89947 5.80161L3.94539 5.81813L3.98991 5.79812L5.01302 5.33826L5.01302 5.33826C5.57572 5.08532 6.22599 4.7941 6.45801 4.69105C6.57499 4.6391 6.68183 4.58975 6.75989 4.55198C6.79871 4.5332 6.83153 4.51674 6.85523 4.50399C6.86673 4.49781 6.87818 4.49138 6.88765 4.48535C6.89192 4.48263 6.89913 4.47789 6.90646 4.47179C6.90983 4.46898 6.91696 4.46284 6.9243 4.45387L6.9246 4.45351C6.92852 4.44878 6.95218 4.42021 6.95218 4.37622C6.95218 4.34526 6.9398 4.32263 6.93848 4.32022L6.93838 4.32004C6.93495 4.31345 6.93162 4.30855 6.9301 4.30636C6.92679 4.30161 6.92371 4.29788 6.9223 4.29619C6.91906 4.2923 6.91557 4.28847 6.9128 4.28548C6.90688 4.27911 6.89891 4.27086 6.88952 4.26131C6.87051 4.24198 6.84293 4.2145 6.808 4.18005C6.73801 4.111 6.63702 4.01249 6.51268 3.89191C6.26392 3.65066 5.92093 3.32035 5.54374 2.95917L5.46503 3.04137L5.54374 2.95917L4.37426 1.83939C4.43525 1.83599 4.48416 1.83222 4.52618 1.82899C4.59158 1.82395 4.64027 1.8202 4.69182 1.82112C4.76744 1.82247 4.8423 1.83494 4.97026 1.88101C5.1851 1.95837 5.52573 2.12101 6.2213 2.45312C6.38942 2.53339 6.57827 2.62356 6.7911 2.72482L8.72495 3.64494ZM0.810649 10.8325V10.9533H0.931504H7.42131H13.9111H14.032V10.8325V10.5667V10.301V10.1801H13.9111H7.42131H0.931504H0.810649V10.301V10.5667V10.8325Z" fill="black" fill-opacity="0.25"/>
<path d="M5.6832 4.1815L5.10742 3.63279L5.10742 3.63278C4.71919 3.26276 4.02191 2.59885 3.55796 2.15744C3.3257 1.93646 3.11576 1.73417 2.96456 1.58622C2.88904 1.51232 2.82777 1.45158 2.78559 1.4087C2.76466 1.38743 2.74758 1.36969 2.7356 1.35663C2.72993 1.35044 2.72372 1.34348 2.71853 1.33697C2.71647 1.33438 2.71141 1.32797 2.70655 1.31981C2.7047 1.3167 2.69843 1.30613 2.69404 1.29136C2.69189 1.28412 2.68788 1.26845 2.68927 1.24829C2.69078 1.22632 2.69956 1.19285 2.72953 1.16616L5.6832 4.1815ZM5.6832 4.1815L4.8562 4.55281L4.89581 4.64101L4.8562 4.55281L3.90964 4.97781L2.93995 4.62953L2.93994 4.62953C2.66044 4.52915 2.40321 4.43783 2.21389 4.37155C2.11929 4.33844 2.04136 4.31147 1.986 4.29274C1.9584 4.2834 1.93589 4.27592 1.91954 4.27071C1.91149 4.26814 1.90409 4.26585 1.898 4.2641C1.89506 4.26326 1.89133 4.26223 1.88746 4.2613C1.88556 4.26085 1.88258 4.26017 1.87905 4.25954C1.87711 4.25919 1.8684 4.25758 1.85737 4.25752L5.6832 4.1815ZM2.77111 1.14185C2.7684 1.14274 2.7486 1.14924 2.72971 1.166L14.2818 2.75861C14.2818 2.7586 14.2818 2.75859 14.2818 2.75858C14.3479 2.54397 14.3234 2.33991 14.2033 2.15855C14.0868 1.98289 13.8878 1.83913 13.6246 1.72054L13.6246 1.72054C13.3077 1.57777 13.0683 1.5234 12.6908 1.50638L12.6908 1.50638C12.3197 1.48967 12.0709 1.51671 11.6697 1.61583L11.6987 1.73316L11.6697 1.61583C11.331 1.69951 11.0758 1.80277 9.82183 2.3557L9.87059 2.46628L9.82183 2.3557L8.79519 2.80843L6.96742 1.94343L6.91572 2.05267L6.96742 1.94343L5.08972 1.05482L5.06428 1.04279L5.03615 1.04322L4.79978 1.04689L4.79977 1.04689C4.66779 1.04895 4.16741 1.06736 3.68856 1.08774C3.44856 1.09794 3.2288 1.10844 3.06802 1.11716C2.98772 1.12151 2.92168 1.12544 2.87505 1.12869C2.85188 1.1303 2.83265 1.1318 2.81856 1.13316C2.81175 1.13382 2.80466 1.13458 2.79841 1.13548C2.79555 1.13589 2.79065 1.13665 2.78519 1.13787C2.78262 1.13845 2.7775 1.13967 2.77136 1.14177C2.77131 1.14179 2.77123 1.14181 2.77111 1.14185ZM1.85733 4.25752C1.83898 4.25743 1.82304 4.2614 1.81757 4.26276L1.81749 4.26278C1.80911 4.26486 1.80048 4.26749 1.79241 4.27012C1.77609 4.27545 1.75625 4.28273 1.7343 4.2912C1.69009 4.30828 1.632 4.33229 1.56558 4.36062C1.43247 4.41742 1.26232 4.49317 1.09533 4.56947C0.92837 4.64576 0.763618 4.72304 0.641377 4.78292C0.580518 4.81274 0.528876 4.83889 0.492468 4.85872C0.474786 4.86835 0.457979 4.87795 0.444965 4.88655C0.439424 4.89021 0.429142 4.89719 0.419363 4.9064C0.415532 4.91001 0.403524 4.92145 0.393858 4.93941C0.385485 4.95497 0.359451 5.01602 0.406019 5.07393L0.406042 5.07395C0.418775 5.08978 0.699791 5.42055 1.02824 5.80646L1.10734 5.73914L1.02824 5.80646C1.28695 6.11042 1.43312 6.28505 1.51134 6.38811C1.53185 6.41513 1.54617 6.4353 1.55603 6.45016C1.40367 6.68016 1.37946 6.96869 1.54519 7.17378L1.5452 7.1738C1.66743 7.32501 1.90949 7.44462 2.15293 7.49711C2.50063 7.57208 3.01019 7.5708 3.54065 7.51419C4.07342 7.45733 4.63981 7.34328 5.10468 7.18525L5.10468 7.18524C5.14139 7.17276 5.29876 7.10619 5.53592 7.00418C5.77697 6.9005 6.10796 6.75688 6.49888 6.58652C7.28076 6.24579 8.30289 5.79788 9.3258 5.34809C11.367 4.45054 13.4231 3.54039 13.5649 3.46523L1.85733 4.25752ZM1.5914 6.40081L1.59138 6.40083L1.5914 6.40081ZM8.72495 3.64494L8.7749 3.6687L8.82553 3.64643L10.0853 3.09235L10.0369 2.98234L10.0853 3.09235C10.7803 2.78663 11.4568 2.49882 11.5917 2.45081C12.2253 2.2254 12.8252 2.21789 13.2564 2.409C13.3399 2.446 13.4168 2.49037 13.471 2.52954C13.4804 2.53639 13.4888 2.54279 13.4961 2.5487C13.481 2.56432 13.4617 2.58243 13.4387 2.60223C13.37 2.66142 13.2785 2.72672 13.1915 2.77512C13.1915 2.77512 13.1915 2.77512 13.1914 2.77512L13.1913 2.77518L13.1908 2.77547L13.1887 2.77657L13.1813 2.78026L13.1567 2.79211C13.1363 2.8018 13.1087 2.81463 13.0743 2.83045C13.0055 2.86208 12.9104 2.90519 12.7926 2.9582C12.5571 3.0642 12.2316 3.20942 11.8459 3.3808C11.0745 3.72354 10.0626 4.17066 9.04819 4.61737C7.01479 5.5128 4.98299 6.40131 4.8437 6.45092C4.52916 6.56295 4.08961 6.65862 3.65702 6.71803C3.22311 6.77762 2.80871 6.79898 2.54297 6.76816C2.48538 6.76148 2.42625 6.75311 2.37454 6.74463L2.38636 6.73421L2.38637 6.7342L2.56797 6.57418L2.65718 6.49556L2.58002 6.40508L2.03638 5.76765C1.88706 5.59257 1.7504 5.43093 1.65054 5.31159C1.62065 5.27587 1.59413 5.24403 1.5716 5.21681C1.599 5.20322 1.62964 5.18864 1.66139 5.17408C1.71804 5.14812 1.77611 5.12322 1.82291 5.10507C1.84615 5.09606 1.86526 5.08924 1.87938 5.08482C1.89363 5.08928 1.91326 5.09566 1.93807 5.10392C1.9928 5.12214 2.0702 5.14864 2.1648 5.18153C2.35386 5.24727 2.61018 5.33804 2.88805 5.43793C2.88805 5.43793 2.88805 5.43794 2.88806 5.43794L3.89947 5.80161L3.94539 5.81813L3.98991 5.79812L5.01302 5.33826L5.01302 5.33826C5.57572 5.08532 6.22599 4.7941 6.45801 4.69105C6.57499 4.6391 6.68183 4.58975 6.75989 4.55198C6.79871 4.5332 6.83153 4.51674 6.85523 4.50399C6.86673 4.49781 6.87818 4.49138 6.88765 4.48535C6.89192 4.48263 6.89913 4.47789 6.90646 4.47179C6.90983 4.46898 6.91696 4.46284 6.9243 4.45387L6.9246 4.45351C6.92852 4.44878 6.95218 4.42021 6.95218 4.37622C6.95218 4.34526 6.9398 4.32263 6.93848 4.32022L6.93838 4.32004C6.93495 4.31345 6.93162 4.30855 6.9301 4.30636C6.92679 4.30161 6.92371 4.29788 6.9223 4.29619C6.91906 4.2923 6.91557 4.28847 6.9128 4.28548C6.90688 4.27911 6.89891 4.27086 6.88952 4.26131C6.87051 4.24198 6.84293 4.2145 6.808 4.18005C6.73801 4.111 6.63702 4.01249 6.51268 3.89191C6.26392 3.65066 5.92093 3.32035 5.54374 2.95917L5.46503 3.04137L5.54374 2.95917L4.37426 1.83939C4.43525 1.83599 4.48416 1.83222 4.52618 1.82899C4.59158 1.82395 4.64027 1.8202 4.69182 1.82112C4.76744 1.82247 4.8423 1.83494 4.97026 1.88101C5.1851 1.95837 5.52573 2.12101 6.2213 2.45312C6.38942 2.53339 6.57827 2.62356 6.7911 2.72482L8.72495 3.64494ZM0.810649 10.8325V10.9533H0.931504H7.42131H13.9111H14.032V10.8325V10.5667V10.301V10.1801H13.9111H7.42131H0.931504H0.810649V10.301V10.5667V10.8325Z" stroke="#3772FF" stroke-width="0.24171"/>
<path d="M5.6832 4.1815L5.10742 3.63279L5.10742 3.63278C4.71919 3.26276 4.02191 2.59885 3.55796 2.15744C3.3257 1.93646 3.11576 1.73417 2.96456 1.58622C2.88904 1.51232 2.82777 1.45158 2.78559 1.4087C2.76466 1.38743 2.74758 1.36969 2.7356 1.35663C2.72993 1.35044 2.72372 1.34348 2.71853 1.33697C2.71647 1.33438 2.71141 1.32797 2.70655 1.31981C2.7047 1.3167 2.69843 1.30613 2.69404 1.29136C2.69189 1.28412 2.68788 1.26845 2.68927 1.24829C2.69078 1.22632 2.69956 1.19285 2.72953 1.16616L5.6832 4.1815ZM5.6832 4.1815L4.8562 4.55281L4.89581 4.64101L4.8562 4.55281L3.90964 4.97781L2.93995 4.62953L2.93994 4.62953C2.66044 4.52915 2.40321 4.43783 2.21389 4.37155C2.11929 4.33844 2.04136 4.31147 1.986 4.29274C1.9584 4.2834 1.93589 4.27592 1.91954 4.27071C1.91149 4.26814 1.90409 4.26585 1.898 4.2641C1.89506 4.26326 1.89133 4.26223 1.88746 4.2613C1.88556 4.26085 1.88258 4.26017 1.87905 4.25954C1.87711 4.25919 1.8684 4.25758 1.85737 4.25752L5.6832 4.1815ZM2.77111 1.14185C2.7684 1.14274 2.7486 1.14924 2.72971 1.166L14.2818 2.75861C14.2818 2.7586 14.2818 2.75859 14.2818 2.75858C14.3479 2.54397 14.3234 2.33991 14.2033 2.15855C14.0868 1.98289 13.8878 1.83913 13.6246 1.72054L13.6246 1.72054C13.3077 1.57777 13.0683 1.5234 12.6908 1.50638L12.6908 1.50638C12.3197 1.48967 12.0709 1.51671 11.6697 1.61583L11.6987 1.73316L11.6697 1.61583C11.331 1.69951 11.0758 1.80277 9.82183 2.3557L9.87059 2.46628L9.82183 2.3557L8.79519 2.80843L6.96742 1.94343L6.91572 2.05267L6.96742 1.94343L5.08972 1.05482L5.06428 1.04279L5.03615 1.04322L4.79978 1.04689L4.79977 1.04689C4.66779 1.04895 4.16741 1.06736 3.68856 1.08774C3.44856 1.09794 3.2288 1.10844 3.06802 1.11716C2.98772 1.12151 2.92168 1.12544 2.87505 1.12869C2.85188 1.1303 2.83265 1.1318 2.81856 1.13316C2.81175 1.13382 2.80466 1.13458 2.79841 1.13548C2.79555 1.13589 2.79065 1.13665 2.78519 1.13787C2.78262 1.13845 2.7775 1.13967 2.77136 1.14177C2.77131 1.14179 2.77123 1.14181 2.77111 1.14185ZM1.85733 4.25752C1.83898 4.25743 1.82304 4.2614 1.81757 4.26276L1.81749 4.26278C1.80911 4.26486 1.80048 4.26749 1.79241 4.27012C1.77609 4.27545 1.75625 4.28273 1.7343 4.2912C1.69009 4.30828 1.632 4.33229 1.56558 4.36062C1.43247 4.41742 1.26232 4.49317 1.09533 4.56947C0.92837 4.64576 0.763618 4.72304 0.641377 4.78292C0.580518 4.81274 0.528876 4.83889 0.492468 4.85872C0.474786 4.86835 0.457979 4.87795 0.444965 4.88655C0.439424 4.89021 0.429142 4.89719 0.419363 4.9064C0.415532 4.91001 0.403524 4.92145 0.393858 4.93941C0.385485 4.95497 0.359451 5.01602 0.406019 5.07393L0.406042 5.07395C0.418775 5.08978 0.699791 5.42055 1.02824 5.80646L1.10734 5.73914L1.02824 5.80646C1.28695 6.11042 1.43312 6.28505 1.51134 6.38811C1.53185 6.41513 1.54617 6.4353 1.55603 6.45016C1.40367 6.68016 1.37946 6.96869 1.54519 7.17378L1.5452 7.1738C1.66743 7.32501 1.90949 7.44462 2.15293 7.49711C2.50063 7.57208 3.01019 7.5708 3.54065 7.51419C4.07342 7.45733 4.63981 7.34328 5.10468 7.18525L5.10468 7.18524C5.14139 7.17276 5.29876 7.10619 5.53592 7.00418C5.77697 6.9005 6.10796 6.75688 6.49888 6.58652C7.28076 6.24579 8.30289 5.79788 9.3258 5.34809C11.367 4.45054 13.4231 3.54039 13.5649 3.46523L1.85733 4.25752ZM1.5914 6.40081L1.59138 6.40083L1.5914 6.40081ZM8.72495 3.64494L8.7749 3.6687L8.82553 3.64643L10.0853 3.09235L10.0369 2.98234L10.0853 3.09235C10.7803 2.78663 11.4568 2.49882 11.5917 2.45081C12.2253 2.2254 12.8252 2.21789 13.2564 2.409C13.3399 2.446 13.4168 2.49037 13.471 2.52954C13.4804 2.53639 13.4888 2.54279 13.4961 2.5487C13.481 2.56432 13.4617 2.58243 13.4387 2.60223C13.37 2.66142 13.2785 2.72672 13.1915 2.77512C13.1915 2.77512 13.1915 2.77512 13.1914 2.77512L13.1913 2.77518L13.1908 2.77547L13.1887 2.77657L13.1813 2.78026L13.1567 2.79211C13.1363 2.8018 13.1087 2.81463 13.0743 2.83045C13.0055 2.86208 12.9104 2.90519 12.7926 2.9582C12.5571 3.0642 12.2316 3.20942 11.8459 3.3808C11.0745 3.72354 10.0626 4.17066 9.04819 4.61737C7.01479 5.5128 4.98299 6.40131 4.8437 6.45092C4.52916 6.56295 4.08961 6.65862 3.65702 6.71803C3.22311 6.77762 2.80871 6.79898 2.54297 6.76816C2.48538 6.76148 2.42625 6.75311 2.37454 6.74463L2.38636 6.73421L2.38637 6.7342L2.56797 6.57418L2.65718 6.49556L2.58002 6.40508L2.03638 5.76765C1.88706 5.59257 1.7504 5.43093 1.65054 5.31159C1.62065 5.27587 1.59413 5.24403 1.5716 5.21681C1.599 5.20322 1.62964 5.18864 1.66139 5.17408C1.71804 5.14812 1.77611 5.12322 1.82291 5.10507C1.84615 5.09606 1.86526 5.08924 1.87938 5.08482C1.89363 5.08928 1.91326 5.09566 1.93807 5.10392C1.9928 5.12214 2.0702 5.14864 2.1648 5.18153C2.35386 5.24727 2.61018 5.33804 2.88805 5.43793C2.88805 5.43793 2.88805 5.43794 2.88806 5.43794L3.89947 5.80161L3.94539 5.81813L3.98991 5.79812L5.01302 5.33826L5.01302 5.33826C5.57572 5.08532 6.22599 4.7941 6.45801 4.69105C6.57499 4.6391 6.68183 4.58975 6.75989 4.55198C6.79871 4.5332 6.83153 4.51674 6.85523 4.50399C6.86673 4.49781 6.87818 4.49138 6.88765 4.48535C6.89192 4.48263 6.89913 4.47789 6.90646 4.47179C6.90983 4.46898 6.91696 4.46284 6.9243 4.45387L6.9246 4.45351C6.92852 4.44878 6.95218 4.42021 6.95218 4.37622C6.95218 4.34526 6.9398 4.32263 6.93848 4.32022L6.93838 4.32004C6.93495 4.31345 6.93162 4.30855 6.9301 4.30636C6.92679 4.30161 6.92371 4.29788 6.9223 4.29619C6.91906 4.2923 6.91557 4.28847 6.9128 4.28548C6.90688 4.27911 6.89891 4.27086 6.88952 4.26131C6.87051 4.24198 6.84293 4.2145 6.808 4.18005C6.73801 4.111 6.63702 4.01249 6.51268 3.89191C6.26392 3.65066 5.92093 3.32035 5.54374 2.95917L5.46503 3.04137L5.54374 2.95917L4.37426 1.83939C4.43525 1.83599 4.48416 1.83222 4.52618 1.82899C4.59158 1.82395 4.64027 1.8202 4.69182 1.82112C4.76744 1.82247 4.8423 1.83494 4.97026 1.88101C5.1851 1.95837 5.52573 2.12101 6.2213 2.45312C6.38942 2.53339 6.57827 2.62356 6.7911 2.72482L8.72495 3.64494ZM0.810649 10.8325V10.9533H0.931504H7.42131H13.9111H14.032V10.8325V10.5667V10.301V10.1801H13.9111H7.42131H0.931504H0.810649V10.301V10.5667V10.8325Z" stroke="black" stroke-opacity="0.25" stroke-width="0.24171"/>
</svg>
