<svg width="13" height="10" viewBox="0 0 13 10" fill="none" xmlns="http://www.w3.org/2000/svg">
<path d="M3.09229 0.405285L3.0923 0.405284C3.10242 0.403554 3.11817 0.402816 3.13158 0.402268C3.14769 0.401609 3.16925 0.400982 3.19576 0.40038C3.24886 0.399174 3.32313 0.398039 3.41604 0.396983C3.60191 0.394871 3.86325 0.393065 4.1808 0.391648C4.81596 0.388814 5.67655 0.387537 6.60928 0.388495C8.22193 0.390163 9.07202 0.391569 9.5343 0.397746C9.99069 0.403844 10.0796 0.414071 10.1562 0.439721L10.1562 0.439724C10.6017 0.589045 10.9413 0.921976 11.087 1.35579L11.0107 1.38145L11.087 1.35579C11.1156 1.44095 11.1296 1.49524 11.1375 1.69459C11.1452 1.89029 11.1474 2.23372 11.1512 2.8993L11.1585 4.18618L11.3236 4.19496C11.738 4.21702 12.0423 4.35618 12.3065 4.64834C12.4733 4.83285 12.5779 5.03508 12.631 5.27608L12.5589 5.29195L12.631 5.27608C12.6495 5.35999 12.6585 5.4695 12.6629 5.7621C12.6672 6.05648 12.6667 6.54266 12.6638 7.38458C12.6605 8.3326 12.6587 8.81429 12.6517 9.06674C12.6482 9.19188 12.6434 9.26553 12.6353 9.31279C12.6312 9.3373 12.6257 9.35788 12.6175 9.37645C12.6091 9.39561 12.5993 9.40897 12.5925 9.41817C12.5448 9.48211 12.4942 9.5323 12.4337 9.56581C12.3722 9.59986 12.3065 9.61344 12.2339 9.61344C12.1614 9.61344 12.0956 9.59988 12.0342 9.56585C11.9737 9.53236 11.9231 9.4822 11.8754 9.4183L3.09229 0.405285ZM3.09229 0.405285C2.81036 0.453507 2.5334 0.595588 2.33445 0.794717L2.33444 0.79472C2.19611 0.933193 2.05345 1.16564 1.98957 1.35579C1.96095 1.44095 1.94699 1.49524 1.93912 1.69459C1.93139 1.89029 1.92918 2.23372 1.92541 2.89931L1.91812 4.18633M3.09229 0.405285L1.91812 4.18633M1.91812 4.18633L1.75281 4.19545L1.7528 4.19545C1.37509 4.2163 1.10681 4.3243 0.849429 4.56344L0.849426 4.56344C0.689472 4.71207 0.551457 4.926 0.478481 5.13743C0.47848 5.13744 0.47848 5.13744 0.478479 5.13744L0.423841 5.2957L0.41943 5.30847V5.32199V7.31331C0.41943 8.29978 0.41953 8.79913 0.425704 9.05964C0.428764 9.18878 0.433364 9.26409 0.441233 9.312C0.445314 9.33685 0.450761 9.35767 0.459017 9.37644C0.467529 9.39579 0.477481 9.40923 0.484137 9.41815L0.484142 9.41816C0.531822 9.4821 0.582407 9.53229 0.642904 9.56581C0.704355 9.59986 0.770099 9.61344 0.842682 9.61344C0.915237 9.61344 0.980952 9.59988 1.04239 9.56585C1.10288 9.53235 1.15347 9.48219 1.20119 9.41827C1.20119 9.41828 1.20118 9.41829 1.20117 9.4183L1.91812 4.18633ZM11.7356 5.33469L11.7356 5.33468C11.7073 5.27975 11.6606 5.2234 11.6051 5.17646C11.5506 5.13041 11.4923 5.09729 11.4414 5.08238C11.4413 5.08237 11.4412 5.08236 11.441 5.08234C11.4377 5.082 11.4325 5.08159 11.4252 5.08114C11.4105 5.08025 11.3895 5.07935 11.3618 5.07846C11.3065 5.0767 11.2267 5.07505 11.1219 5.07354C10.9123 5.07051 10.6043 5.06803 10.1957 5.06608C9.37853 5.06217 8.16032 5.0604 6.5265 5.0607C4.49729 5.06109 3.28266 5.06264 2.56576 5.06752C2.20719 5.06996 1.97379 5.07322 1.82544 5.07756C1.75117 5.07973 1.69914 5.08215 1.66378 5.08478C1.63552 5.08689 1.62258 5.08889 1.61841 5.08954C1.61675 5.0898 1.61649 5.08984 1.6172 5.08958M11.7356 5.33469L1.33982 5.33696C1.39835 5.22325 1.50391 5.13003 1.6172 5.08958M11.7356 5.33469C11.7504 5.36345 11.7588 5.38078 11.7651 5.40014C11.7713 5.419 11.7764 5.44268 11.7803 5.48245C11.7885 5.5649 11.7907 5.70155 11.7942 5.97875L11.8002 6.45974M11.7356 5.33469L11.8002 6.45974M1.6172 5.08958L1.59013 5.0137L1.61722 5.08958C1.61721 5.08958 1.61721 5.08958 1.6172 5.08958ZM11.8002 6.45974H6.5383H1.27639L1.28245 5.97875C1.28245 5.97875 1.28245 5.97874 1.28245 5.97874L11.8002 6.45974ZM8.33501 3.08372C8.28792 2.97999 8.18068 2.87265 8.07709 2.82554C8.04955 2.81302 8.0174 2.80178 7.80637 2.79598C7.59835 2.79026 7.22894 2.78954 6.5383 2.78954C6.47567 2.78954 6.41556 2.78953 6.35785 2.78952C5.65341 2.78941 5.30806 2.78936 5.1194 2.80732C5.01829 2.81695 4.97301 2.83105 4.9444 2.84678C4.91908 2.8607 4.90274 2.87724 4.86976 2.91062C4.86329 2.91716 4.85619 2.92435 4.84826 2.93229C4.78241 2.9982 4.75114 3.0437 4.73242 3.1114C4.71192 3.18556 4.70539 3.29012 4.7051 3.47858C4.70484 3.63943 4.7057 3.71741 4.71318 3.77087L8.33501 3.08372ZM8.33501 3.08372C8.36169 3.14253 8.37107 3.20343 8.37151 3.47858C8.37176 3.63943 8.3709 3.71741 8.36343 3.77087L8.33501 3.08372ZM8.01097 4.16689C8.12564 4.13499 8.25227 4.02839 8.31573 3.90318L8.01097 4.16689ZM8.01097 4.16689C8.01159 4.16671 8.01109 4.16677 8.00912 4.167M8.01097 4.16689L8.00912 4.167M8.00912 4.167C8.00504 4.16747 7.99466 4.16867 7.97499 4.17001M8.00912 4.167L7.97499 4.17001M7.97499 4.17001C7.94948 4.17175 7.91473 4.17341 7.87163 4.17497M7.97499 4.17001L7.87163 4.17497M7.87163 4.17497C7.78559 4.17807 7.66856 4.18067 7.53056 4.18275M7.87163 4.17497L7.53056 4.18275M7.53056 4.18275C7.25469 4.18692 6.89659 4.18901 6.5383 4.18901M7.53056 4.18275L6.5383 4.18901M6.5383 4.18901C6.18001 4.18901 5.82191 4.18692 5.54604 4.18275M6.5383 4.18901L5.54604 4.18275M5.54604 4.18275C5.40804 4.18067 5.29101 4.17807 5.20497 4.17497M5.54604 4.18275L5.20497 4.17497M5.20497 4.17497C5.16187 4.17341 5.12712 4.17175 5.10162 4.17001M5.20497 4.17497L5.10162 4.17001M5.10162 4.17001C5.08194 4.16867 5.07156 4.16747 5.06748 4.167M5.10162 4.17001L5.06748 4.167M5.06748 4.167C5.06555 4.16677 5.06503 4.16671 5.0656 4.16688M5.06748 4.167L5.0656 4.16688M5.0656 4.16688C4.95094 4.13497 4.82432 4.02838 4.76087 3.90318L5.0656 4.16688ZM9.20218 2.93965L9.20218 2.93963C9.08242 2.47472 8.68709 2.07729 8.22378 1.95649C8.20354 1.95121 8.17378 1.94762 8.1414 1.9447C8.10712 1.94161 8.06391 1.9388 8.01342 1.93625C7.91234 1.93112 7.77976 1.92688 7.62657 1.92349C7.32005 1.91672 6.92905 1.91334 6.5383 1.91334C6.14755 1.91334 5.75655 1.91672 5.45003 1.92349C5.29684 1.92688 5.16427 1.93112 5.06319 1.93625C5.0127 1.9388 4.96948 1.94161 4.9352 1.9447C4.90282 1.94762 4.87306 1.95121 4.85282 1.95649C4.39107 2.07688 3.99378 2.47628 3.87442 2.93963L3.87442 2.93965C3.84469 3.05512 3.83444 3.21729 3.83444 3.49967C3.83444 3.67764 3.83572 3.7848 3.8443 3.86768C3.85323 3.95396 3.87 4.01343 3.8977 4.09605L3.8977 4.09605C3.90819 4.12732 3.91803 4.15722 3.92653 4.18348C3.901 4.18417 3.87109 4.1848 3.83741 4.18538C3.71806 4.18742 3.55311 4.1887 3.37144 4.1887H2.79028V2.99612C2.79028 2.44975 2.79162 2.12816 2.79692 1.92968C2.80228 1.72904 2.81173 1.66236 2.82434 1.61987L2.82434 1.61985C2.86802 1.47257 2.99189 1.34328 3.13821 1.29272L3.13822 1.29272C3.18556 1.27636 3.23422 1.26445 3.68213 1.25848C4.12469 1.25258 4.94686 1.25197 6.52811 1.2516C7.99025 1.25126 8.81484 1.25209 9.28787 1.25715C9.52457 1.25968 9.67203 1.26326 9.76691 1.26819C9.86346 1.27321 9.89935 1.27945 9.91715 1.28474C9.9919 1.30697 10.0476 1.34093 10.122 1.41532L10.1243 1.41762C10.1727 1.4661 10.1985 1.49196 10.2182 1.52732C10.2374 1.5619 10.2532 1.61113 10.2642 1.70738C10.2863 1.89984 10.2863 2.24522 10.2863 2.95445V2.99612V4.1887H9.70516C9.5235 4.1887 9.35854 4.18742 9.23919 4.18538C9.20551 4.1848 9.17561 4.18417 9.15007 4.18348C9.15857 4.15722 9.16841 4.12732 9.1789 4.09605C9.20661 4.01343 9.22337 3.95396 9.2323 3.86768C9.24088 3.7848 9.24216 3.67764 9.24216 3.49967C9.24216 3.21729 9.23191 3.05512 9.20218 2.93965ZM11.7989 7.664V7.99742H6.5383H1.27775V7.664V7.33058H6.5383H11.7989V7.664Z" fill="#3772FF"/>
<path d="M3.09229 0.405285L3.0923 0.405284C3.10242 0.403554 3.11817 0.402816 3.13158 0.402268C3.14769 0.401609 3.16925 0.400982 3.19576 0.40038C3.24886 0.399174 3.32313 0.398039 3.41604 0.396983C3.60191 0.394871 3.86325 0.393065 4.1808 0.391648C4.81596 0.388814 5.67655 0.387537 6.60928 0.388495C8.22193 0.390163 9.07202 0.391569 9.5343 0.397746C9.99069 0.403844 10.0796 0.414071 10.1562 0.439721L10.1562 0.439724C10.6017 0.589045 10.9413 0.921976 11.087 1.35579L11.0107 1.38145L11.087 1.35579C11.1156 1.44095 11.1296 1.49524 11.1375 1.69459C11.1452 1.89029 11.1474 2.23372 11.1512 2.8993L11.1585 4.18618L11.3236 4.19496C11.738 4.21702 12.0423 4.35618 12.3065 4.64834C12.4733 4.83285 12.5779 5.03508 12.631 5.27608L12.5589 5.29195L12.631 5.27608C12.6495 5.35999 12.6585 5.4695 12.6629 5.7621C12.6672 6.05648 12.6667 6.54266 12.6638 7.38458C12.6605 8.3326 12.6587 8.81429 12.6517 9.06674C12.6482 9.19188 12.6434 9.26553 12.6353 9.31279C12.6312 9.3373 12.6257 9.35788 12.6175 9.37645C12.6091 9.39561 12.5993 9.40897 12.5925 9.41817C12.5448 9.48211 12.4942 9.5323 12.4337 9.56581C12.3722 9.59986 12.3065 9.61344 12.2339 9.61344C12.1614 9.61344 12.0956 9.59988 12.0342 9.56585C11.9737 9.53236 11.9231 9.4822 11.8754 9.4183L3.09229 0.405285ZM3.09229 0.405285C2.81036 0.453507 2.5334 0.595588 2.33445 0.794717L2.33444 0.79472C2.19611 0.933193 2.05345 1.16564 1.98957 1.35579C1.96095 1.44095 1.94699 1.49524 1.93912 1.69459C1.93139 1.89029 1.92918 2.23372 1.92541 2.89931L1.91812 4.18633M3.09229 0.405285L1.91812 4.18633M1.91812 4.18633L1.75281 4.19545L1.7528 4.19545C1.37509 4.2163 1.10681 4.3243 0.849429 4.56344L0.849426 4.56344C0.689472 4.71207 0.551457 4.926 0.478481 5.13743C0.47848 5.13744 0.47848 5.13744 0.478479 5.13744L0.423841 5.2957L0.41943 5.30847V5.32199V7.31331C0.41943 8.29978 0.41953 8.79913 0.425704 9.05964C0.428764 9.18878 0.433364 9.26409 0.441233 9.312C0.445314 9.33685 0.450761 9.35767 0.459017 9.37644C0.467529 9.39579 0.477481 9.40923 0.484137 9.41815L0.484142 9.41816C0.531822 9.4821 0.582407 9.53229 0.642904 9.56581C0.704355 9.59986 0.770099 9.61344 0.842682 9.61344C0.915237 9.61344 0.980952 9.59988 1.04239 9.56585C1.10288 9.53235 1.15347 9.48219 1.20119 9.41827C1.20119 9.41828 1.20118 9.41829 1.20117 9.4183L1.91812 4.18633ZM11.7356 5.33469L11.7356 5.33468C11.7073 5.27975 11.6606 5.2234 11.6051 5.17646C11.5506 5.13041 11.4923 5.09729 11.4414 5.08238C11.4413 5.08237 11.4412 5.08236 11.441 5.08234C11.4377 5.082 11.4325 5.08159 11.4252 5.08114C11.4105 5.08025 11.3895 5.07935 11.3618 5.07846C11.3065 5.0767 11.2267 5.07505 11.1219 5.07354C10.9123 5.07051 10.6043 5.06803 10.1957 5.06608C9.37853 5.06217 8.16032 5.0604 6.5265 5.0607C4.49729 5.06109 3.28266 5.06264 2.56576 5.06752C2.20719 5.06996 1.97379 5.07322 1.82544 5.07756C1.75117 5.07973 1.69914 5.08215 1.66378 5.08478C1.63552 5.08689 1.62258 5.08889 1.61841 5.08954C1.61675 5.0898 1.61649 5.08984 1.6172 5.08958M11.7356 5.33469L1.33982 5.33696C1.39835 5.22325 1.50391 5.13003 1.6172 5.08958M11.7356 5.33469C11.7504 5.36345 11.7588 5.38078 11.7651 5.40014C11.7713 5.419 11.7764 5.44268 11.7803 5.48245C11.7885 5.5649 11.7907 5.70155 11.7942 5.97875L11.8002 6.45974M11.7356 5.33469L11.8002 6.45974M1.6172 5.08958L1.59013 5.0137L1.61722 5.08958C1.61721 5.08958 1.61721 5.08958 1.6172 5.08958ZM11.8002 6.45974H6.5383H1.27639L1.28245 5.97875C1.28245 5.97875 1.28245 5.97874 1.28245 5.97874L11.8002 6.45974ZM8.33501 3.08372C8.28792 2.97999 8.18068 2.87265 8.07709 2.82554C8.04955 2.81302 8.0174 2.80178 7.80637 2.79598C7.59835 2.79026 7.22894 2.78954 6.5383 2.78954C6.47567 2.78954 6.41556 2.78953 6.35785 2.78952C5.65341 2.78941 5.30806 2.78936 5.1194 2.80732C5.01829 2.81695 4.97301 2.83105 4.9444 2.84678C4.91908 2.8607 4.90274 2.87724 4.86976 2.91062C4.86329 2.91716 4.85619 2.92435 4.84826 2.93229C4.78241 2.9982 4.75114 3.0437 4.73242 3.1114C4.71192 3.18556 4.70539 3.29012 4.7051 3.47858C4.70484 3.63943 4.7057 3.71741 4.71318 3.77087L8.33501 3.08372ZM8.33501 3.08372C8.36169 3.14253 8.37107 3.20343 8.37151 3.47858C8.37176 3.63943 8.3709 3.71741 8.36343 3.77087L8.33501 3.08372ZM8.01097 4.16689C8.12564 4.13499 8.25227 4.02839 8.31573 3.90318L8.01097 4.16689ZM8.01097 4.16689C8.01159 4.16671 8.01109 4.16677 8.00912 4.167M8.01097 4.16689L8.00912 4.167M8.00912 4.167C8.00504 4.16747 7.99466 4.16867 7.97499 4.17001M8.00912 4.167L7.97499 4.17001M7.97499 4.17001C7.94948 4.17175 7.91473 4.17341 7.87163 4.17497M7.97499 4.17001L7.87163 4.17497M7.87163 4.17497C7.78559 4.17807 7.66856 4.18067 7.53056 4.18275M7.87163 4.17497L7.53056 4.18275M7.53056 4.18275C7.25469 4.18692 6.89659 4.18901 6.5383 4.18901M7.53056 4.18275L6.5383 4.18901M6.5383 4.18901C6.18001 4.18901 5.82191 4.18692 5.54604 4.18275M6.5383 4.18901L5.54604 4.18275M5.54604 4.18275C5.40804 4.18067 5.29101 4.17807 5.20497 4.17497M5.54604 4.18275L5.20497 4.17497M5.20497 4.17497C5.16187 4.17341 5.12712 4.17175 5.10162 4.17001M5.20497 4.17497L5.10162 4.17001M5.10162 4.17001C5.08194 4.16867 5.07156 4.16747 5.06748 4.167M5.10162 4.17001L5.06748 4.167M5.06748 4.167C5.06555 4.16677 5.06503 4.16671 5.0656 4.16688M5.06748 4.167L5.0656 4.16688M5.0656 4.16688C4.95094 4.13497 4.82432 4.02838 4.76087 3.90318L5.0656 4.16688ZM9.20218 2.93965L9.20218 2.93963C9.08242 2.47472 8.68709 2.07729 8.22378 1.95649C8.20354 1.95121 8.17378 1.94762 8.1414 1.9447C8.10712 1.94161 8.06391 1.9388 8.01342 1.93625C7.91234 1.93112 7.77976 1.92688 7.62657 1.92349C7.32005 1.91672 6.92905 1.91334 6.5383 1.91334C6.14755 1.91334 5.75655 1.91672 5.45003 1.92349C5.29684 1.92688 5.16427 1.93112 5.06319 1.93625C5.0127 1.9388 4.96948 1.94161 4.9352 1.9447C4.90282 1.94762 4.87306 1.95121 4.85282 1.95649C4.39107 2.07688 3.99378 2.47628 3.87442 2.93963L3.87442 2.93965C3.84469 3.05512 3.83444 3.21729 3.83444 3.49967C3.83444 3.67764 3.83572 3.7848 3.8443 3.86768C3.85323 3.95396 3.87 4.01343 3.8977 4.09605L3.8977 4.09605C3.90819 4.12732 3.91803 4.15722 3.92653 4.18348C3.901 4.18417 3.87109 4.1848 3.83741 4.18538C3.71806 4.18742 3.55311 4.1887 3.37144 4.1887H2.79028V2.99612C2.79028 2.44975 2.79162 2.12816 2.79692 1.92968C2.80228 1.72904 2.81173 1.66236 2.82434 1.61987L2.82434 1.61985C2.86802 1.47257 2.99189 1.34328 3.13821 1.29272L3.13822 1.29272C3.18556 1.27636 3.23422 1.26445 3.68213 1.25848C4.12469 1.25258 4.94686 1.25197 6.52811 1.2516C7.99025 1.25126 8.81484 1.25209 9.28787 1.25715C9.52457 1.25968 9.67203 1.26326 9.76691 1.26819C9.86346 1.27321 9.89935 1.27945 9.91715 1.28474C9.9919 1.30697 10.0476 1.34093 10.122 1.41532L10.1243 1.41762C10.1727 1.4661 10.1985 1.49196 10.2182 1.52732C10.2374 1.5619 10.2532 1.61113 10.2642 1.70738C10.2863 1.89984 10.2863 2.24522 10.2863 2.95445V2.99612V4.1887H9.70516C9.5235 4.1887 9.35854 4.18742 9.23919 4.18538C9.20551 4.1848 9.17561 4.18417 9.15007 4.18348C9.15857 4.15722 9.16841 4.12732 9.1789 4.09605C9.20661 4.01343 9.22337 3.95396 9.2323 3.86768C9.24088 3.7848 9.24216 3.67764 9.24216 3.49967C9.24216 3.21729 9.23191 3.05512 9.20218 2.93965ZM11.7989 7.664V7.99742H6.5383H1.27775V7.664V7.33058H6.5383H11.7989V7.664Z" fill="black" fill-opacity="0.25"/>
<path d="M3.09229 0.405285L3.0923 0.405284C3.10242 0.403554 3.11817 0.402816 3.13158 0.402268C3.14769 0.401609 3.16925 0.400982 3.19576 0.40038C3.24886 0.399174 3.32313 0.398039 3.41604 0.396983C3.60191 0.394871 3.86325 0.393065 4.1808 0.391648C4.81596 0.388814 5.67655 0.387537 6.60928 0.388495C8.22193 0.390163 9.07202 0.391569 9.5343 0.397746C9.99069 0.403844 10.0796 0.414071 10.1562 0.439721L10.1562 0.439724C10.6017 0.589045 10.9413 0.921976 11.087 1.35579L11.0107 1.38145L11.087 1.35579C11.1156 1.44095 11.1296 1.49524 11.1375 1.69459C11.1452 1.89029 11.1474 2.23372 11.1512 2.8993L11.1585 4.18618L11.3236 4.19496C11.738 4.21702 12.0423 4.35618 12.3065 4.64834C12.4733 4.83285 12.5779 5.03508 12.631 5.27608L12.5589 5.29195L12.631 5.27608C12.6495 5.35999 12.6585 5.4695 12.6629 5.7621C12.6672 6.05648 12.6667 6.54266 12.6638 7.38458C12.6605 8.3326 12.6587 8.81429 12.6517 9.06674C12.6482 9.19188 12.6434 9.26553 12.6353 9.31279C12.6312 9.3373 12.6257 9.35788 12.6175 9.37645C12.6091 9.39561 12.5993 9.40897 12.5925 9.41817C12.5448 9.48211 12.4942 9.5323 12.4337 9.56581C12.3722 9.59986 12.3065 9.61344 12.2339 9.61344C12.1614 9.61344 12.0956 9.59988 12.0342 9.56585C11.9737 9.53236 11.9231 9.4822 11.8754 9.4183L3.09229 0.405285ZM3.09229 0.405285C2.81036 0.453507 2.5334 0.595588 2.33445 0.794717L2.33444 0.79472C2.19611 0.933193 2.05345 1.16564 1.98957 1.35579C1.96095 1.44095 1.94699 1.49524 1.93912 1.69459C1.93139 1.89029 1.92918 2.23372 1.92541 2.89931L1.91812 4.18633M3.09229 0.405285L1.91812 4.18633M1.91812 4.18633L1.75281 4.19545L1.7528 4.19545C1.37509 4.2163 1.10681 4.3243 0.849429 4.56344L0.849426 4.56344C0.689472 4.71207 0.551457 4.926 0.478481 5.13743C0.47848 5.13744 0.47848 5.13744 0.478479 5.13744L0.423841 5.2957L0.41943 5.30847V5.32199V7.31331C0.41943 8.29978 0.41953 8.79913 0.425704 9.05964C0.428764 9.18878 0.433364 9.26409 0.441233 9.312C0.445314 9.33685 0.450761 9.35767 0.459017 9.37644C0.467529 9.39579 0.477481 9.40923 0.484137 9.41815L0.484142 9.41816C0.531822 9.4821 0.582407 9.53229 0.642904 9.56581C0.704355 9.59986 0.770099 9.61344 0.842682 9.61344C0.915237 9.61344 0.980952 9.59988 1.04239 9.56585C1.10288 9.53235 1.15347 9.48219 1.20119 9.41827C1.20119 9.41828 1.20118 9.41829 1.20117 9.4183L1.91812 4.18633ZM11.7356 5.33469L11.7356 5.33468C11.7073 5.27975 11.6606 5.2234 11.6051 5.17646C11.5506 5.13041 11.4923 5.09729 11.4414 5.08238C11.4413 5.08237 11.4412 5.08236 11.441 5.08234C11.4377 5.082 11.4325 5.08159 11.4252 5.08114C11.4105 5.08025 11.3895 5.07935 11.3618 5.07846C11.3065 5.0767 11.2267 5.07505 11.1219 5.07354C10.9123 5.07051 10.6043 5.06803 10.1957 5.06608C9.37853 5.06217 8.16032 5.0604 6.5265 5.0607C4.49729 5.06109 3.28266 5.06264 2.56576 5.06752C2.20719 5.06996 1.97379 5.07322 1.82544 5.07756C1.75117 5.07973 1.69914 5.08215 1.66378 5.08478C1.63552 5.08689 1.62258 5.08889 1.61841 5.08954C1.61675 5.0898 1.61649 5.08984 1.6172 5.08958M11.7356 5.33469L1.33982 5.33696C1.39835 5.22325 1.50391 5.13003 1.6172 5.08958M11.7356 5.33469C11.7504 5.36345 11.7588 5.38078 11.7651 5.40014C11.7713 5.419 11.7764 5.44268 11.7803 5.48245C11.7885 5.5649 11.7907 5.70155 11.7942 5.97875L11.8002 6.45974M11.7356 5.33469L11.8002 6.45974M1.6172 5.08958L1.59013 5.0137L1.61722 5.08958C1.61721 5.08958 1.61721 5.08958 1.6172 5.08958ZM11.8002 6.45974H6.5383H1.27639L1.28245 5.97875C1.28245 5.97875 1.28245 5.97874 1.28245 5.97874L11.8002 6.45974ZM8.33501 3.08372C8.28792 2.97999 8.18068 2.87265 8.07709 2.82554C8.04955 2.81302 8.0174 2.80178 7.80637 2.79598C7.59835 2.79026 7.22894 2.78954 6.5383 2.78954C6.47567 2.78954 6.41556 2.78953 6.35785 2.78952C5.65341 2.78941 5.30806 2.78936 5.1194 2.80732C5.01829 2.81695 4.97301 2.83105 4.9444 2.84678C4.91908 2.8607 4.90274 2.87724 4.86976 2.91062C4.86329 2.91716 4.85619 2.92435 4.84826 2.93229C4.78241 2.9982 4.75114 3.0437 4.73242 3.1114C4.71192 3.18556 4.70539 3.29012 4.7051 3.47858C4.70484 3.63943 4.7057 3.71741 4.71318 3.77087L8.33501 3.08372ZM8.33501 3.08372C8.36169 3.14253 8.37107 3.20343 8.37151 3.47858C8.37176 3.63943 8.3709 3.71741 8.36343 3.77087L8.33501 3.08372ZM8.01097 4.16689C8.12564 4.13499 8.25227 4.02839 8.31573 3.90318L8.01097 4.16689ZM8.01097 4.16689C8.01159 4.16671 8.01109 4.16677 8.00912 4.167M8.01097 4.16689L8.00912 4.167M8.00912 4.167C8.00504 4.16747 7.99466 4.16867 7.97499 4.17001M8.00912 4.167L7.97499 4.17001M7.97499 4.17001C7.94948 4.17175 7.91473 4.17341 7.87163 4.17497M7.97499 4.17001L7.87163 4.17497M7.87163 4.17497C7.78559 4.17807 7.66856 4.18067 7.53056 4.18275M7.87163 4.17497L7.53056 4.18275M7.53056 4.18275C7.25469 4.18692 6.89659 4.18901 6.5383 4.18901M7.53056 4.18275L6.5383 4.18901M6.5383 4.18901C6.18001 4.18901 5.82191 4.18692 5.54604 4.18275M6.5383 4.18901L5.54604 4.18275M5.54604 4.18275C5.40804 4.18067 5.29101 4.17807 5.20497 4.17497M5.54604 4.18275L5.20497 4.17497M5.20497 4.17497C5.16187 4.17341 5.12712 4.17175 5.10162 4.17001M5.20497 4.17497L5.10162 4.17001M5.10162 4.17001C5.08194 4.16867 5.07156 4.16747 5.06748 4.167M5.10162 4.17001L5.06748 4.167M5.06748 4.167C5.06555 4.16677 5.06503 4.16671 5.0656 4.16688M5.06748 4.167L5.0656 4.16688M5.0656 4.16688C4.95094 4.13497 4.82432 4.02838 4.76087 3.90318L5.0656 4.16688ZM9.20218 2.93965L9.20218 2.93963C9.08242 2.47472 8.68709 2.07729 8.22378 1.95649C8.20354 1.95121 8.17378 1.94762 8.1414 1.9447C8.10712 1.94161 8.06391 1.9388 8.01342 1.93625C7.91234 1.93112 7.77976 1.92688 7.62657 1.92349C7.32005 1.91672 6.92905 1.91334 6.5383 1.91334C6.14755 1.91334 5.75655 1.91672 5.45003 1.92349C5.29684 1.92688 5.16427 1.93112 5.06319 1.93625C5.0127 1.9388 4.96948 1.94161 4.9352 1.9447C4.90282 1.94762 4.87306 1.95121 4.85282 1.95649C4.39107 2.07688 3.99378 2.47628 3.87442 2.93963L3.87442 2.93965C3.84469 3.05512 3.83444 3.21729 3.83444 3.49967C3.83444 3.67764 3.83572 3.7848 3.8443 3.86768C3.85323 3.95396 3.87 4.01343 3.8977 4.09605L3.8977 4.09605C3.90819 4.12732 3.91803 4.15722 3.92653 4.18348C3.901 4.18417 3.87109 4.1848 3.83741 4.18538C3.71806 4.18742 3.55311 4.1887 3.37144 4.1887H2.79028V2.99612C2.79028 2.44975 2.79162 2.12816 2.79692 1.92968C2.80228 1.72904 2.81173 1.66236 2.82434 1.61987L2.82434 1.61985C2.86802 1.47257 2.99189 1.34328 3.13821 1.29272L3.13822 1.29272C3.18556 1.27636 3.23422 1.26445 3.68213 1.25848C4.12469 1.25258 4.94686 1.25197 6.52811 1.2516C7.99025 1.25126 8.81484 1.25209 9.28787 1.25715C9.52457 1.25968 9.67203 1.26326 9.76691 1.26819C9.86346 1.27321 9.89935 1.27945 9.91715 1.28474C9.9919 1.30697 10.0476 1.34093 10.122 1.41532L10.1243 1.41762C10.1727 1.4661 10.1985 1.49196 10.2182 1.52732C10.2374 1.5619 10.2532 1.61113 10.2642 1.70738C10.2863 1.89984 10.2863 2.24522 10.2863 2.95445V2.99612V4.1887H9.70516C9.5235 4.1887 9.35854 4.18742 9.23919 4.18538C9.20551 4.1848 9.17561 4.18417 9.15007 4.18348C9.15857 4.15722 9.16841 4.12732 9.1789 4.09605C9.20661 4.01343 9.22337 3.95396 9.2323 3.86768C9.24088 3.7848 9.24216 3.67764 9.24216 3.49967C9.24216 3.21729 9.23191 3.05512 9.20218 2.93965ZM11.7989 7.664V7.99742H6.5383H1.27775V7.664V7.33058H6.5383H11.7989V7.664Z" stroke="#3772FF" stroke-width="0.16114"/>
<path d="M3.09229 0.405285L3.0923 0.405284C3.10242 0.403554 3.11817 0.402816 3.13158 0.402268C3.14769 0.401609 3.16925 0.400982 3.19576 0.40038C3.24886 0.399174 3.32313 0.398039 3.41604 0.396983C3.60191 0.394871 3.86325 0.393065 4.1808 0.391648C4.81596 0.388814 5.67655 0.387537 6.60928 0.388495C8.22193 0.390163 9.07202 0.391569 9.5343 0.397746C9.99069 0.403844 10.0796 0.414071 10.1562 0.439721L10.1562 0.439724C10.6017 0.589045 10.9413 0.921976 11.087 1.35579L11.0107 1.38145L11.087 1.35579C11.1156 1.44095 11.1296 1.49524 11.1375 1.69459C11.1452 1.89029 11.1474 2.23372 11.1512 2.8993L11.1585 4.18618L11.3236 4.19496C11.738 4.21702 12.0423 4.35618 12.3065 4.64834C12.4733 4.83285 12.5779 5.03508 12.631 5.27608L12.5589 5.29195L12.631 5.27608C12.6495 5.35999 12.6585 5.4695 12.6629 5.7621C12.6672 6.05648 12.6667 6.54266 12.6638 7.38458C12.6605 8.3326 12.6587 8.81429 12.6517 9.06674C12.6482 9.19188 12.6434 9.26553 12.6353 9.31279C12.6312 9.3373 12.6257 9.35788 12.6175 9.37645C12.6091 9.39561 12.5993 9.40897 12.5925 9.41817C12.5448 9.48211 12.4942 9.5323 12.4337 9.56581C12.3722 9.59986 12.3065 9.61344 12.2339 9.61344C12.1614 9.61344 12.0956 9.59988 12.0342 9.56585C11.9737 9.53236 11.9231 9.4822 11.8754 9.4183L3.09229 0.405285ZM3.09229 0.405285C2.81036 0.453507 2.5334 0.595588 2.33445 0.794717L2.33444 0.79472C2.19611 0.933193 2.05345 1.16564 1.98957 1.35579C1.96095 1.44095 1.94699 1.49524 1.93912 1.69459C1.93139 1.89029 1.92918 2.23372 1.92541 2.89931L1.91812 4.18633M3.09229 0.405285L1.91812 4.18633M1.91812 4.18633L1.75281 4.19545L1.7528 4.19545C1.37509 4.2163 1.10681 4.3243 0.849429 4.56344L0.849426 4.56344C0.689472 4.71207 0.551457 4.926 0.478481 5.13743C0.47848 5.13744 0.47848 5.13744 0.478479 5.13744L0.423841 5.2957L0.41943 5.30847V5.32199V7.31331C0.41943 8.29978 0.41953 8.79913 0.425704 9.05964C0.428764 9.18878 0.433364 9.26409 0.441233 9.312C0.445314 9.33685 0.450761 9.35767 0.459017 9.37644C0.467529 9.39579 0.477481 9.40923 0.484137 9.41815L0.484142 9.41816C0.531822 9.4821 0.582407 9.53229 0.642904 9.56581C0.704355 9.59986 0.770099 9.61344 0.842682 9.61344C0.915237 9.61344 0.980952 9.59988 1.04239 9.56585C1.10288 9.53235 1.15347 9.48219 1.20119 9.41827C1.20119 9.41828 1.20118 9.41829 1.20117 9.4183L1.91812 4.18633ZM11.7356 5.33469L11.7356 5.33468C11.7073 5.27975 11.6606 5.2234 11.6051 5.17646C11.5506 5.13041 11.4923 5.09729 11.4414 5.08238C11.4413 5.08237 11.4412 5.08236 11.441 5.08234C11.4377 5.082 11.4325 5.08159 11.4252 5.08114C11.4105 5.08025 11.3895 5.07935 11.3618 5.07846C11.3065 5.0767 11.2267 5.07505 11.1219 5.07354C10.9123 5.07051 10.6043 5.06803 10.1957 5.06608C9.37853 5.06217 8.16032 5.0604 6.5265 5.0607C4.49729 5.06109 3.28266 5.06264 2.56576 5.06752C2.20719 5.06996 1.97379 5.07322 1.82544 5.07756C1.75117 5.07973 1.69914 5.08215 1.66378 5.08478C1.63552 5.08689 1.62258 5.08889 1.61841 5.08954C1.61675 5.0898 1.61649 5.08984 1.6172 5.08958M11.7356 5.33469L1.33982 5.33696C1.39835 5.22325 1.50391 5.13003 1.6172 5.08958M11.7356 5.33469C11.7504 5.36345 11.7588 5.38078 11.7651 5.40014C11.7713 5.419 11.7764 5.44268 11.7803 5.48245C11.7885 5.5649 11.7907 5.70155 11.7942 5.97875L11.8002 6.45974M11.7356 5.33469L11.8002 6.45974M1.6172 5.08958L1.59013 5.0137L1.61722 5.08958C1.61721 5.08958 1.61721 5.08958 1.6172 5.08958ZM11.8002 6.45974H6.5383H1.27639L1.28245 5.97875C1.28245 5.97875 1.28245 5.97874 1.28245 5.97874L11.8002 6.45974ZM8.33501 3.08372C8.28792 2.97999 8.18068 2.87265 8.07709 2.82554C8.04955 2.81302 8.0174 2.80178 7.80637 2.79598C7.59835 2.79026 7.22894 2.78954 6.5383 2.78954C6.47567 2.78954 6.41556 2.78953 6.35785 2.78952C5.65341 2.78941 5.30806 2.78936 5.1194 2.80732C5.01829 2.81695 4.97301 2.83105 4.9444 2.84678C4.91908 2.8607 4.90274 2.87724 4.86976 2.91062C4.86329 2.91716 4.85619 2.92435 4.84826 2.93229C4.78241 2.9982 4.75114 3.0437 4.73242 3.1114C4.71192 3.18556 4.70539 3.29012 4.7051 3.47858C4.70484 3.63943 4.7057 3.71741 4.71318 3.77087L8.33501 3.08372ZM8.33501 3.08372C8.36169 3.14253 8.37107 3.20343 8.37151 3.47858C8.37176 3.63943 8.3709 3.71741 8.36343 3.77087L8.33501 3.08372ZM8.01097 4.16689C8.12564 4.13499 8.25227 4.02839 8.31573 3.90318L8.01097 4.16689ZM8.01097 4.16689C8.01159 4.16671 8.01109 4.16677 8.00912 4.167M8.01097 4.16689L8.00912 4.167M8.00912 4.167C8.00504 4.16747 7.99466 4.16867 7.97499 4.17001M8.00912 4.167L7.97499 4.17001M7.97499 4.17001C7.94948 4.17175 7.91473 4.17341 7.87163 4.17497M7.97499 4.17001L7.87163 4.17497M7.87163 4.17497C7.78559 4.17807 7.66856 4.18067 7.53056 4.18275M7.87163 4.17497L7.53056 4.18275M7.53056 4.18275C7.25469 4.18692 6.89659 4.18901 6.5383 4.18901M7.53056 4.18275L6.5383 4.18901M6.5383 4.18901C6.18001 4.18901 5.82191 4.18692 5.54604 4.18275M6.5383 4.18901L5.54604 4.18275M5.54604 4.18275C5.40804 4.18067 5.29101 4.17807 5.20497 4.17497M5.54604 4.18275L5.20497 4.17497M5.20497 4.17497C5.16187 4.17341 5.12712 4.17175 5.10162 4.17001M5.20497 4.17497L5.10162 4.17001M5.10162 4.17001C5.08194 4.16867 5.07156 4.16747 5.06748 4.167M5.10162 4.17001L5.06748 4.167M5.06748 4.167C5.06555 4.16677 5.06503 4.16671 5.0656 4.16688M5.06748 4.167L5.0656 4.16688M5.0656 4.16688C4.95094 4.13497 4.82432 4.02838 4.76087 3.90318L5.0656 4.16688ZM9.20218 2.93965L9.20218 2.93963C9.08242 2.47472 8.68709 2.07729 8.22378 1.95649C8.20354 1.95121 8.17378 1.94762 8.1414 1.9447C8.10712 1.94161 8.06391 1.9388 8.01342 1.93625C7.91234 1.93112 7.77976 1.92688 7.62657 1.92349C7.32005 1.91672 6.92905 1.91334 6.5383 1.91334C6.14755 1.91334 5.75655 1.91672 5.45003 1.92349C5.29684 1.92688 5.16427 1.93112 5.06319 1.93625C5.0127 1.9388 4.96948 1.94161 4.9352 1.9447C4.90282 1.94762 4.87306 1.95121 4.85282 1.95649C4.39107 2.07688 3.99378 2.47628 3.87442 2.93963L3.87442 2.93965C3.84469 3.05512 3.83444 3.21729 3.83444 3.49967C3.83444 3.67764 3.83572 3.7848 3.8443 3.86768C3.85323 3.95396 3.87 4.01343 3.8977 4.09605L3.8977 4.09605C3.90819 4.12732 3.91803 4.15722 3.92653 4.18348C3.901 4.18417 3.87109 4.1848 3.83741 4.18538C3.71806 4.18742 3.55311 4.1887 3.37144 4.1887H2.79028V2.99612C2.79028 2.44975 2.79162 2.12816 2.79692 1.92968C2.80228 1.72904 2.81173 1.66236 2.82434 1.61987L2.82434 1.61985C2.86802 1.47257 2.99189 1.34328 3.13821 1.29272L3.13822 1.29272C3.18556 1.27636 3.23422 1.26445 3.68213 1.25848C4.12469 1.25258 4.94686 1.25197 6.52811 1.2516C7.99025 1.25126 8.81484 1.25209 9.28787 1.25715C9.52457 1.25968 9.67203 1.26326 9.76691 1.26819C9.86346 1.27321 9.89935 1.27945 9.91715 1.28474C9.9919 1.30697 10.0476 1.34093 10.122 1.41532L10.1243 1.41762C10.1727 1.4661 10.1985 1.49196 10.2182 1.52732C10.2374 1.5619 10.2532 1.61113 10.2642 1.70738C10.2863 1.89984 10.2863 2.24522 10.2863 2.95445V2.99612V4.1887H9.70516C9.5235 4.1887 9.35854 4.18742 9.23919 4.18538C9.20551 4.1848 9.17561 4.18417 9.15007 4.18348C9.15857 4.15722 9.16841 4.12732 9.1789 4.09605C9.20661 4.01343 9.22337 3.95396 9.2323 3.86768C9.24088 3.7848 9.24216 3.67764 9.24216 3.49967C9.24216 3.21729 9.23191 3.05512 9.20218 2.93965ZM11.7989 7.664V7.99742H6.5383H1.27775V7.664V7.33058H6.5383H11.7989V7.664Z" stroke="black" stroke-opacity="0.25" stroke-width="0.16114"/>
</svg>
