<svg width="50" height="51" viewBox="0 0 50 51" fill="none" xmlns="http://www.w3.org/2000/svg">
<circle cx="25" cy="25.1719" r="25" fill="#3C64B1"/>
<path fill-rule="evenodd" clip-rule="evenodd" d="M16.3211 28.8883C16.8338 28.3757 17.1975 27.7333 17.3733 27.03L18.1692 23.8464C18.345 23.1431 18.7087 22.5007 19.2213 21.9881L27.1046 14.1049C29.6819 11.5275 33.8606 11.5275 36.4379 14.1049C39.0152 16.6822 39.0152 20.8609 36.4379 23.4382L28.5547 31.3214C28.042 31.8341 27.3997 32.1978 26.6964 32.3736L23.5128 33.1695C22.8094 33.3453 22.1671 33.709 21.6545 34.2216L18.4379 37.4382C16.9651 38.911 14.5773 38.911 13.1046 37.4382C11.6318 35.9654 11.6318 33.5776 13.1046 32.1049L16.3211 28.8883ZM26.0496 29.7865L22.866 30.5824C21.6938 30.8755 20.6233 31.4816 19.7689 32.336L16.5523 35.5526C16.1209 35.9839 15.4215 35.9839 14.9902 35.5526C14.5588 35.1212 14.5588 34.4218 14.9902 33.9905L18.2068 30.7739C19.0612 29.9195 19.6673 28.849 19.9603 27.6768L20.7562 24.4932C20.8148 24.2587 20.9361 24.0446 21.107 23.8737L28.9902 15.9905C30.5261 14.4546 33.0164 14.4546 34.5523 15.9905C36.0882 17.5264 36.0882 20.0167 34.5523 21.5526L26.6691 29.4358C26.4982 29.6067 26.2841 29.7279 26.0496 29.7865Z" fill="#FCFCFD"/>
<path d="M31.7704 21.4377L29.1037 24.1044C28.3673 24.8407 27.1734 24.8407 26.4371 24.1044C25.7007 23.368 25.7007 22.1741 26.437 21.4377L29.1037 18.771C29.8401 18.0347 31.034 18.0347 31.7704 18.771C32.5068 19.5074 32.5068 20.7013 31.7704 21.4377Z" fill="#FCFCFD"/>
<path fill-rule="evenodd" clip-rule="evenodd" d="M21.1028 34.7707C20.5821 35.2914 19.7378 35.2914 19.2171 34.7707L15.7694 31.323C15.2487 30.8023 15.2487 29.9581 15.7694 29.4374C16.2901 28.9167 17.1343 28.9167 17.655 29.4374L21.1028 32.8851C21.6235 33.4058 21.6235 34.25 21.1028 34.7707Z" fill="#FCFCFD"/>
</svg>
