<svg width="13" height="11" viewBox="0 0 13 11" fill="none" xmlns="http://www.w3.org/2000/svg">
<path d="M6.16851 0.334643C6.36192 -0.0959227 6.99744 -0.0959227 7.19085 0.334643L8.40455 3.03654C8.48645 3.21886 8.66675 3.34258 8.87283 3.35788L11.9854 3.58892C12.4847 3.62599 12.6832 4.22824 12.2969 4.53458L9.95618 6.39113C9.79108 6.52208 9.71877 6.73238 9.77021 6.93204L10.4906 9.72831C10.6091 10.1882 10.0927 10.558 9.66772 10.3177L6.96212 8.78755C6.78781 8.68897 6.57155 8.68897 6.39723 8.78755L3.69164 10.3177C3.26669 10.558 2.7503 10.1882 2.86877 9.72831L3.58915 6.93204C3.64058 6.73238 3.56828 6.52208 3.40318 6.39113L1.06244 4.53458C0.6762 4.22824 0.874623 3.62599 1.37401 3.58892L4.48653 3.35788C4.69261 3.34258 4.87291 3.21886 4.95481 3.03654L6.16851 0.334643Z" fill="#3772FF"/>
<path d="M6.16851 0.334643C6.36192 -0.0959227 6.99744 -0.0959227 7.19085 0.334643L8.40455 3.03654C8.48645 3.21886 8.66675 3.34258 8.87283 3.35788L11.9854 3.58892C12.4847 3.62599 12.6832 4.22824 12.2969 4.53458L9.95618 6.39113C9.79108 6.52208 9.71877 6.73238 9.77021 6.93204L10.4906 9.72831C10.6091 10.1882 10.0927 10.558 9.66772 10.3177L6.96212 8.78755C6.78781 8.68897 6.57155 8.68897 6.39723 8.78755L3.69164 10.3177C3.26669 10.558 2.7503 10.1882 2.86877 9.72831L3.58915 6.93204C3.64058 6.73238 3.56828 6.52208 3.40318 6.39113L1.06244 4.53458C0.6762 4.22824 0.874623 3.62599 1.37401 3.58892L4.48653 3.35788C4.69261 3.34258 4.87291 3.21886 4.95481 3.03654L6.16851 0.334643Z" fill="black" fill-opacity="0.25"/>
</svg>
