<svg width="16" height="19" viewBox="0 0 16 19" fill="none" xmlns="http://www.w3.org/2000/svg">
<mask id="path-1-outside-1_826_11409" maskUnits="userSpaceOnUse" x="-0.55957" y="-0.5" width="17" height="20" fill="black">
<rect fill="white" x="-0.55957" y="-0.5" width="17" height="20"/>
<path fill-rule="evenodd" clip-rule="evenodd" d="M3.68807 0.560068C3.53622 0.641693 3.411 0.806811 3.36889 0.980939C3.35148 1.05292 3.33717 1.27256 3.33708 1.46897L3.3369 1.82606L2.73164 1.84176C2.05417 1.85929 1.87756 1.90216 1.49813 2.14105C1.19252 2.33348 0.832247 2.76991 0.675124 3.13806C0.420118 3.73555 0.440834 3.11317 0.440834 10.1755C0.440834 17.225 0.421068 16.6176 0.669302 17.1994C0.897554 17.7345 1.34008 18.1767 1.86226 18.3914L2.12637 18.5H7.99511H13.8639L14.109 18.4009C14.7976 18.1225 15.3059 17.4943 15.4956 16.6873C15.546 16.4732 15.5494 16.0559 15.5494 10.1755C15.5494 3.11116 15.5703 3.73598 15.3142 3.13577C15.1341 2.71384 14.7691 2.29593 14.4002 2.08913C14.0408 1.88773 13.7774 1.83342 13.1603 1.83342H12.6533L12.6531 1.47263C12.653 1.04408 12.6201 0.887028 12.497 0.725994C12.2313 0.378407 11.7244 0.451761 11.5511 0.862882C11.4993 0.985831 11.4888 1.08045 11.4888 1.42215V1.83342H7.99754H4.50632L4.49621 1.38189C4.48708 0.972878 4.47917 0.918742 4.41227 0.80674C4.2447 0.526207 3.9425 0.423286 3.68807 0.560068ZM3.34235 3.58455C3.3562 4.06579 3.40291 4.21461 3.58841 4.36895C3.81151 4.55459 4.09545 4.53636 4.30722 4.32281C4.47157 4.15706 4.50145 4.04227 4.50145 3.57688V3.17097H7.99511H11.4888V3.57688C11.4888 4.04227 11.5187 4.15706 11.683 4.32281C11.8991 4.54069 12.1962 4.5516 12.4263 4.35005C12.5887 4.20774 12.6345 4.04967 12.6479 3.58455L12.6598 3.17097H13.1458C13.5601 3.17097 13.6564 3.18156 13.7991 3.24291C14.0099 3.33351 14.1983 3.54115 14.3036 3.79909L14.3848 3.99814V10.1755V16.3529L14.3048 16.5465C14.2088 16.7785 14.0435 16.9741 13.8516 17.0827L13.7106 17.1624H7.99511H2.2796L2.1378 17.0822C1.94176 16.9713 1.78004 16.7806 1.68541 16.5488L1.60539 16.3529V10.1755C1.60539 4.30739 1.60815 3.9911 1.66043 3.85734C1.74851 3.6321 1.86162 3.46516 1.99466 3.36403C2.21421 3.19715 2.30716 3.17611 2.83568 3.17343L3.33043 3.17097L3.34235 3.58455ZM4.32625 6.60305C3.86021 6.87387 3.79239 7.57161 4.1937 7.96616C4.79955 8.56175 5.66935 7.7337 5.27775 6.93409C5.14759 6.66834 4.96185 6.53839 4.68898 6.5222C4.51776 6.51203 4.46118 6.52463 4.32625 6.60305ZM7.55074 6.58172C7.29215 6.71952 7.13702 7.0046 7.13702 7.34201C7.13702 7.68932 7.29313 7.96056 7.57238 8.09854C7.85353 8.23747 8.15325 8.16408 8.37479 7.90206C8.70938 7.50636 8.60191 6.83184 8.16725 6.59939C7.97299 6.49548 7.72583 6.48841 7.55074 6.58172ZM10.7297 6.58742C10.0826 6.96461 10.2659 8.09354 10.9853 8.16204C11.4419 8.20554 11.7935 7.794 11.7562 7.25989C11.7376 6.99436 11.6399 6.8071 11.4324 6.63959C11.3212 6.54983 11.2673 6.53188 11.0808 6.52234C10.9025 6.51326 10.8356 6.52565 10.7297 6.58742ZM7.73462 9.85963C7.35927 9.92394 7.11664 10.2889 7.14226 10.7507C7.15765 11.0282 7.25832 11.2226 7.46429 11.3727C7.63916 11.5 7.82187 11.5337 8.03235 11.4773C8.24559 11.4201 8.48429 11.1533 8.545 10.9043C8.68775 10.3186 8.26167 9.76931 7.73462 9.85963ZM10.9165 9.86344C10.7368 9.89983 10.6228 9.9754 10.5008 10.1391C10.166 10.5884 10.3278 11.263 10.8179 11.4616C11.2758 11.6472 11.7646 11.2426 11.7646 10.6779C11.7646 10.4502 11.7024 10.2677 11.5715 10.1109C11.3977 9.90275 11.162 9.81374 10.9165 9.86344ZM4.32453 9.9332C3.98301 10.1274 3.83232 10.645 4.0029 11.0379C4.12987 11.3303 4.36272 11.4929 4.65468 11.4929C4.9974 11.4929 5.25041 11.2729 5.3471 10.8909C5.38967 10.7227 5.39185 10.6619 5.36089 10.5031C5.31508 10.2679 5.1719 10.0481 4.99464 9.94059C4.81275 9.83035 4.51135 9.82701 4.32453 9.9332ZM4.44016 13.2197C4.26226 13.2855 4.08794 13.4526 4.00471 13.6372C3.90851 13.8505 3.91197 14.1895 4.01246 14.3982C4.11182 14.6045 4.30685 14.7709 4.51083 14.8233C5.00549 14.9504 5.47159 14.4151 5.36089 13.8469C5.26803 13.3703 4.83338 13.0742 4.44016 13.2197ZM7.63778 13.2162C7.44866 13.2867 7.32969 13.3987 7.22829 13.6017C7.15333 13.7519 7.1376 13.823 7.1376 14.0122C7.1376 14.9219 8.18491 15.163 8.51362 14.329C8.75823 13.7083 8.20461 13.0049 7.63778 13.2162ZM10.8912 13.1985C10.3547 13.3589 10.1425 14.0902 10.5004 14.5452C10.6595 14.7475 10.8221 14.8337 11.0444 14.8337C11.8023 14.8337 12.0453 13.671 11.3701 13.2753C11.2256 13.1906 11.0252 13.1585 10.8912 13.1985Z"/>
</mask>
<path fill-rule="evenodd" clip-rule="evenodd" d="M3.68807 0.560068C3.53622 0.641693 3.411 0.806811 3.36889 0.980939C3.35148 1.05292 3.33717 1.27256 3.33708 1.46897L3.3369 1.82606L2.73164 1.84176C2.05417 1.85929 1.87756 1.90216 1.49813 2.14105C1.19252 2.33348 0.832247 2.76991 0.675124 3.13806C0.420118 3.73555 0.440834 3.11317 0.440834 10.1755C0.440834 17.225 0.421068 16.6176 0.669302 17.1994C0.897554 17.7345 1.34008 18.1767 1.86226 18.3914L2.12637 18.5H7.99511H13.8639L14.109 18.4009C14.7976 18.1225 15.3059 17.4943 15.4956 16.6873C15.546 16.4732 15.5494 16.0559 15.5494 10.1755C15.5494 3.11116 15.5703 3.73598 15.3142 3.13577C15.1341 2.71384 14.7691 2.29593 14.4002 2.08913C14.0408 1.88773 13.7774 1.83342 13.1603 1.83342H12.6533L12.6531 1.47263C12.653 1.04408 12.6201 0.887028 12.497 0.725994C12.2313 0.378407 11.7244 0.451761 11.5511 0.862882C11.4993 0.985831 11.4888 1.08045 11.4888 1.42215V1.83342H7.99754H4.50632L4.49621 1.38189C4.48708 0.972878 4.47917 0.918742 4.41227 0.80674C4.2447 0.526207 3.9425 0.423286 3.68807 0.560068ZM3.34235 3.58455C3.3562 4.06579 3.40291 4.21461 3.58841 4.36895C3.81151 4.55459 4.09545 4.53636 4.30722 4.32281C4.47157 4.15706 4.50145 4.04227 4.50145 3.57688V3.17097H7.99511H11.4888V3.57688C11.4888 4.04227 11.5187 4.15706 11.683 4.32281C11.8991 4.54069 12.1962 4.5516 12.4263 4.35005C12.5887 4.20774 12.6345 4.04967 12.6479 3.58455L12.6598 3.17097H13.1458C13.5601 3.17097 13.6564 3.18156 13.7991 3.24291C14.0099 3.33351 14.1983 3.54115 14.3036 3.79909L14.3848 3.99814V10.1755V16.3529L14.3048 16.5465C14.2088 16.7785 14.0435 16.9741 13.8516 17.0827L13.7106 17.1624H7.99511H2.2796L2.1378 17.0822C1.94176 16.9713 1.78004 16.7806 1.68541 16.5488L1.60539 16.3529V10.1755C1.60539 4.30739 1.60815 3.9911 1.66043 3.85734C1.74851 3.6321 1.86162 3.46516 1.99466 3.36403C2.21421 3.19715 2.30716 3.17611 2.83568 3.17343L3.33043 3.17097L3.34235 3.58455ZM4.32625 6.60305C3.86021 6.87387 3.79239 7.57161 4.1937 7.96616C4.79955 8.56175 5.66935 7.7337 5.27775 6.93409C5.14759 6.66834 4.96185 6.53839 4.68898 6.5222C4.51776 6.51203 4.46118 6.52463 4.32625 6.60305ZM7.55074 6.58172C7.29215 6.71952 7.13702 7.0046 7.13702 7.34201C7.13702 7.68932 7.29313 7.96056 7.57238 8.09854C7.85353 8.23747 8.15325 8.16408 8.37479 7.90206C8.70938 7.50636 8.60191 6.83184 8.16725 6.59939C7.97299 6.49548 7.72583 6.48841 7.55074 6.58172ZM10.7297 6.58742C10.0826 6.96461 10.2659 8.09354 10.9853 8.16204C11.4419 8.20554 11.7935 7.794 11.7562 7.25989C11.7376 6.99436 11.6399 6.8071 11.4324 6.63959C11.3212 6.54983 11.2673 6.53188 11.0808 6.52234C10.9025 6.51326 10.8356 6.52565 10.7297 6.58742ZM7.73462 9.85963C7.35927 9.92394 7.11664 10.2889 7.14226 10.7507C7.15765 11.0282 7.25832 11.2226 7.46429 11.3727C7.63916 11.5 7.82187 11.5337 8.03235 11.4773C8.24559 11.4201 8.48429 11.1533 8.545 10.9043C8.68775 10.3186 8.26167 9.76931 7.73462 9.85963ZM10.9165 9.86344C10.7368 9.89983 10.6228 9.9754 10.5008 10.1391C10.166 10.5884 10.3278 11.263 10.8179 11.4616C11.2758 11.6472 11.7646 11.2426 11.7646 10.6779C11.7646 10.4502 11.7024 10.2677 11.5715 10.1109C11.3977 9.90275 11.162 9.81374 10.9165 9.86344ZM4.32453 9.9332C3.98301 10.1274 3.83232 10.645 4.0029 11.0379C4.12987 11.3303 4.36272 11.4929 4.65468 11.4929C4.9974 11.4929 5.25041 11.2729 5.3471 10.8909C5.38967 10.7227 5.39185 10.6619 5.36089 10.5031C5.31508 10.2679 5.1719 10.0481 4.99464 9.94059C4.81275 9.83035 4.51135 9.82701 4.32453 9.9332ZM4.44016 13.2197C4.26226 13.2855 4.08794 13.4526 4.00471 13.6372C3.90851 13.8505 3.91197 14.1895 4.01246 14.3982C4.11182 14.6045 4.30685 14.7709 4.51083 14.8233C5.00549 14.9504 5.47159 14.4151 5.36089 13.8469C5.26803 13.3703 4.83338 13.0742 4.44016 13.2197ZM7.63778 13.2162C7.44866 13.2867 7.32969 13.3987 7.22829 13.6017C7.15333 13.7519 7.1376 13.823 7.1376 14.0122C7.1376 14.9219 8.18491 15.163 8.51362 14.329C8.75823 13.7083 8.20461 13.0049 7.63778 13.2162ZM10.8912 13.1985C10.3547 13.3589 10.1425 14.0902 10.5004 14.5452C10.6595 14.7475 10.8221 14.8337 11.0444 14.8337C11.8023 14.8337 12.0453 13.671 11.3701 13.2753C11.2256 13.1906 11.0252 13.1585 10.8912 13.1985Z" fill="#777E91"/>
<path fill-rule="evenodd" clip-rule="evenodd" d="M3.68807 0.560068C3.53622 0.641693 3.411 0.806811 3.36889 0.980939C3.35148 1.05292 3.33717 1.27256 3.33708 1.46897L3.3369 1.82606L2.73164 1.84176C2.05417 1.85929 1.87756 1.90216 1.49813 2.14105C1.19252 2.33348 0.832247 2.76991 0.675124 3.13806C0.420118 3.73555 0.440834 3.11317 0.440834 10.1755C0.440834 17.225 0.421068 16.6176 0.669302 17.1994C0.897554 17.7345 1.34008 18.1767 1.86226 18.3914L2.12637 18.5H7.99511H13.8639L14.109 18.4009C14.7976 18.1225 15.3059 17.4943 15.4956 16.6873C15.546 16.4732 15.5494 16.0559 15.5494 10.1755C15.5494 3.11116 15.5703 3.73598 15.3142 3.13577C15.1341 2.71384 14.7691 2.29593 14.4002 2.08913C14.0408 1.88773 13.7774 1.83342 13.1603 1.83342H12.6533L12.6531 1.47263C12.653 1.04408 12.6201 0.887028 12.497 0.725994C12.2313 0.378407 11.7244 0.451761 11.5511 0.862882C11.4993 0.985831 11.4888 1.08045 11.4888 1.42215V1.83342H7.99754H4.50632L4.49621 1.38189C4.48708 0.972878 4.47917 0.918742 4.41227 0.80674C4.2447 0.526207 3.9425 0.423286 3.68807 0.560068ZM3.34235 3.58455C3.3562 4.06579 3.40291 4.21461 3.58841 4.36895C3.81151 4.55459 4.09545 4.53636 4.30722 4.32281C4.47157 4.15706 4.50145 4.04227 4.50145 3.57688V3.17097H7.99511H11.4888V3.57688C11.4888 4.04227 11.5187 4.15706 11.683 4.32281C11.8991 4.54069 12.1962 4.5516 12.4263 4.35005C12.5887 4.20774 12.6345 4.04967 12.6479 3.58455L12.6598 3.17097H13.1458C13.5601 3.17097 13.6564 3.18156 13.7991 3.24291C14.0099 3.33351 14.1983 3.54115 14.3036 3.79909L14.3848 3.99814V10.1755V16.3529L14.3048 16.5465C14.2088 16.7785 14.0435 16.9741 13.8516 17.0827L13.7106 17.1624H7.99511H2.2796L2.1378 17.0822C1.94176 16.9713 1.78004 16.7806 1.68541 16.5488L1.60539 16.3529V10.1755C1.60539 4.30739 1.60815 3.9911 1.66043 3.85734C1.74851 3.6321 1.86162 3.46516 1.99466 3.36403C2.21421 3.19715 2.30716 3.17611 2.83568 3.17343L3.33043 3.17097L3.34235 3.58455ZM4.32625 6.60305C3.86021 6.87387 3.79239 7.57161 4.1937 7.96616C4.79955 8.56175 5.66935 7.7337 5.27775 6.93409C5.14759 6.66834 4.96185 6.53839 4.68898 6.5222C4.51776 6.51203 4.46118 6.52463 4.32625 6.60305ZM7.55074 6.58172C7.29215 6.71952 7.13702 7.0046 7.13702 7.34201C7.13702 7.68932 7.29313 7.96056 7.57238 8.09854C7.85353 8.23747 8.15325 8.16408 8.37479 7.90206C8.70938 7.50636 8.60191 6.83184 8.16725 6.59939C7.97299 6.49548 7.72583 6.48841 7.55074 6.58172ZM10.7297 6.58742C10.0826 6.96461 10.2659 8.09354 10.9853 8.16204C11.4419 8.20554 11.7935 7.794 11.7562 7.25989C11.7376 6.99436 11.6399 6.8071 11.4324 6.63959C11.3212 6.54983 11.2673 6.53188 11.0808 6.52234C10.9025 6.51326 10.8356 6.52565 10.7297 6.58742ZM7.73462 9.85963C7.35927 9.92394 7.11664 10.2889 7.14226 10.7507C7.15765 11.0282 7.25832 11.2226 7.46429 11.3727C7.63916 11.5 7.82187 11.5337 8.03235 11.4773C8.24559 11.4201 8.48429 11.1533 8.545 10.9043C8.68775 10.3186 8.26167 9.76931 7.73462 9.85963ZM10.9165 9.86344C10.7368 9.89983 10.6228 9.9754 10.5008 10.1391C10.166 10.5884 10.3278 11.263 10.8179 11.4616C11.2758 11.6472 11.7646 11.2426 11.7646 10.6779C11.7646 10.4502 11.7024 10.2677 11.5715 10.1109C11.3977 9.90275 11.162 9.81374 10.9165 9.86344ZM4.32453 9.9332C3.98301 10.1274 3.83232 10.645 4.0029 11.0379C4.12987 11.3303 4.36272 11.4929 4.65468 11.4929C4.9974 11.4929 5.25041 11.2729 5.3471 10.8909C5.38967 10.7227 5.39185 10.6619 5.36089 10.5031C5.31508 10.2679 5.1719 10.0481 4.99464 9.94059C4.81275 9.83035 4.51135 9.82701 4.32453 9.9332ZM4.44016 13.2197C4.26226 13.2855 4.08794 13.4526 4.00471 13.6372C3.90851 13.8505 3.91197 14.1895 4.01246 14.3982C4.11182 14.6045 4.30685 14.7709 4.51083 14.8233C5.00549 14.9504 5.47159 14.4151 5.36089 13.8469C5.26803 13.3703 4.83338 13.0742 4.44016 13.2197ZM7.63778 13.2162C7.44866 13.2867 7.32969 13.3987 7.22829 13.6017C7.15333 13.7519 7.1376 13.823 7.1376 14.0122C7.1376 14.9219 8.18491 15.163 8.51362 14.329C8.75823 13.7083 8.20461 13.0049 7.63778 13.2162ZM10.8912 13.1985C10.3547 13.3589 10.1425 14.0902 10.5004 14.5452C10.6595 14.7475 10.8221 14.8337 11.0444 14.8337C11.8023 14.8337 12.0453 13.671 11.3701 13.2753C11.2256 13.1906 11.0252 13.1585 10.8912 13.1985Z" stroke="#777E91" stroke-width="0.4" mask="url(#path-1-outside-1_826_11409)"/>
</svg>
