<svg width="19" height="15" viewBox="0 0 19 15" fill="none" xmlns="http://www.w3.org/2000/svg">
<mask id="path-1-outside-1_826_11422" maskUnits="userSpaceOnUse" x="-0.55957" y="-0.421875" width="20" height="16" fill="black">
<rect fill="white" x="-0.55957" y="-0.421875" width="20" height="16"/>
<path fill-rule="evenodd" clip-rule="evenodd" d="M9.02435 0.61385C7.96992 0.779278 7.1266 1.55974 6.80538 2.66744C6.68568 3.08011 6.68547 3.85368 6.80489 4.26799C7.1645 5.51562 8.18708 6.32756 9.40155 6.32973C9.86802 6.33057 10.1557 6.25973 10.5802 6.03946C11.1466 5.74557 11.5296 5.3367 11.818 4.71813C12.0338 4.25545 12.0967 3.92006 12.0767 3.34081C12.0637 2.96727 12.0418 2.8177 11.9642 2.57217C11.8269 2.13735 11.6176 1.77741 11.3087 1.4448C10.8738 0.976528 10.3603 0.704548 9.73711 0.612401C9.42566 0.566366 9.32585 0.566557 9.02435 0.61385ZM10.067 1.33177C10.7059 1.56725 11.2094 2.11124 11.4155 2.78832C11.5259 3.15138 11.5344 3.75616 11.4336 4.07745C11.1755 4.89983 10.6502 5.43544 9.8987 5.64237C9.21284 5.83127 8.49142 5.62678 7.95714 5.09208C7.67822 4.81298 7.51764 4.54683 7.38705 4.14738C7.2659 3.77677 7.25942 3.19775 7.37222 2.81987C7.59738 2.06544 8.25885 1.41333 8.95264 1.26177C9.24052 1.19889 9.80226 1.23418 10.067 1.33177ZM14.5264 2.61001C13.8101 2.7842 13.1891 3.39794 12.9644 4.15367C12.878 4.44424 12.8606 5.06 12.9309 5.33503C13.0269 5.70982 13.2166 6.06034 13.4768 6.34322C13.7642 6.65583 13.9593 6.78985 14.3159 6.91977C14.8522 7.11511 15.3904 7.07018 15.9271 6.78528C17.3351 6.03794 17.4662 3.91564 16.1635 2.95725C15.6994 2.6158 15.0601 2.48021 14.5264 2.61001ZM3.59286 2.76473C3.06474 2.88805 2.58033 3.24051 2.28452 3.71675C1.72611 4.61573 1.83678 5.78131 2.55265 6.54085C2.92197 6.93268 3.5236 7.201 4.03271 7.201C4.91407 7.201 5.76192 6.52462 6.03738 5.60179C6.14886 5.22825 6.14185 4.64763 6.02138 4.27428C5.89499 3.88268 5.73424 3.61344 5.46013 3.33426C4.95492 2.81964 4.2623 2.60841 3.59286 2.76473ZM15.4136 3.26227C15.6834 3.34836 15.8688 3.47438 16.0812 3.71618C16.7832 4.51547 16.5428 5.78311 15.5989 6.25874C14.9822 6.56947 14.1881 6.35782 13.7751 5.77263C13.5538 5.45896 13.4844 5.22371 13.4834 4.78245C13.4826 4.43163 13.4915 4.38087 13.596 4.14322C13.7807 3.72315 14.1298 3.39584 14.5441 3.25438C14.745 3.18583 15.1865 3.18983 15.4136 3.26227ZM4.65207 3.49275C5.0773 3.71073 5.33807 4.03419 5.47238 4.51032C5.68399 5.26056 5.33874 6.07044 4.66176 6.41178C4.46138 6.51281 4.36975 6.53506 4.10349 6.54745C3.59965 6.57088 3.23274 6.40671 2.88736 6.00318C2.39293 5.42565 2.39293 4.48224 2.88736 3.9047C3.23459 3.49904 3.57417 3.34565 4.0858 3.36326C4.37551 3.37324 4.45384 3.39115 4.65207 3.49275ZM9.07605 6.73231C7.9925 6.84744 6.95491 7.33355 6.19834 8.08047L5.95728 8.31846L5.61437 8.14377C5.19654 7.93097 4.91089 7.83662 4.49316 7.77347C2.83243 7.52245 1.17364 8.62683 0.628856 10.3463C0.484457 10.8019 0.44043 11.1895 0.44043 12.0046C0.44043 12.7547 0.440784 12.7582 0.539315 12.9613C0.611302 13.1096 0.685165 13.1964 0.810771 13.2801L0.983342 13.395L2.77799 13.4058L4.57261 13.4166L4.59558 13.5712C4.6285 13.7929 4.73106 13.9885 4.90115 14.1539C5.20167 14.4463 4.82067 14.4239 9.50076 14.4239C14.1808 14.4239 13.7998 14.4463 14.1004 14.1539C14.3017 13.958 14.3919 13.7531 14.4125 13.4445L14.4295 13.1892L16.2033 13.1775C17.4643 13.1691 18.0041 13.1528 18.0705 13.1209C18.2253 13.0467 18.4266 12.8334 18.4951 12.6712C18.5503 12.5403 18.5596 12.4115 18.5603 11.7708C18.5612 10.9605 18.5172 10.5737 18.3726 10.1176C18.0038 8.95483 17.1493 8.0546 16.0651 7.68651C15.0867 7.35435 13.9424 7.50187 13.0957 8.06931L12.9229 8.18516L12.7037 7.98493C11.7007 7.06877 10.3379 6.59821 9.07605 6.73231ZM10.2305 7.41293C11.999 7.74016 13.3876 9.17826 13.7507 11.0585C13.8128 11.3801 13.8292 11.6227 13.8414 12.3953C13.8576 13.4232 13.8384 13.5904 13.6891 13.7168C13.5971 13.7948 13.5787 13.7951 9.50076 13.7951C5.44785 13.7951 5.4039 13.7943 5.31414 13.7183C5.16224 13.5896 5.14762 13.466 5.161 12.4232C5.17144 11.6088 5.18585 11.3878 5.25008 11.0585C5.61437 9.19095 6.9931 7.75186 8.73983 7.41605C9.12175 7.34262 9.84236 7.34113 10.2305 7.41293ZM15.7277 8.23531C16.7819 8.52455 17.6175 9.42814 17.8881 10.5715C17.9483 10.8258 17.9594 10.996 17.9594 11.6595C17.9594 12.2205 17.9472 12.4592 17.917 12.4918C17.8851 12.5261 17.4446 12.5375 16.1525 12.5375H14.4305L14.4096 11.8801C14.3794 10.9273 14.2428 10.3428 13.8671 9.55954C13.7755 9.36854 13.6167 9.08653 13.5143 8.9328L13.3281 8.65335L13.4441 8.57615C14.0656 8.16256 14.9704 8.02754 15.7277 8.23531ZM4.76532 8.47512C5.06445 8.55683 5.53686 8.77081 5.53686 8.82458C5.53686 8.83593 5.47139 8.94904 5.39133 9.07594C5.18273 9.40668 4.88321 10.0992 4.77594 10.4987C4.63848 11.0106 4.58171 11.4972 4.58149 12.166L4.58128 12.7662H2.8514C1.374 12.7662 1.11525 12.758 1.07844 12.7103C1.04634 12.6686 1.03915 12.4327 1.0503 11.7861C1.06368 11.0111 1.07398 10.8893 1.14625 10.6512C1.4909 9.51563 2.3277 8.6931 3.39565 8.44006C3.76001 8.35375 4.37895 8.3696 4.76532 8.47512Z"/>
</mask>
<path fill-rule="evenodd" clip-rule="evenodd" d="M9.02435 0.61385C7.96992 0.779278 7.1266 1.55974 6.80538 2.66744C6.68568 3.08011 6.68547 3.85368 6.80489 4.26799C7.1645 5.51562 8.18708 6.32756 9.40155 6.32973C9.86802 6.33057 10.1557 6.25973 10.5802 6.03946C11.1466 5.74557 11.5296 5.3367 11.818 4.71813C12.0338 4.25545 12.0967 3.92006 12.0767 3.34081C12.0637 2.96727 12.0418 2.8177 11.9642 2.57217C11.8269 2.13735 11.6176 1.77741 11.3087 1.4448C10.8738 0.976528 10.3603 0.704548 9.73711 0.612401C9.42566 0.566366 9.32585 0.566557 9.02435 0.61385ZM10.067 1.33177C10.7059 1.56725 11.2094 2.11124 11.4155 2.78832C11.5259 3.15138 11.5344 3.75616 11.4336 4.07745C11.1755 4.89983 10.6502 5.43544 9.8987 5.64237C9.21284 5.83127 8.49142 5.62678 7.95714 5.09208C7.67822 4.81298 7.51764 4.54683 7.38705 4.14738C7.2659 3.77677 7.25942 3.19775 7.37222 2.81987C7.59738 2.06544 8.25885 1.41333 8.95264 1.26177C9.24052 1.19889 9.80226 1.23418 10.067 1.33177ZM14.5264 2.61001C13.8101 2.7842 13.1891 3.39794 12.9644 4.15367C12.878 4.44424 12.8606 5.06 12.9309 5.33503C13.0269 5.70982 13.2166 6.06034 13.4768 6.34322C13.7642 6.65583 13.9593 6.78985 14.3159 6.91977C14.8522 7.11511 15.3904 7.07018 15.9271 6.78528C17.3351 6.03794 17.4662 3.91564 16.1635 2.95725C15.6994 2.6158 15.0601 2.48021 14.5264 2.61001ZM3.59286 2.76473C3.06474 2.88805 2.58033 3.24051 2.28452 3.71675C1.72611 4.61573 1.83678 5.78131 2.55265 6.54085C2.92197 6.93268 3.5236 7.201 4.03271 7.201C4.91407 7.201 5.76192 6.52462 6.03738 5.60179C6.14886 5.22825 6.14185 4.64763 6.02138 4.27428C5.89499 3.88268 5.73424 3.61344 5.46013 3.33426C4.95492 2.81964 4.2623 2.60841 3.59286 2.76473ZM15.4136 3.26227C15.6834 3.34836 15.8688 3.47438 16.0812 3.71618C16.7832 4.51547 16.5428 5.78311 15.5989 6.25874C14.9822 6.56947 14.1881 6.35782 13.7751 5.77263C13.5538 5.45896 13.4844 5.22371 13.4834 4.78245C13.4826 4.43163 13.4915 4.38087 13.596 4.14322C13.7807 3.72315 14.1298 3.39584 14.5441 3.25438C14.745 3.18583 15.1865 3.18983 15.4136 3.26227ZM4.65207 3.49275C5.0773 3.71073 5.33807 4.03419 5.47238 4.51032C5.68399 5.26056 5.33874 6.07044 4.66176 6.41178C4.46138 6.51281 4.36975 6.53506 4.10349 6.54745C3.59965 6.57088 3.23274 6.40671 2.88736 6.00318C2.39293 5.42565 2.39293 4.48224 2.88736 3.9047C3.23459 3.49904 3.57417 3.34565 4.0858 3.36326C4.37551 3.37324 4.45384 3.39115 4.65207 3.49275ZM9.07605 6.73231C7.9925 6.84744 6.95491 7.33355 6.19834 8.08047L5.95728 8.31846L5.61437 8.14377C5.19654 7.93097 4.91089 7.83662 4.49316 7.77347C2.83243 7.52245 1.17364 8.62683 0.628856 10.3463C0.484457 10.8019 0.44043 11.1895 0.44043 12.0046C0.44043 12.7547 0.440784 12.7582 0.539315 12.9613C0.611302 13.1096 0.685165 13.1964 0.810771 13.2801L0.983342 13.395L2.77799 13.4058L4.57261 13.4166L4.59558 13.5712C4.6285 13.7929 4.73106 13.9885 4.90115 14.1539C5.20167 14.4463 4.82067 14.4239 9.50076 14.4239C14.1808 14.4239 13.7998 14.4463 14.1004 14.1539C14.3017 13.958 14.3919 13.7531 14.4125 13.4445L14.4295 13.1892L16.2033 13.1775C17.4643 13.1691 18.0041 13.1528 18.0705 13.1209C18.2253 13.0467 18.4266 12.8334 18.4951 12.6712C18.5503 12.5403 18.5596 12.4115 18.5603 11.7708C18.5612 10.9605 18.5172 10.5737 18.3726 10.1176C18.0038 8.95483 17.1493 8.0546 16.0651 7.68651C15.0867 7.35435 13.9424 7.50187 13.0957 8.06931L12.9229 8.18516L12.7037 7.98493C11.7007 7.06877 10.3379 6.59821 9.07605 6.73231ZM10.2305 7.41293C11.999 7.74016 13.3876 9.17826 13.7507 11.0585C13.8128 11.3801 13.8292 11.6227 13.8414 12.3953C13.8576 13.4232 13.8384 13.5904 13.6891 13.7168C13.5971 13.7948 13.5787 13.7951 9.50076 13.7951C5.44785 13.7951 5.4039 13.7943 5.31414 13.7183C5.16224 13.5896 5.14762 13.466 5.161 12.4232C5.17144 11.6088 5.18585 11.3878 5.25008 11.0585C5.61437 9.19095 6.9931 7.75186 8.73983 7.41605C9.12175 7.34262 9.84236 7.34113 10.2305 7.41293ZM15.7277 8.23531C16.7819 8.52455 17.6175 9.42814 17.8881 10.5715C17.9483 10.8258 17.9594 10.996 17.9594 11.6595C17.9594 12.2205 17.9472 12.4592 17.917 12.4918C17.8851 12.5261 17.4446 12.5375 16.1525 12.5375H14.4305L14.4096 11.8801C14.3794 10.9273 14.2428 10.3428 13.8671 9.55954C13.7755 9.36854 13.6167 9.08653 13.5143 8.9328L13.3281 8.65335L13.4441 8.57615C14.0656 8.16256 14.9704 8.02754 15.7277 8.23531ZM4.76532 8.47512C5.06445 8.55683 5.53686 8.77081 5.53686 8.82458C5.53686 8.83593 5.47139 8.94904 5.39133 9.07594C5.18273 9.40668 4.88321 10.0992 4.77594 10.4987C4.63848 11.0106 4.58171 11.4972 4.58149 12.166L4.58128 12.7662H2.8514C1.374 12.7662 1.11525 12.758 1.07844 12.7103C1.04634 12.6686 1.03915 12.4327 1.0503 11.7861C1.06368 11.0111 1.07398 10.8893 1.14625 10.6512C1.4909 9.51563 2.3277 8.6931 3.39565 8.44006C3.76001 8.35375 4.37895 8.3696 4.76532 8.47512Z" fill="#777E91"/>
<path fill-rule="evenodd" clip-rule="evenodd" d="M9.02435 0.61385C7.96992 0.779278 7.1266 1.55974 6.80538 2.66744C6.68568 3.08011 6.68547 3.85368 6.80489 4.26799C7.1645 5.51562 8.18708 6.32756 9.40155 6.32973C9.86802 6.33057 10.1557 6.25973 10.5802 6.03946C11.1466 5.74557 11.5296 5.3367 11.818 4.71813C12.0338 4.25545 12.0967 3.92006 12.0767 3.34081C12.0637 2.96727 12.0418 2.8177 11.9642 2.57217C11.8269 2.13735 11.6176 1.77741 11.3087 1.4448C10.8738 0.976528 10.3603 0.704548 9.73711 0.612401C9.42566 0.566366 9.32585 0.566557 9.02435 0.61385ZM10.067 1.33177C10.7059 1.56725 11.2094 2.11124 11.4155 2.78832C11.5259 3.15138 11.5344 3.75616 11.4336 4.07745C11.1755 4.89983 10.6502 5.43544 9.8987 5.64237C9.21284 5.83127 8.49142 5.62678 7.95714 5.09208C7.67822 4.81298 7.51764 4.54683 7.38705 4.14738C7.2659 3.77677 7.25942 3.19775 7.37222 2.81987C7.59738 2.06544 8.25885 1.41333 8.95264 1.26177C9.24052 1.19889 9.80226 1.23418 10.067 1.33177ZM14.5264 2.61001C13.8101 2.7842 13.1891 3.39794 12.9644 4.15367C12.878 4.44424 12.8606 5.06 12.9309 5.33503C13.0269 5.70982 13.2166 6.06034 13.4768 6.34322C13.7642 6.65583 13.9593 6.78985 14.3159 6.91977C14.8522 7.11511 15.3904 7.07018 15.9271 6.78528C17.3351 6.03794 17.4662 3.91564 16.1635 2.95725C15.6994 2.6158 15.0601 2.48021 14.5264 2.61001ZM3.59286 2.76473C3.06474 2.88805 2.58033 3.24051 2.28452 3.71675C1.72611 4.61573 1.83678 5.78131 2.55265 6.54085C2.92197 6.93268 3.5236 7.201 4.03271 7.201C4.91407 7.201 5.76192 6.52462 6.03738 5.60179C6.14886 5.22825 6.14185 4.64763 6.02138 4.27428C5.89499 3.88268 5.73424 3.61344 5.46013 3.33426C4.95492 2.81964 4.2623 2.60841 3.59286 2.76473ZM15.4136 3.26227C15.6834 3.34836 15.8688 3.47438 16.0812 3.71618C16.7832 4.51547 16.5428 5.78311 15.5989 6.25874C14.9822 6.56947 14.1881 6.35782 13.7751 5.77263C13.5538 5.45896 13.4844 5.22371 13.4834 4.78245C13.4826 4.43163 13.4915 4.38087 13.596 4.14322C13.7807 3.72315 14.1298 3.39584 14.5441 3.25438C14.745 3.18583 15.1865 3.18983 15.4136 3.26227ZM4.65207 3.49275C5.0773 3.71073 5.33807 4.03419 5.47238 4.51032C5.68399 5.26056 5.33874 6.07044 4.66176 6.41178C4.46138 6.51281 4.36975 6.53506 4.10349 6.54745C3.59965 6.57088 3.23274 6.40671 2.88736 6.00318C2.39293 5.42565 2.39293 4.48224 2.88736 3.9047C3.23459 3.49904 3.57417 3.34565 4.0858 3.36326C4.37551 3.37324 4.45384 3.39115 4.65207 3.49275ZM9.07605 6.73231C7.9925 6.84744 6.95491 7.33355 6.19834 8.08047L5.95728 8.31846L5.61437 8.14377C5.19654 7.93097 4.91089 7.83662 4.49316 7.77347C2.83243 7.52245 1.17364 8.62683 0.628856 10.3463C0.484457 10.8019 0.44043 11.1895 0.44043 12.0046C0.44043 12.7547 0.440784 12.7582 0.539315 12.9613C0.611302 13.1096 0.685165 13.1964 0.810771 13.2801L0.983342 13.395L2.77799 13.4058L4.57261 13.4166L4.59558 13.5712C4.6285 13.7929 4.73106 13.9885 4.90115 14.1539C5.20167 14.4463 4.82067 14.4239 9.50076 14.4239C14.1808 14.4239 13.7998 14.4463 14.1004 14.1539C14.3017 13.958 14.3919 13.7531 14.4125 13.4445L14.4295 13.1892L16.2033 13.1775C17.4643 13.1691 18.0041 13.1528 18.0705 13.1209C18.2253 13.0467 18.4266 12.8334 18.4951 12.6712C18.5503 12.5403 18.5596 12.4115 18.5603 11.7708C18.5612 10.9605 18.5172 10.5737 18.3726 10.1176C18.0038 8.95483 17.1493 8.0546 16.0651 7.68651C15.0867 7.35435 13.9424 7.50187 13.0957 8.06931L12.9229 8.18516L12.7037 7.98493C11.7007 7.06877 10.3379 6.59821 9.07605 6.73231ZM10.2305 7.41293C11.999 7.74016 13.3876 9.17826 13.7507 11.0585C13.8128 11.3801 13.8292 11.6227 13.8414 12.3953C13.8576 13.4232 13.8384 13.5904 13.6891 13.7168C13.5971 13.7948 13.5787 13.7951 9.50076 13.7951C5.44785 13.7951 5.4039 13.7943 5.31414 13.7183C5.16224 13.5896 5.14762 13.466 5.161 12.4232C5.17144 11.6088 5.18585 11.3878 5.25008 11.0585C5.61437 9.19095 6.9931 7.75186 8.73983 7.41605C9.12175 7.34262 9.84236 7.34113 10.2305 7.41293ZM15.7277 8.23531C16.7819 8.52455 17.6175 9.42814 17.8881 10.5715C17.9483 10.8258 17.9594 10.996 17.9594 11.6595C17.9594 12.2205 17.9472 12.4592 17.917 12.4918C17.8851 12.5261 17.4446 12.5375 16.1525 12.5375H14.4305L14.4096 11.8801C14.3794 10.9273 14.2428 10.3428 13.8671 9.55954C13.7755 9.36854 13.6167 9.08653 13.5143 8.9328L13.3281 8.65335L13.4441 8.57615C14.0656 8.16256 14.9704 8.02754 15.7277 8.23531ZM4.76532 8.47512C5.06445 8.55683 5.53686 8.77081 5.53686 8.82458C5.53686 8.83593 5.47139 8.94904 5.39133 9.07594C5.18273 9.40668 4.88321 10.0992 4.77594 10.4987C4.63848 11.0106 4.58171 11.4972 4.58149 12.166L4.58128 12.7662H2.8514C1.374 12.7662 1.11525 12.758 1.07844 12.7103C1.04634 12.6686 1.03915 12.4327 1.0503 11.7861C1.06368 11.0111 1.07398 10.8893 1.14625 10.6512C1.4909 9.51563 2.3277 8.6931 3.39565 8.44006C3.76001 8.35375 4.37895 8.3696 4.76532 8.47512Z" stroke="#777E91" stroke-width="0.8" mask="url(#path-1-outside-1_826_11422)"/>
</svg>
