<svg width="49" height="49" viewBox="0 0 49 49" fill="none" xmlns="http://www.w3.org/2000/svg">
<circle cx="24.4037" cy="24.5013" r="24.1537" fill="#3B71FE"/>
<path fill-rule="evenodd" clip-rule="evenodd" d="M25.3527 18.244C24.8529 18.7081 24.0638 18.7081 23.564 18.244L22.6696 17.4134C21.6228 16.4412 20.2087 15.8477 18.6458 15.8477C15.4357 15.8477 12.8333 18.3661 12.8333 21.4727C12.8333 24.4509 14.4993 26.9102 16.9044 28.9309C19.3115 30.9532 22.1894 32.2945 23.9089 32.979C24.2685 33.1221 24.6482 33.1221 25.0077 32.979C26.7273 32.2945 29.6052 30.9532 32.0123 28.9308C34.4174 26.9102 36.0833 24.4509 36.0833 21.4727C36.0833 18.3661 33.481 15.8477 30.2708 15.8477C28.708 15.8477 27.2938 16.4412 26.247 17.4134L25.3527 18.244ZM24.4583 15.6096C22.9498 14.2087 20.9017 13.3477 18.6458 13.3477C14.0089 13.3477 10.25 16.9853 10.25 21.4727C10.25 29.433 19.2534 33.8289 22.9261 35.291C23.9153 35.6848 25.0014 35.6848 25.9905 35.291C29.6633 33.8289 38.6667 29.433 38.6667 21.4727C38.6667 16.9853 34.9077 13.3477 30.2708 13.3477C28.0149 13.3477 25.9669 14.2087 24.4583 15.6096Z" fill="#D9D9D9"/>
</svg>
