<svg width="14" height="17" viewBox="0 0 14 17" fill="none" xmlns="http://www.w3.org/2000/svg">
<path fill-rule="evenodd" clip-rule="evenodd" d="M3.99018 0.963285C3.54447 1.21252 3.52782 1.84683 3.96038 2.09791C4.04169 2.14512 4.36839 2.1512 7.58021 2.16547C11.1037 2.18111 11.111 2.18126 11.2661 2.24828C11.5919 2.38897 11.8515 2.66617 11.9813 3.01183C12.031 3.1443 12.0351 3.45557 12.0491 8.12136C12.0628 12.6676 12.0682 13.0978 12.1133 13.1839C12.3648 13.6635 13.0691 13.5973 13.2117 13.0806C13.2342 12.9992 13.2411 11.4619 13.2349 7.94895L13.2259 2.93346L13.1559 2.71403C12.8857 1.86692 12.3329 1.28528 11.5278 1.00093L11.3192 0.927267L7.69938 0.920277C4.43555 0.913976 4.07076 0.918208 3.99018 0.963285ZM2.33891 3.48435C1.46306 3.66785 0.758997 4.34548 0.484844 5.2688L0.415039 5.5039V10.2059V14.9079L0.484844 15.143C0.736831 15.9917 1.32154 16.6069 2.12813 16.872L2.35157 16.9455H5.62878H8.90599L9.12943 16.872C9.93601 16.6069 10.5207 15.9917 10.7727 15.143L10.8425 14.9079V10.2059V5.5039L10.7727 5.2688C10.5231 4.42801 9.95699 3.82706 9.14433 3.54002L8.93578 3.46636L5.70326 3.46156C3.92538 3.4589 2.41142 3.46918 2.33891 3.48435ZM8.8613 4.77593C9.19867 4.91615 9.48424 5.22106 9.59721 5.5617C9.64786 5.71439 9.65081 5.97103 9.65081 10.2059C9.65081 14.4408 9.64786 14.6974 9.59721 14.8501C9.48424 15.1908 9.19867 15.4957 8.8613 15.6359C8.73587 15.688 8.52839 15.6916 5.64368 15.6916C2.75172 15.6916 2.55059 15.6881 2.40651 15.6352C2.08275 15.5163 1.79296 15.2159 1.65969 14.8609C1.61 14.7285 1.60624 14.4507 1.59871 10.3183C1.59334 7.39862 1.60097 5.85784 1.62132 5.7417C1.70766 5.24861 2.09002 4.83402 2.54656 4.73838C2.61956 4.72308 4.04008 4.71274 5.70326 4.7154C8.52449 4.71992 8.73623 4.72396 8.8613 4.77593Z" fill="#23262F"/>
</svg>
