<svg width="12" height="11" viewBox="0 0 12 11" fill="none" xmlns="http://www.w3.org/2000/svg">
<path d="M5.66851 0.334643C5.86192 -0.0959227 6.49744 -0.0959227 6.69085 0.334643L7.90455 3.03654C7.98645 3.21886 8.16675 3.34258 8.37283 3.35788L11.4854 3.58892C11.9847 3.62599 12.1832 4.22824 11.7969 4.53458L9.45618 6.39113C9.29108 6.52208 9.21877 6.73238 9.27021 6.93204L9.99059 9.72831C10.1091 10.1882 9.59267 10.558 9.16772 10.3177L6.46212 8.78755C6.28781 8.68897 6.07155 8.68897 5.89723 8.78755L3.19164 10.3177C2.76669 10.558 2.2503 10.1882 2.36877 9.72831L3.08915 6.93204C3.14058 6.73238 3.06828 6.52208 2.90318 6.39113L0.562441 4.53458C0.1762 4.22824 0.374623 3.62599 0.874008 3.58892L3.98653 3.35788C4.19261 3.34258 4.37291 3.21886 4.45481 3.03654L5.66851 0.334643Z" fill="#3772FF"/>
<path d="M5.66851 0.334643C5.86192 -0.0959227 6.49744 -0.0959227 6.69085 0.334643L7.90455 3.03654C7.98645 3.21886 8.16675 3.34258 8.37283 3.35788L11.4854 3.58892C11.9847 3.62599 12.1832 4.22824 11.7969 4.53458L9.45618 6.39113C9.29108 6.52208 9.21877 6.73238 9.27021 6.93204L9.99059 9.72831C10.1091 10.1882 9.59267 10.558 9.16772 10.3177L6.46212 8.78755C6.28781 8.68897 6.07155 8.68897 5.89723 8.78755L3.19164 10.3177C2.76669 10.558 2.2503 10.1882 2.36877 9.72831L3.08915 6.93204C3.14058 6.73238 3.06828 6.52208 2.90318 6.39113L0.562441 4.53458C0.1762 4.22824 0.374623 3.62599 0.874008 3.58892L3.98653 3.35788C4.19261 3.34258 4.37291 3.21886 4.45481 3.03654L5.66851 0.334643Z" fill="black" fill-opacity="0.25"/>
</svg>
