<svg width="50" height="49" viewBox="0 0 50 49" fill="none" xmlns="http://www.w3.org/2000/svg">
<circle cx="24.9037" cy="24.5013" r="24.1537" fill="#3B71FE"/>
<path d="M22.2379 20.8408L22.1231 20.9557L22.1813 21.1073C22.3751 21.6117 22.9808 22.6425 24.7477 24.4094C26.5146 26.1763 27.5455 26.782 28.0499 26.9758L28.2015 27.034L28.3163 26.9192L30.1252 25.1103C31.4617 23.7738 33.5776 23.6234 35.0897 24.7575L38.361 27.211C40.21 28.5978 40.4021 31.3007 38.7678 32.9351L38.7645 32.9384L38.7612 32.9417L38.7579 32.945L38.7546 32.9483L38.7513 32.9515L38.7481 32.9548L38.7448 32.9581L38.7416 32.9613L38.7384 32.9645L38.7351 32.9677L38.7319 32.971L38.7287 32.9742L38.7255 32.9773L38.7224 32.9805L38.7192 32.9837L38.716 32.9868L38.7129 32.99L38.7097 32.9931L38.7066 32.9963L38.7035 32.9994L38.7004 33.0025L38.6973 33.0056L38.6942 33.0087L38.6911 33.0118L38.688 33.0148L38.685 33.0179L38.6819 33.021L38.6789 33.024L38.6758 33.027L38.6728 33.0301L38.6698 33.0331L38.6668 33.0361L38.6638 33.0391L38.6608 33.0421L38.6578 33.0451L38.6549 33.048L38.6519 33.051L38.6489 33.054L38.646 33.0569L38.643 33.0598L38.6401 33.0628L38.6372 33.0657L38.6343 33.0686L38.6314 33.0715L38.6285 33.0744L38.6256 33.0773L38.6227 33.0802L38.6198 33.0831L38.617 33.0859L38.6141 33.0888L38.6113 33.0916L38.6084 33.0945L38.6056 33.0973L38.6028 33.1001L38.5999 33.1029L38.5971 33.1058L38.5943 33.1086L38.5915 33.1114L38.5887 33.1141L38.586 33.1169L38.5832 33.1197L38.5804 33.1225L38.5776 33.1252L38.5749 33.128L38.5721 33.1307L38.5694 33.1335L38.5667 33.1362L38.564 33.1389L38.5612 33.1416L38.5585 33.1444L38.5558 33.1471L38.5531 33.1498L38.5504 33.1525L38.5477 33.1551L38.5451 33.1578L38.5424 33.1605L38.5397 33.1632L38.5371 33.1658L38.5344 33.1685L38.5318 33.1711L38.5291 33.1738L38.5265 33.1764L38.5238 33.179L38.5212 33.1817L38.5186 33.1843L38.516 33.1869L38.5134 33.1895L38.5108 33.1921L38.5082 33.1947L38.5056 33.1973L38.503 33.1999L38.5004 33.2025L38.4978 33.205L38.4953 33.2076L38.4927 33.2102L38.4902 33.2127L38.4876 33.2153L38.4851 33.2178L38.4825 33.2204L38.48 33.2229L38.4774 33.2254L38.4749 33.228L38.4724 33.2305L38.4699 33.233L38.4673 33.2355L38.4648 33.238L38.4623 33.2405L38.4598 33.2431L38.4573 33.2455L38.4548 33.248L38.4523 33.2505L38.4499 33.253L38.4474 33.2555L38.4449 33.258L38.4424 33.2604L38.44 33.2629L38.4375 33.2654L38.435 33.2678L38.4326 33.2703L38.4301 33.2727L38.4277 33.2752L38.4252 33.2776L38.4228 33.2801L38.4204 33.2825L38.4179 33.285L38.4155 33.2874L38.4131 33.2898L38.4106 33.2922L38.4082 33.2947L38.4058 33.2971L38.4034 33.2995L38.401 33.3019L38.3986 33.3043L38.3962 33.3067L38.3938 33.3091L38.3914 33.3115L38.389 33.3139L38.3866 33.3163L38.3842 33.3187L38.3818 33.3211L38.3794 33.3235L38.377 33.3259L38.3746 33.3283L38.3722 33.3306L38.3699 33.333L38.3675 33.3354L38.3651 33.3378L38.3627 33.3401L38.3604 33.3425L38.358 33.3449L38.3556 33.3472L38.3533 33.3496L38.3509 33.352L38.3486 33.3543L38.3462 33.3567L38.3438 33.359L38.3415 33.3614L38.3391 33.3638L38.3368 33.3661L38.3344 33.3685L38.3321 33.3708L38.3297 33.3732L38.3274 33.3755L38.325 33.3778L38.3227 33.3802L38.3203 33.3825L38.318 33.3849L38.3157 33.3872L38.3133 33.3896L38.311 33.3919L38.3086 33.3942L38.3063 33.3966L38.304 33.3989L38.3016 33.4013L38.2993 33.4036L38.2969 33.4059L38.2946 33.4083L38.2923 33.4106L38.2899 33.4129L38.2876 33.4153L38.2853 33.4176L38.2829 33.4199L38.2806 33.4223L38.2783 33.4246L38.2759 33.427L38.2736 33.4293L38.2713 33.4316L38.2689 33.434L38.2666 33.4363L38.2642 33.4386L38.2619 33.441L38.2596 33.4433L38.2572 33.4457L38.2549 33.448L38.2526 33.4503L38.2502 33.4527L38.2479 33.455L38.2455 33.4574L38.2432 33.4597L38.2408 33.462L38.2385 33.4644L38.2361 33.4667L38.2338 33.4691L38.2315 33.4714L38.2291 33.4738L38.2268 33.4761L38.2244 33.4785L38.222 33.4808L38.2197 33.4832L38.2173 33.4855L38.215 33.4879L38.2126 33.4903L38.2103 33.4926L38.2079 33.495L38.2055 33.4974L38.2032 33.4997L38.2008 33.5021L38.1984 33.5045L38.196 33.5068L38.1937 33.5092L38.1913 33.5116L38.1889 33.514L38.1865 33.5164L38.1841 33.5187L38.1818 33.5211L38.1794 33.5235L38.177 33.5259L38.1746 33.5283L38.1722 33.5307L38.1698 33.5331L38.1674 33.5355L38.165 33.5379L38.1626 33.5403L38.1601 33.5427L38.1577 33.5451L38.1553 33.5476L38.1529 33.55L38.1505 33.5524L38.148 33.5548L38.1456 33.5573L38.1432 33.5597L38.1407 33.5621L38.1383 33.5646L38.1358 33.567L38.1334 33.5695L38.1309 33.5719L38.1285 33.5744L38.126 33.5768L38.1236 33.5793L38.1211 33.5818L38.1186 33.5843L38.1162 33.5867L38.1137 33.5892L38.1112 33.5917L38.1087 33.5942L38.1062 33.5967L38.1037 33.5992L38.1012 33.6017L38.0987 33.6042L38.0962 33.6067L38.0937 33.6092L38.0912 33.6117L38.0886 33.6142L38.0861 33.6168L38.0836 33.6193L38.081 33.6218L38.0785 33.6244L38.0759 33.6269L38.0734 33.6295L38.0708 33.6321L38.0683 33.6346L38.0657 33.6372L38.0631 33.6398L38.0605 33.6423L38.058 33.6449L38.0554 33.6475L38.0528 33.6501L38.0502 33.6527L38.0476 33.6553L38.0449 33.6579L38.0423 33.6605L38.0397 33.6632L38.0371 33.6658L38.0344 33.6684L38.0318 33.6711L38.0291 33.6737L38.0265 33.6764L38.0238 33.679L38.0212 33.6817L38.0185 33.6844L38.0158 33.6871L38.0131 33.6898L38.0104 33.6924L38.0077 33.6951L38.005 33.6978L38.0023 33.7006L37.9996 33.7033L37.9969 33.706L37.9941 33.7087L37.9914 33.7115L37.9887 33.7142L37.9859 33.717L37.9831 33.7197L37.9804 33.7225L37.9776 33.7253L37.9748 33.7281L37.972 33.7308L37.9692 33.7336L37.9664 33.7364L37.9636 33.7393L37.9608 33.7421L37.958 33.7449L37.9551 33.7477L37.9523 33.7506L37.9495 33.7534L37.9466 33.7563L37.9437 33.7591L37.9409 33.762L37.938 33.7649L37.9351 33.7678L37.9322 33.7707L37.9293 33.7736L37.9264 33.7765L37.9235 33.7794L37.9205 33.7824L37.9176 33.7853L37.9146 33.7882L37.9117 33.7912L37.9087 33.7942L37.9057 33.7971L37.9028 33.8001L37.8998 33.8031L37.8968 33.8061L37.8938 33.8091L37.8908 33.8121L37.8877 33.8152L37.8847 33.8182L37.8816 33.8212L37.8786 33.8243L37.8755 33.8273L37.8725 33.8304L37.8694 33.8335L37.8663 33.8366L37.8632 33.8397L37.8601 33.8428L37.857 33.8459L37.8538 33.849L37.8507 33.8522L37.8475 33.8553L37.8444 33.8585L37.8412 33.8617L37.838 33.8648L37.8349 33.868L37.8317 33.8712L37.8284 33.8744L37.8252 33.8776L37.822 33.8809L37.8188 33.8841L37.8155 33.8874L37.8123 33.8906L37.809 33.8939L37.8057 33.8972L37.8024 33.9005L37.7991 33.9038L37.7958 33.9071L37.7925 33.9104L37.7891 33.9137L37.7858 33.9171L37.7824 33.9204L37.7791 33.9238L37.7757 33.9272L37.7723 33.9306L37.7689 33.934L37.7655 33.9374L37.7621 33.9408L37.7586 33.9442L37.7552 33.9477L37.7517 33.9511L37.7483 33.9546L37.7448 33.9581L37.7413 33.9616L37.7378 33.9651L37.7343 33.9686L37.7308 33.9721L37.7272 33.9757L37.7237 33.9792L37.7201 33.9828L37.7165 33.9864L37.7129 33.9899L37.7093 33.9935L37.7057 33.9971L37.7021 34.0008L37.6985 34.0044L37.6948 34.0081L37.6912 34.0117L37.6875 34.0154L37.6838 34.0191L37.6801 34.0228L37.6764 34.0265L37.6727 34.0302L37.6689 34.0339L37.6652 34.0377L37.6614 34.0415L37.6576 34.0452L37.6539 34.049L37.6501 34.0528L37.6462 34.0566L37.6424 34.0605L37.6386 34.0643L37.6347 34.0682L37.6308 34.072L37.627 34.0759L37.6231 34.0798L37.6192 34.0837L37.6152 34.0876L37.6113 34.0916L37.6073 34.0955L37.6034 34.0995L37.5994 34.1035L37.5954 34.1075L37.5914 34.1115L37.5874 34.1155L37.5834 34.1195L37.5793 34.1236L37.5752 34.1276L37.5712 34.1317L37.5671 34.1358L37.563 34.1399L37.5588 34.144L37.5547 34.1482L37.5506 34.1523L37.5464 34.1565L37.5422 34.1607L37.538 34.1649L37.5338 34.1691L37.5296 34.1733L37.5254 34.1775L37.5211 34.1818L37.5168 34.186L37.5126 34.1903L37.5083 34.1946L37.5039 34.1989L37.4996 34.2033L37.4953 34.2076L37.4909 34.212L37.4865 34.2163L37.4821 34.2207L37.4777 34.2251L37.4733 34.2296L37.4689 34.234L37.4644 34.2385L37.4599 34.2429L37.4555 34.2474L37.451 34.2519L37.4464 34.2564L37.4419 34.261L37.4374 34.2655L37.4328 34.2701L37.4282 34.2747L37.4236 34.2793L37.419 34.2839L37.4144 34.2885L37.4097 34.2932L37.4051 34.2978L37.4004 34.3025L37.3957 34.3072L37.391 34.3119L37.3862 34.3166L37.3815 34.3214L37.3767 34.3262L37.3719 34.3309L37.3671 34.3357L37.3623 34.3406L37.3575 34.3454L37.3526 34.3502L37.3478 34.3551L37.3429 34.36L37.338 34.3649L37.3331 34.3698L37.3281 34.3747L37.3232 34.3797L37.3182 34.3847L37.3132 34.3897L37.3082 34.3947L37.3032 34.3997L37.2981 34.4047L37.2931 34.4098L37.288 34.4149L37.2829 34.42L37.2778 34.4251L37.2727 34.4302L37.2675 34.4354L37.2623 34.4405L37.2571 34.4457L37.2519 34.4509L37.2467 34.4562L37.2415 34.4614L37.2362 34.4667L37.2309 34.472L37.2256 34.4773L37.2203 34.4826L37.215 34.4879L37.2096 34.4933L37.2042 34.4986L37.1988 34.504L37.1934 34.5094L37.188 34.5149L37.1826 34.5203L37.1771 34.5258L37.1716 34.5313L37.1661 34.5368L37.1606 34.5423C36.2497 35.4532 34.2681 36.335 32.2475 36.4228C29.0995 36.5597 24.7623 35.1666 19.3764 29.7807C13.9905 24.3948 12.5974 20.0576 12.7343 16.9096C12.8112 15.1416 13.3734 13.2337 14.621 12.0055L14.621 12.0055L14.6238 12.0027C15.5606 11.0508 15.6823 10.9291 16.2215 10.3899L16.222 10.3893C17.8564 8.75499 20.5593 8.94709 21.9461 10.7961L24.3996 14.0675C25.5337 15.5795 25.3833 17.6954 24.0468 19.0319L22.2379 20.8408ZM35.5986 32.9945L35.5988 32.9947L35.6058 32.9876L37.2131 31.3804C37.9013 30.6921 37.8204 29.5539 37.0418 28.97L33.7704 26.5165C33.1337 26.0389 32.2427 26.1022 31.6799 26.665C31.4005 26.9444 31.1563 27.1898 30.9056 27.4416C30.5128 27.8362 30.1043 28.2465 29.5205 28.828C29.0853 29.2617 28.5799 29.3928 28.0275 29.3262C27.4627 29.2581 26.8481 28.9817 26.2321 28.5899C25.0798 27.857 23.9964 26.77 23.326 26.0974C23.2796 26.0509 23.2353 26.0064 23.193 25.9641C23.1604 25.9315 23.1261 25.8973 23.0902 25.8615C22.4652 25.2381 21.3658 24.1414 20.6145 22.9637C20.2171 22.3407 19.9309 21.7156 19.8538 21.1421C19.7783 20.5804 19.9024 20.072 20.3279 19.6414L20.3288 19.6405L20.3338 19.6355L20.3539 19.6154L20.4368 19.5325L20.7978 19.1715L22.4921 17.4772C23.0549 16.9144 23.1182 16.0234 22.6406 15.3867L20.1872 12.1154C19.6032 11.3367 18.465 11.2558 17.7768 11.9441L17.7764 11.9444C17.2422 12.4786 16.6372 13.0836 16.1705 13.5535C15.1409 14.5902 14.9828 15.8118 14.9309 17.0051C14.8293 19.3431 15.8214 23.1162 20.9312 28.226C26.0409 33.3358 29.814 34.3278 32.152 34.2262C34.3285 34.1315 35.507 33.0791 35.5986 32.9945Z" fill="#FCFCFD" stroke="#3B71FE" stroke-width="0.5"/>
</svg>
