<svg width="26" height="21" viewBox="0 0 26 21" fill="none" xmlns="http://www.w3.org/2000/svg">
<path fill-rule="evenodd" clip-rule="evenodd" d="M13.064 5.50143L12.7072 5.78683L12.6884 8.08726L12.6696 10.3877L11.0831 10.4501C10.2104 10.4845 9.41038 10.5543 9.30514 10.6051C8.87549 10.8127 8.84101 11.1466 8.81175 15.3822L8.78298 19.5442L8.22847 19.58C7.66326 19.6165 7.47514 19.7866 7.61023 20.1388C7.67028 20.2952 8.78547 20.3172 16.652 20.3172H25.6254L25.5877 19.9902C25.5551 19.7062 25.4914 19.6583 25.1042 19.6263L24.6583 19.5893V15.3262V11.0629L24.2924 10.755C23.9386 10.4573 23.874 10.4472 22.3303 10.4472H20.734V8.14446V5.84189L20.4206 5.52831L20.107 5.21484L16.7639 5.21544L13.4207 5.21603L13.064 5.50143ZM19.9918 12.7957L20.0224 19.6037H19.0702H18.1179V18.1172V16.6308H16.7504H15.3828V17.9291C15.3828 18.6432 15.3504 19.3121 15.3106 19.4156C15.2532 19.5652 15.046 19.6037 14.2998 19.6037H13.3612V12.9087C13.3612 7.81138 13.3957 6.17925 13.5058 6.06914C13.6137 5.96128 14.4513 5.93262 16.8058 5.95617L19.9611 5.9878L19.9918 12.7957ZM14.2775 7.07326C14.1228 7.22797 14.1809 8.99114 14.3423 9.03716C14.4241 9.06047 14.8655 9.07962 15.3234 9.07962H16.1558V8.06883V7.05804L15.2586 7.0238C14.765 7.00489 14.3236 7.02724 14.2775 7.07326ZM17.3093 7.14128C17.1144 7.33619 17.1192 8.85784 17.3152 8.97925C17.5354 9.11565 18.9861 9.12254 19.1584 8.98817C19.3128 8.86759 19.3692 7.53692 19.2349 7.18671C19.1783 7.03925 18.9777 6.99858 18.3073 6.99858C17.8006 6.99858 17.3938 7.05673 17.3093 7.14128ZM15.6206 8.07632C15.6206 8.54984 15.6129 8.55876 15.2342 8.52226C14.9339 8.49336 14.839 8.42344 14.8086 8.20879C14.7458 7.76595 14.8725 7.59316 15.2602 7.59316C15.6023 7.59316 15.6206 7.61766 15.6206 8.07632ZM18.6899 8.09856C18.7263 8.53795 18.7206 8.54449 18.2997 8.54449C17.8236 8.54449 17.691 8.36469 17.8118 7.88296C17.8768 7.6242 17.9455 7.58425 18.2706 7.61564C18.6188 7.64929 18.6563 7.69258 18.6899 8.09856ZM14.2186 11.0715L14.2531 12.0525H15.2044H16.1558L16.1903 11.0715L16.2249 10.0904H15.2044H14.184L14.2186 11.0715ZM17.2164 10.2508C17.1826 10.3391 17.1708 10.7806 17.1905 11.2319L17.226 12.0525H18.2368H19.2476L19.284 11.344C19.3476 10.1063 19.3342 10.0904 18.2309 10.0904C17.5409 10.0904 17.261 10.1346 17.2164 10.2508ZM15.6206 11.1012C15.6206 11.4975 15.6008 11.5174 15.2044 11.5174C14.8081 11.5174 14.7882 11.4975 14.7882 11.1012C14.7882 10.7048 14.8081 10.685 15.2044 10.685C15.6008 10.685 15.6206 10.7048 15.6206 11.1012ZM18.7125 11.1012C18.7125 11.4975 18.6926 11.5174 18.2963 11.5174C17.8999 11.5174 17.8801 11.4975 17.8801 11.1012C17.8801 10.7048 17.8999 10.685 18.2963 10.685C18.6926 10.685 18.7125 10.7048 18.7125 11.1012ZM12.6645 14.2525C12.6652 15.9203 12.6619 17.8065 12.6568 18.4443L12.6477 19.6037H11.1018C10.2516 19.6037 9.54998 19.5635 9.54273 19.5145C9.53548 19.4655 9.51098 17.6652 9.48815 15.5139C9.46175 13.0261 9.49041 11.5208 9.56687 11.3781C9.67627 11.1735 9.81897 11.1566 11.175 11.1869L12.663 11.2201L12.6645 14.2525ZM23.9166 15.4119L23.9479 19.6037H22.341H20.734V15.4615C20.734 13.1832 20.7713 11.2821 20.8167 11.2365C20.8621 11.1911 21.5712 11.1687 22.3923 11.187L23.8853 11.2201L23.9166 15.4119ZM10.2007 12.034C10.1669 12.1218 10.1553 12.59 10.1747 13.0745L10.21 13.9552L10.9185 13.9916C12.1533 14.0551 12.1721 14.0395 12.1721 12.9549C12.1721 11.8686 12.178 11.8741 11.0289 11.8741C10.4966 11.8741 10.2433 11.923 10.2007 12.034ZM21.4125 11.9488C21.3663 11.995 21.3286 12.4509 21.3286 12.962C21.3286 14.0385 21.3486 14.0549 22.5822 13.9916L23.2907 13.9552V12.9444V11.9336L22.3935 11.8994C21.9 11.8804 21.4586 11.9028 21.4125 11.9488ZM11.5553 12.9147C11.5911 13.2853 11.5752 13.3011 11.1688 13.3011C10.7625 13.3011 10.7451 13.2838 10.7451 12.8774C10.7451 12.471 10.7609 12.4552 11.1316 12.491C11.4714 12.5237 11.5226 12.5748 11.5553 12.9147ZM22.7556 12.8849C22.7556 13.2813 22.7358 13.3011 22.3394 13.3011C21.9431 13.3011 21.9232 13.2813 21.9232 12.8849C21.9232 12.4886 21.9431 12.4687 22.3394 12.4687C22.7358 12.4687 22.7556 12.4886 22.7556 12.8849ZM14.3423 13.1396C14.2412 13.1821 14.1937 13.5025 14.1937 14.1412C14.1937 15.2291 14.212 15.2442 15.4473 15.1807L16.1558 15.1443V14.1335V13.1228L15.3234 13.1C14.8655 13.0874 14.4241 13.1053 14.3423 13.1396ZM17.3093 13.206C17.2271 13.2882 17.1666 13.6817 17.1666 14.1335C17.1666 14.5854 17.2271 14.9789 17.3093 15.0611C17.3914 15.1433 17.7849 15.2038 18.2368 15.2038C18.6887 15.2038 19.0822 15.1433 19.1643 15.0611C19.2489 14.9765 19.307 14.5697 19.307 14.063C19.307 13.3927 19.2664 13.1921 19.1189 13.1355C18.7831 13.0066 17.457 13.0583 17.3093 13.206ZM15.6206 14.1335C15.6206 14.5979 15.6108 14.6092 15.2044 14.6092C14.812 14.6092 14.7882 14.5866 14.7882 14.2129C14.7882 13.7296 14.8522 13.6579 15.2838 13.6579C15.5976 13.6579 15.6206 13.6906 15.6206 14.1335ZM18.6899 14.1633C18.726 14.5995 18.7178 14.6092 18.317 14.6092C17.9576 14.6092 17.901 14.5676 17.8575 14.2715C17.7819 13.7571 17.865 13.6408 18.2787 13.681C18.6177 13.7139 18.6565 13.7594 18.6899 14.1633ZM10.1754 15.9421L10.21 16.9281H11.1613H12.1126V15.9767V15.0254L11.1267 14.9908L10.1408 14.9562L10.1754 15.9421ZM21.3286 15.9815V16.9972L22.3097 16.9626L23.2907 16.9281L23.3252 15.947L23.3598 14.966H22.3442H21.3286V15.9815ZM11.5775 15.9767C11.5775 16.3731 11.5576 16.393 11.1613 16.393C10.765 16.393 10.7451 16.3731 10.7451 15.9767C10.7451 15.5804 10.765 15.5605 11.1613 15.5605C11.5576 15.5605 11.5775 15.5804 11.5775 15.9767ZM22.7556 15.9767C22.7556 16.3731 22.7358 16.393 22.3394 16.393C21.9431 16.393 21.9232 16.3731 21.9232 15.9767C21.9232 15.5804 21.9431 15.5605 22.3394 15.5605C22.7358 15.5605 22.7556 15.5804 22.7556 15.9767ZM17.4977 18.3848L17.5316 19.6037H16.7672C15.8647 19.6037 15.8585 19.5952 15.8585 18.3551C15.8585 17.1045 15.8694 17.0892 16.7354 17.1309L17.4638 17.1659L17.4977 18.3848Z" fill="#353945"/>
<path d="M3.95606 0.995848C3.71918 1.00636 3.50239 1.01718 3.34391 1.02615C3.26471 1.03063 3.19988 1.03466 3.15433 1.03797C3.13162 1.03962 3.11333 1.04111 3.10032 1.04242C3.09392 1.04307 3.08816 1.04373 3.08358 1.04442C3.0814 1.04475 3.07855 1.04522 3.07566 1.0459C3.07429 1.04622 3.07188 1.04682 3.0691 1.04782L3.06896 1.04787C3.06757 1.04835 3.0592 1.05126 3.05136 1.05852L3.95606 0.995848ZM3.95606 0.995848L3.95828 1.0458L14.3026 2.60741L14.3505 2.62156C14.3505 2.62155 14.3505 2.62155 14.3505 2.62155C14.4099 2.42053 14.3877 2.23417 14.2818 2.06742C14.1773 1.90276 13.994 1.76175 13.7398 1.64213L13.7185 1.68738L13.7397 1.64213C13.4354 1.49898 13.2074 1.44468 12.8421 1.42749L12.8398 1.47742L12.8421 1.42749C12.4828 1.4106 12.2435 1.43758 11.8527 1.53836L11.8652 1.58678L11.8527 1.53836C11.5252 1.62283 11.2793 1.72618 10.0386 2.29726L8.99629 2.77707L7.16298 1.87139L5.30829 0.955172L5.29743 0.94981L5.28533 0.950007L5.05186 0.95379L5.05267 1.00378L5.05186 0.95379C4.92259 0.955892 4.42933 0.974824 3.95606 0.995848ZM6.04844 4.13397L5.13423 4.56244L4.17439 5.01231L3.19097 4.6436L3.17342 4.69042L3.19097 4.6436C2.91501 4.54015 2.66111 4.44606 2.47433 4.3778C2.38096 4.34369 2.30424 4.31598 2.24989 4.29677C2.22275 4.28719 2.20096 4.27964 2.18538 4.27445C2.17765 4.27188 2.17109 4.26976 2.16603 4.26825L2.15855 4.26617C2.15827 4.2661 2.15154 4.26423 2.14408 4.26419L6.04844 4.13397ZM6.04844 4.13397L5.40178 3.49067L5.43598 3.4563L5.40178 3.49067C5.01829 3.10913 4.32954 2.42458 3.87126 1.96944C3.64201 1.74175 3.43488 1.53343 3.28584 1.38119C3.21135 1.3051 3.1512 1.24285 3.11001 1.19914C3.08948 1.17736 3.07331 1.15981 3.06235 1.14733C3.05699 1.14124 3.05222 1.1356 3.04869 1.13097C3.04713 1.12893 3.0446 1.12552 3.04238 1.12162C3.04148 1.12005 3.03895 1.11555 3.03721 1.10945C3.03636 1.10645 3.03483 1.10016 3.03536 1.09212C3.03593 1.08354 3.0392 1.06983 3.05129 1.05859L6.04844 4.13397ZM13.6769 3.30631C13.7975 3.23961 13.9675 3.11006 14.0887 2.99314L2.14406 4.26419C2.1349 4.26414 2.12613 4.26628 2.12133 4.26753C2.11522 4.26911 2.10838 4.27126 2.1012 4.27371C2.08674 4.27863 2.06843 4.28562 2.04721 4.29418C2.00462 4.31134 1.94808 4.33572 1.88275 4.36482C1.75197 4.42307 1.58446 4.50091 1.41983 4.57943C1.25522 4.65795 1.09309 4.73734 0.973109 4.79869C0.913224 4.82932 0.863285 4.85573 0.828658 4.87542C0.81156 4.88514 0.797072 4.89385 0.786768 4.90096C0.782003 4.90425 0.77597 4.90865 0.770867 4.91367C0.768708 4.91579 0.763552 4.92103 0.759547 4.92879C0.756094 4.93549 0.74605 4.96009 0.764299 4.98377L0.764308 4.98379C0.776068 4.99904 1.05248 5.33868 1.37763 5.73748C1.63269 6.05029 1.77857 6.23214 1.85731 6.34043C1.89708 6.39513 1.91744 6.42803 1.92652 6.44808C1.92779 6.45088 1.92872 6.45315 1.92939 6.45497C1.76786 6.67945 1.74323 6.95991 1.88941 7.14874L1.88941 7.14875C1.99602 7.28642 2.2177 7.40439 2.45058 7.4568C2.78359 7.53174 3.27853 7.53132 3.79998 7.47323C4.32242 7.41502 4.87682 7.29833 5.33028 7.13741L5.31356 7.09029L5.33028 7.13741C5.36323 7.12572 5.51496 7.05882 5.75125 6.95272C5.9892 6.84589 6.31602 6.69786 6.70211 6.52222C7.47432 6.17095 8.48386 5.70915 9.49419 5.2454C10.5045 4.78165 11.5157 4.31593 12.2912 3.95681C13.065 3.59847 13.6074 3.34476 13.6769 3.30631ZM8.95695 3.49022L8.97834 3.50085L9.00005 3.49088L10.2444 2.91958C10.9297 2.60491 11.6007 2.30679 11.7369 2.2562C12.3732 2.0199 12.9845 2.00843 13.4312 2.21507C13.5175 2.25497 13.5977 2.30312 13.6556 2.34684C13.6847 2.3688 13.7068 2.38866 13.7212 2.40484C13.7278 2.4123 13.7319 2.41809 13.7343 2.42213C13.7338 2.42301 13.7333 2.42405 13.7327 2.42524C13.7288 2.43245 13.7222 2.44219 13.7124 2.45432C13.6929 2.47848 13.6641 2.50804 13.6284 2.54011C13.5571 2.60414 13.4629 2.67434 13.3726 2.72677C13.3491 2.74043 13.208 2.80806 12.9734 2.91827C12.7406 3.02763 12.4191 3.17742 12.038 3.35413C11.276 3.70756 10.2764 4.16861 9.27441 4.62922C8.27237 5.08983 7.26792 5.54998 6.49612 5.90161C5.72264 6.25401 5.18612 6.49589 5.11683 6.52166C4.80022 6.63936 4.36111 6.73886 3.9312 6.80049C3.50071 6.86221 3.08479 6.88517 2.81391 6.85237C2.74612 6.84416 2.67621 6.83353 2.61837 6.82306C2.55976 6.81245 2.51808 6.80278 2.50199 6.79686L2.62189 6.68653L2.62189 6.68653L2.80127 6.52153L2.83597 6.4896L2.80614 6.45309L2.26916 5.79585C2.12157 5.61521 1.98643 5.44836 1.88762 5.3251C1.8382 5.26345 1.79795 5.2128 1.7698 5.17683C1.76352 5.1688 1.75787 5.16153 1.75287 5.15507C1.75876 5.15152 1.7654 5.14764 1.77275 5.14347C1.81169 5.12135 1.86583 5.09366 1.92271 5.06644C1.97953 5.03926 2.03819 5.01299 2.08602 4.99363C2.10999 4.98393 2.13066 4.9762 2.14672 4.97098C2.15719 4.96758 2.1637 4.96594 2.1671 4.96515C2.17068 4.9662 2.17552 4.9677 2.18172 4.9697C2.19675 4.97454 2.21817 4.98179 2.24546 4.99127C2.29993 5.0102 2.37672 5.03765 2.47026 5.0716C2.65729 5.13949 2.91071 5.23316 3.18533 5.33622L4.18436 5.7112L4.20409 5.7186L4.22316 5.70965L5.23374 5.23551C5.78955 4.9747 6.43198 4.67438 6.66131 4.56806C6.77638 4.51471 6.88121 4.46416 6.95746 4.42565C6.9955 4.40643 7.0269 4.38998 7.04903 4.37756C7.05995 4.37143 7.06948 4.3658 7.07665 4.36103C7.08005 4.35877 7.08426 4.35582 7.08811 4.35248C7.08992 4.3509 7.09312 4.34799 7.09628 4.34396L7.09639 4.34382C7.09819 4.34153 7.10748 4.32975 7.10748 4.31197C7.10748 4.29918 7.10238 4.28985 7.1021 4.2893C7.10071 4.28652 7.09934 4.2844 7.09864 4.28336C7.09716 4.28113 7.09567 4.27922 7.09475 4.27808C7.09275 4.27558 7.09031 4.27276 7.08782 4.26995C7.08268 4.26418 7.07538 4.25628 7.06623 4.24657C7.04784 4.22705 7.02091 4.19903 6.98647 4.16358C6.91755 4.09261 6.81797 3.9912 6.6952 3.86692C6.44962 3.61832 6.11095 3.27786 5.73845 2.90553L5.7031 2.94089L5.73845 2.90553L4.46318 1.6309L4.6132 1.62258L4.61321 1.62258C4.67512 1.61915 4.72622 1.61507 4.77088 1.61151C4.8388 1.6061 4.89183 1.60188 4.94538 1.60288C5.02915 1.60444 5.11052 1.61935 5.24205 1.66879C5.45775 1.74986 5.7985 1.9197 6.48605 2.2624C6.65178 2.345 6.83766 2.43765 7.04679 2.54151L8.95695 3.49022ZM2.16189 4.96372L2.16204 4.96376L2.16189 4.96372Z" fill="#353945" stroke="#353945" stroke-width="0.1"/>
</svg>
