<svg width="33" height="34" viewBox="0 0 33 34" fill="none" xmlns="http://www.w3.org/2000/svg">
<circle cx="16.1651" cy="16.837" r="16.1651" fill="#E6E8EC"/>
<path fill-rule="evenodd" clip-rule="evenodd" d="M16.748 12.2067C16.4165 12.5034 15.915 12.5034 15.5835 12.2067L15.0013 11.6856C14.3823 11.1316 13.5692 10.7968 12.6737 10.7968C10.745 10.7968 9.18159 12.3603 9.18159 14.2889C9.18159 16.9983 10.8748 19.1696 12.8914 20.7828C13.8765 21.5708 14.871 22.1686 15.6233 22.5698C15.9625 22.7507 16.369 22.7507 16.7082 22.5698C17.4605 22.1686 18.455 21.5708 19.4401 20.7827C21.4567 19.1695 23.1499 16.9985 23.1499 14.289C23.1499 12.3604 21.5864 10.7968 19.6578 10.7968C18.7623 10.7968 17.9492 11.1316 17.3302 11.6856L16.748 12.2067ZM16.1657 10.3846C15.239 9.55513 14.0152 9.05078 12.6737 9.05078C9.78073 9.05078 7.43555 11.396 7.43555 14.2889C7.43555 20.1218 13.5249 23.519 15.5324 24.4805C15.9367 24.6742 16.3948 24.6742 16.7991 24.4805C18.8066 23.5191 24.8959 20.122 24.8959 14.289C24.8959 11.3961 22.5508 9.05078 19.6578 9.05078C18.3162 9.05078 17.0925 9.55513 16.1657 10.3846Z" fill="#777E91"/>
</svg>
