<svg width="31" height="24" viewBox="0 0 31 24" fill="none" xmlns="http://www.w3.org/2000/svg">
<path fill-rule="evenodd" clip-rule="evenodd" d="M15.3722 6.25231L14.956 6.58526L14.9341 9.26897L14.9121 11.9527L13.0612 12.0255C12.0432 12.0656 11.1099 12.147 10.9871 12.2063C10.4859 12.4485 10.4456 12.8381 10.4115 17.7793L10.3779 22.6348L9.73103 22.6766C9.07165 22.7192 8.85218 22.9176 9.00978 23.3285C9.07984 23.5109 10.3808 23.5366 19.558 23.5366H30.0265L29.9826 23.1551C29.9446 22.8238 29.8702 22.7679 29.4185 22.7306L28.8983 22.6874V17.714V12.7404L28.4714 12.3812C28.0587 12.0338 27.9833 12.0221 26.1824 12.0221H24.3202V9.3357V6.64949L23.9545 6.28366L23.5887 5.91797L19.6886 5.91866L15.7884 5.91936L15.3722 6.25231ZM23.4543 14.762L23.4901 22.7042H22.3791H21.2682V20.9701V19.236H19.6728H18.0774V20.7506C18.0774 21.5837 18.0395 22.364 17.9932 22.4847C17.9262 22.6592 17.6845 22.7042 16.814 22.7042H15.719V14.8937C15.719 8.94712 15.7592 7.04306 15.8877 6.9146C16.0135 6.78877 16.9907 6.75534 19.7374 6.78281L23.4185 6.81971L23.4543 14.762ZM16.7879 8.08603C16.6074 8.26651 16.6753 10.3235 16.8635 10.3771C16.959 10.4043 17.4739 10.4267 18.008 10.4267H18.9791V9.24747V8.06827L17.9324 8.02832C17.3567 8.00626 16.8417 8.03234 16.7879 8.08603ZM20.3248 8.16538C20.0974 8.39276 20.1031 10.1679 20.3317 10.3096C20.5887 10.4687 22.281 10.4767 22.482 10.32C22.6621 10.1793 22.728 8.62693 22.5712 8.21838C22.5052 8.04635 22.2712 7.99891 21.4892 7.99891C20.898 7.99891 20.4234 8.06674 20.3248 8.16538ZM18.3549 9.25621C18.3549 9.80863 18.3458 9.81903 17.904 9.77644C17.5537 9.74273 17.443 9.66116 17.4075 9.41075C17.3342 8.89413 17.4821 8.69255 17.9344 8.69255C18.3335 8.69255 18.3549 8.72113 18.3549 9.25621ZM21.9355 9.28215C21.9779 9.79475 21.9712 9.80238 21.4803 9.80238C20.9248 9.80238 20.7701 9.59263 20.9111 9.03063C20.987 8.72876 21.067 8.68215 21.4463 8.71877C21.8525 8.75803 21.8963 8.80853 21.9355 9.28215ZM16.7192 12.7504L16.7595 13.8949H17.8693H18.9791L19.0194 12.7504L19.0597 11.6059H17.8693H16.6789L16.7192 12.7504ZM20.2165 11.793C20.1771 11.8959 20.1633 12.411 20.1862 12.9375L20.2277 13.8949H21.4069H22.5861L22.6285 13.0683C22.7028 11.6245 22.6871 11.6059 21.4 11.6059C20.595 11.6059 20.2685 11.6575 20.2165 11.793ZM18.3549 12.7851C18.3549 13.2474 18.3317 13.2706 17.8693 13.2706C17.4069 13.2706 17.3837 13.2474 17.3837 12.7851C17.3837 12.3227 17.4069 12.2995 17.8693 12.2995C18.3317 12.2995 18.3549 12.3227 18.3549 12.7851ZM21.9618 12.7851C21.9618 13.2474 21.9386 13.2706 21.4763 13.2706C21.0139 13.2706 20.9907 13.2474 20.9907 12.7851C20.9907 12.3227 21.0139 12.2995 21.4763 12.2995C21.9386 12.2995 21.9618 12.3227 21.9618 12.7851ZM14.9062 16.4614C14.907 18.4071 14.9031 20.6076 14.8972 21.3516L14.8866 22.7042H13.0831C12.0912 22.7042 11.2727 22.6573 11.2643 22.6001C11.2558 22.543 11.2272 20.4428 11.2006 17.933C11.1698 15.0307 11.2032 13.2746 11.2924 13.1082C11.4201 12.8694 11.5865 12.8497 13.1685 12.8851L14.9044 12.9238L14.9062 16.4614ZM28.033 17.814L28.0695 22.7042H26.1949H24.3202V17.8718C24.3202 15.2139 24.3636 12.9961 24.4166 12.9429C24.4696 12.8899 25.2969 12.8639 26.2548 12.8852L27.9965 12.9238L28.033 17.814ZM12.0319 13.8733C11.9925 13.9758 11.9789 14.522 12.0015 15.0871L12.0427 16.1146L12.8692 16.157C14.3098 16.2311 14.3317 16.2129 14.3317 14.9476C14.3317 13.6803 14.3386 13.6868 12.9981 13.6868C12.377 13.6868 12.0815 13.7438 12.0319 13.8733ZM25.1117 13.7739C25.0578 13.8277 25.0139 14.3596 25.0139 14.9559C25.0139 16.2118 25.0372 16.231 26.4763 16.157L27.3029 16.1146V14.9354V13.7562L26.2562 13.7162C25.6804 13.6942 25.1655 13.7202 25.1117 13.7739ZM13.6121 14.9007C13.6539 15.3331 13.6354 15.3516 13.1612 15.3516C12.6872 15.3516 12.667 15.3313 12.667 14.8573C12.667 14.3831 12.6854 14.3646 13.1178 14.4064C13.5143 14.4445 13.574 14.5042 13.6121 14.9007ZM26.6786 14.866C26.6786 15.3284 26.6554 15.3516 26.193 15.3516C25.7307 15.3516 25.7075 15.3284 25.7075 14.866C25.7075 14.4036 25.7307 14.3804 26.193 14.3804C26.6554 14.3804 26.6786 14.4036 26.6786 14.866ZM16.8635 15.1632C16.7456 15.2127 16.6901 15.5864 16.6901 16.3315C16.6901 17.6008 16.7115 17.6184 18.1526 17.5443L18.9791 17.5019V16.3227V15.1435L18.008 15.117C17.4739 15.1023 16.959 15.1231 16.8635 15.1632ZM20.3248 15.2406C20.2289 15.3364 20.1583 15.7955 20.1583 16.3227C20.1583 16.8498 20.2289 17.3089 20.3248 17.4047C20.4207 17.5006 20.8797 17.5712 21.4069 17.5712C21.9341 17.5712 22.3931 17.5006 22.489 17.4047C22.5876 17.3061 22.6555 16.8315 22.6555 16.2404C22.6555 15.4584 22.608 15.2243 22.436 15.1583C22.0442 15.0079 20.4971 15.0683 20.3248 15.2406ZM18.3549 16.3227C18.3549 16.8644 18.3433 16.8776 17.8693 16.8776C17.4115 16.8776 17.3837 16.8512 17.3837 16.4152C17.3837 15.8514 17.4584 15.7677 17.9618 15.7677C18.3279 15.7677 18.3549 15.8059 18.3549 16.3227ZM21.9355 16.3573C21.9776 16.8662 21.9681 16.8776 21.5004 16.8776C21.0812 16.8776 21.0151 16.829 20.9643 16.4836C20.8763 15.8834 20.9731 15.7478 21.4557 15.7947C21.8512 15.8331 21.8965 15.8862 21.9355 16.3573ZM12.0023 18.4326L12.0427 19.5828H13.1525H14.2623V18.473V17.3631L13.1121 17.3228L11.9619 17.2824L12.0023 18.4326ZM25.0139 18.4785V19.6634L26.1584 19.623L27.3029 19.5828L27.3431 18.4383L27.3835 17.2938H26.1986H25.0139V18.4785ZM13.6381 18.473C13.6381 18.9353 13.6149 18.9585 13.1525 18.9585C12.6901 18.9585 12.667 18.9353 12.667 18.473C12.667 18.0106 12.6901 17.9874 13.1525 17.9874C13.6149 17.9874 13.6381 18.0106 13.6381 18.473ZM26.6786 18.473C26.6786 18.9353 26.6554 18.9585 26.193 18.9585C25.7307 18.9585 25.7075 18.9353 25.7075 18.473C25.7075 18.0106 25.7307 17.9874 26.193 17.9874C26.6554 17.9874 26.6786 18.0106 26.6786 18.473ZM20.5447 21.2822L20.5842 22.7042H19.6925C18.6395 22.7042 18.6323 22.6943 18.6323 21.2475C18.6323 19.7887 18.6451 19.7708 19.6553 19.8195L20.5052 19.8602L20.5447 21.2822Z" fill="#777E91"/>
<path d="M4.74729 1.00348C4.47096 1.01574 4.21808 1.02836 4.03324 1.03882C3.94086 1.04405 3.86528 1.04875 3.8122 1.0526C3.78573 1.05453 3.76448 1.05626 3.74943 1.05778C3.742 1.05853 3.73545 1.05928 3.7303 1.06006C3.72784 1.06043 3.72477 1.06094 3.72173 1.06166C3.72028 1.062 3.7178 1.06262 3.71497 1.06363L3.71483 1.06368C3.71339 1.06418 3.70499 1.06711 3.69714 1.07438L4.74729 1.00348ZM4.74729 1.00348L4.7495 1.05343L16.8173 2.87522L16.8653 2.88937C16.8653 2.88937 16.8653 2.88937 16.8653 2.88936C16.9338 2.65696 16.9081 2.44206 16.786 2.24974C16.6652 2.05949 16.4531 1.89586 16.1572 1.75666L16.1359 1.80191L16.1572 1.75666C15.8031 1.59016 15.5382 1.52704 15.1131 1.50704L15.1108 1.55698L15.1131 1.50704C14.6949 1.48738 14.4165 1.51874 13.9613 1.63613L13.9738 1.68454L13.9613 1.63613C13.5802 1.73444 13.294 1.85462 11.8464 2.52098L11.8668 2.56531L11.8464 2.52098L10.6268 3.08238L8.48446 2.02404L6.32075 0.955172L6.30989 0.94981L6.29779 0.950007L6.02542 0.954421L6.02623 1.00441L6.02542 0.954421C5.87475 0.95687 5.29944 0.978951 4.74729 1.00348ZM7.20223 4.65862L6.43939 3.89975L6.47364 3.86532L6.43939 3.89974C5.992 3.45463 5.18849 2.65602 4.65385 2.12505C4.38642 1.85945 4.14482 1.61644 3.97097 1.43887C3.88409 1.35012 3.81396 1.27754 3.76596 1.22661C3.74202 1.20121 3.72324 1.18083 3.71056 1.16639C3.70434 1.1593 3.69892 1.1529 3.69498 1.14774C3.69321 1.14542 3.69054 1.14181 3.68823 1.13776C3.68729 1.13611 3.68473 1.13155 3.68298 1.1254C3.68212 1.12238 3.68059 1.11607 3.68112 1.10801C3.68169 1.09942 3.68497 1.08569 3.69707 1.07445L7.20223 4.65862ZM7.20223 4.65862L6.12491 5.16354L5.00198 5.68985L7.20223 4.65862ZM10.5847 3.89766L10.6061 3.90829L10.6278 3.89832L12.0795 3.23183C12.8788 2.86481 13.662 2.51685 13.8213 2.45769C14.5649 2.18152 15.2805 2.16767 15.8043 2.40996C15.9053 2.45672 15.9995 2.51319 16.0676 2.56459C16.1017 2.5904 16.128 2.61394 16.1452 2.63339C16.1539 2.64313 16.1592 2.65078 16.1622 2.65624C16.1628 2.65722 16.1632 2.65804 16.1635 2.65872C16.1629 2.66038 16.1617 2.66299 16.1598 2.66667C16.1549 2.67569 16.1469 2.68748 16.1353 2.70186C16.1122 2.73052 16.0782 2.76533 16.0363 2.80291C15.9528 2.87796 15.8424 2.9602 15.7366 3.02168C15.7087 3.03785 15.5436 3.11698 15.2702 3.24542C14.9987 3.37301 14.6235 3.54776 14.179 3.75392C13.29 4.16624 12.1238 4.70411 10.9548 5.24147C9.78586 5.77882 8.61404 6.31565 7.71364 6.72587C6.81156 7.13687 6.18519 7.41926 6.10398 7.44945C5.73387 7.58705 5.22098 7.70324 4.71909 7.77518C4.21663 7.84721 3.73056 7.87412 3.41346 7.83573C3.33422 7.82613 3.2525 7.81371 3.18486 7.80147C3.11539 7.78889 3.06548 7.77731 3.04662 7.77012L3.03502 7.76569L3.18481 7.62786L3.18481 7.62785L3.39408 7.43536L3.42878 7.40344L3.39895 7.36692L2.7725 6.60018C2.6003 6.38942 2.44263 6.19476 2.32734 6.05093C2.26967 5.979 2.2227 5.91989 2.18983 5.87788C2.18001 5.86533 2.1715 5.85437 2.16438 5.8451C2.17317 5.83963 2.18365 5.83343 2.19572 5.82658C2.24138 5.80065 2.30473 5.76825 2.37119 5.73646C2.43757 5.7047 2.50617 5.67397 2.56217 5.6513C2.59023 5.63994 2.61454 5.63085 2.63354 5.62468C2.64768 5.62009 2.65613 5.61806 2.66017 5.61722C2.66461 5.61848 2.671 5.62044 2.6795 5.62318C2.69713 5.62886 2.72218 5.63734 2.75403 5.64841C2.81764 5.67051 2.90726 5.70254 3.0164 5.74216C3.23463 5.82136 3.5303 5.93066 3.85069 6.0509L5.01617 6.48835L5.0359 6.49576L5.05498 6.4868L6.23393 5.93366C6.88235 5.6294 7.63183 5.27903 7.89939 5.15499C8.03358 5.09278 8.15578 5.03385 8.24463 4.98897C8.28897 4.96658 8.32547 4.94745 8.35113 4.93304C8.36382 4.92592 8.37472 4.91947 8.38282 4.91409C8.38669 4.91152 8.39125 4.90831 8.39534 4.90476C8.39727 4.90308 8.40056 4.90007 8.40378 4.89597L8.40389 4.89583C8.40574 4.89349 8.41507 4.88164 8.41507 4.86379C8.41507 4.85098 8.40996 4.84164 8.40967 4.84106C8.40827 4.83826 8.40688 4.83611 8.40616 4.83503C8.40462 4.83272 8.40306 4.83072 8.40205 4.82945C8.39985 4.82671 8.39712 4.82355 8.39424 4.82031C8.38833 4.81367 8.37987 4.80452 8.36922 4.79321C8.34781 4.77048 8.31642 4.73783 8.27626 4.69648C8.19587 4.61371 8.07972 4.49543 7.9365 4.35044C7.65002 4.06044 7.25493 3.66326 6.82038 3.22891L5.31945 1.72873L5.51308 1.718L5.51309 1.71799C5.58471 1.71402 5.64413 1.70929 5.69622 1.70514C5.77588 1.6988 5.8384 1.69382 5.90122 1.69499C6.00013 1.69684 6.096 1.7145 6.2501 1.77242C6.50218 1.86716 6.90024 2.06557 7.7024 2.4654C7.8957 2.56174 8.11246 2.66978 8.3563 2.79089L10.5847 3.89766ZM2.14058 5.81311C2.14023 5.81255 2.14032 5.81264 2.14067 5.81324L2.14058 5.81311ZM2.65564 5.61601L2.65574 5.61603L2.65564 5.61601Z" fill="#777E91" stroke="#777E91" stroke-width="0.1"/>
</svg>
