<svg width="33" height="34" viewBox="0 0 33 34" fill="none" xmlns="http://www.w3.org/2000/svg">
<circle cx="16.6651" cy="16.837" r="16.1651" fill="#E6E8EC"/>
<path fill-rule="evenodd" clip-rule="evenodd" d="M17.248 12.2067C16.9165 12.5034 16.415 12.5034 16.0835 12.2067L15.5013 11.6856C14.8823 11.1316 14.0692 10.7968 13.1737 10.7968C11.245 10.7968 9.68159 12.3603 9.68159 14.2889C9.68159 16.9983 11.3748 19.1696 13.3914 20.7828C14.3765 21.5708 15.371 22.1686 16.1233 22.5698C16.4625 22.7507 16.869 22.7507 17.2082 22.5698C17.9605 22.1686 18.955 21.5708 19.9401 20.7827C21.9567 19.1695 23.6499 16.9985 23.6499 14.289C23.6499 12.3604 22.0864 10.7968 20.1578 10.7968C19.2623 10.7968 18.4492 11.1316 17.8302 11.6856L17.248 12.2067ZM16.6657 10.3846C15.739 9.55513 14.5152 9.05078 13.1737 9.05078C10.2807 9.05078 7.93555 11.396 7.93555 14.2889C7.93555 20.1218 14.0249 23.519 16.0324 24.4805C16.4367 24.6742 16.8948 24.6742 17.2991 24.4805C19.3066 23.5191 25.3959 20.122 25.3959 14.289C25.3959 11.3961 23.0508 9.05078 20.1578 9.05078C18.8162 9.05078 17.5925 9.55513 16.6657 10.3846Z" fill="#777E91"/>
</svg>
