<svg width="31" height="31" viewBox="0 0 31 31" fill="none" xmlns="http://www.w3.org/2000/svg">
<path fill-rule="evenodd" clip-rule="evenodd" d="M4.10822 18.1716C1.97216 18.1775 0.593284 20.5324 1.90923 22.3165C3.7938 24.8714 7.21123 26.9219 12.9165 26.9219C21.7581 26.9219 28.8553 19.949 27.8618 11.7108L29.3174 8.8935C30.3268 6.93973 28.5727 4.71715 26.3593 5.14555L24.4363 5.51774C23.9265 5.25741 23.3988 5.06096 22.9479 4.91864C22.069 4.64127 21.0053 4.42188 20.0207 4.42188C18.252 4.42188 16.7255 4.86101 15.5124 5.74179C14.3131 6.61268 13.6376 7.75719 13.2668 8.80819C13.096 9.29264 12.9822 9.77855 12.9091 10.2449C12.2229 10.0359 11.5232 9.7547 10.8382 9.41131C9.28405 8.63227 8.02733 7.64465 7.31839 6.77876C6.12899 5.326 3.60838 5.43371 2.72387 7.32214C1.47723 9.98371 1.8192 13.1387 2.93977 15.688C3.31536 16.5424 3.80394 17.387 4.40083 18.1697C4.29865 18.1709 4.20089 18.1714 4.10822 18.1716ZM12.9164 24.4219C7.92627 24.4219 5.34594 22.6727 4.01171 20.864C3.95177 20.7827 4.01222 20.6719 4.11538 20.6716C5.47272 20.6679 8.25884 20.6058 10.0964 19.565C10.1914 19.5111 10.1705 19.3755 10.0661 19.3416C5.78273 17.9479 3.3479 12.0451 5.07664 8.35425C5.11628 8.26962 5.23383 8.25846 5.29346 8.3313C7.26825 10.7434 11.586 13.1059 15.3427 13.1705C15.4242 13.1719 15.4858 13.1003 15.4734 13.0223C15.322 12.0725 14.744 6.92188 20.0206 6.92188C21.2806 6.92188 23.1553 7.51666 23.8459 8.126C23.8778 8.15416 23.921 8.16695 23.9634 8.15875L26.8658 7.597C26.9712 7.5766 27.0547 7.68244 27.0067 7.77547L25.2065 11.2596C25.194 11.2838 25.1901 11.3116 25.1949 11.3382C26.4557 18.1969 20.6509 24.4219 12.9164 24.4219Z" fill="#B1B5C4"/>
</svg>
