<svg width="18" height="18" viewBox="0 0 18 18" fill="none" xmlns="http://www.w3.org/2000/svg">
<path fill-rule="evenodd" clip-rule="evenodd" d="M14.2141 14.9861C14.6076 14.9861 14.9265 14.6671 14.9265 14.2737C14.9265 13.8803 14.6076 13.5614 14.2141 13.5614C13.8207 13.5614 13.5018 13.8803 13.5018 14.2737C13.5018 14.6671 13.8207 14.9861 14.2141 14.9861ZM14.2141 16.4107C15.3944 16.4107 16.3512 15.454 16.3512 14.2737C16.3512 13.0935 15.3944 12.1367 14.2141 12.1367C13.0339 12.1367 12.0771 13.0935 12.0771 14.2737C12.0771 15.454 13.0339 16.4107 14.2141 16.4107Z" fill="#777E91"/>
<path fill-rule="evenodd" clip-rule="evenodd" d="M11.7211 3.58482C10.7376 3.58482 9.9403 4.38213 9.9403 5.36566V13.2013C9.9403 14.9717 8.50515 16.4068 6.7348 16.4068C4.96445 16.4068 3.5293 14.9717 3.5293 13.2013V7.85883C3.5293 7.46542 3.84822 7.14649 4.24163 7.14649C4.63504 7.14649 4.95396 7.46542 4.95396 7.85883V13.2013C4.95396 14.1849 5.75127 14.9822 6.7348 14.9822C7.71833 14.9822 8.51563 14.1849 8.51563 13.2013V5.36566C8.51563 3.59531 9.95079 2.16016 11.7211 2.16016C13.4915 2.16016 14.9266 3.59531 14.9266 5.36566V9.99583C14.9266 10.3892 14.6077 10.7082 14.2143 10.7082C13.8209 10.7082 13.502 10.3892 13.502 9.99583V5.36566C13.502 4.38213 12.7047 3.58482 11.7211 3.58482Z" fill="#777E91"/>
<path d="M3.62647 2.50575C3.90134 2.03454 4.58219 2.03454 4.85706 2.50575L6.11003 4.6537C6.38705 5.12858 6.04451 5.72496 5.49473 5.72496H2.9888C2.43902 5.72496 2.09648 5.12858 2.3735 4.6537L3.62647 2.50575Z" fill="#777E91"/>
</svg>
