<svg width="14" height="18" viewBox="0 0 14 18" fill="none" xmlns="http://www.w3.org/2000/svg">
<g clip-path="url(#clip0_815_11747)">
<path fill-rule="evenodd" clip-rule="evenodd" d="M9.22448 9.28795C6.4706 9.28795 4.23814 11.5204 4.23814 14.2743V15.699C4.23814 16.0924 3.91922 16.4113 3.52581 16.4113C3.1324 16.4113 2.81348 16.0924 2.81348 15.699V14.2743C2.81348 10.7336 5.68378 7.86328 9.22448 7.86328C12.7652 7.86328 15.6355 10.7336 15.6355 14.2743V15.699C15.6355 16.0924 15.3166 16.4113 14.9232 16.4113C14.5297 16.4113 14.2108 16.0924 14.2108 15.699V14.2743C14.2108 11.5204 11.9784 9.28795 9.22448 9.28795Z" fill="#777E91"/>
<path fill-rule="evenodd" clip-rule="evenodd" d="M9.22517 7.86552C10.7988 7.86552 12.0745 6.58983 12.0745 5.01619C12.0745 3.44255 10.7988 2.16685 9.22517 2.16685C7.65153 2.16685 6.37584 3.44255 6.37584 5.01619C6.37584 6.58983 7.65153 7.86552 9.22517 7.86552ZM9.22517 9.29019C11.5856 9.29019 13.4992 7.37666 13.4992 5.01619C13.4992 2.65572 11.5856 0.742188 9.22517 0.742188C6.86471 0.742188 4.95117 2.65572 4.95117 5.01619C4.95117 7.37666 6.86471 9.29019 9.22517 9.29019Z" fill="#777E91"/>
</g>
<defs>
<clipPath id="clip0_815_11747">
<rect width="17.096" height="17.096" fill="white" transform="translate(0.676758 0.0273438)"/>
</clipPath>
</defs>
</svg>
