<svg width="18" height="18" viewBox="0 0 18 18" fill="none" xmlns="http://www.w3.org/2000/svg">
<path fill-rule="evenodd" clip-rule="evenodd" d="M14.2141 14.822C14.6076 14.822 14.9265 14.5031 14.9265 14.1097C14.9265 13.7162 14.6076 13.3973 14.2141 13.3973C13.8207 13.3973 13.5018 13.7162 13.5018 14.1097C13.5018 14.5031 13.8207 14.822 14.2141 14.822ZM14.2141 16.2467C15.3944 16.2467 16.3512 15.2899 16.3512 14.1097C16.3512 12.9294 15.3944 11.9727 14.2141 11.9727C13.0339 11.9727 12.0771 12.9294 12.0771 14.1097C12.0771 15.2899 13.0339 16.2467 14.2141 16.2467Z" fill="#777E91"/>
<path fill-rule="evenodd" clip-rule="evenodd" d="M11.7211 3.42076C10.7376 3.42076 9.9403 4.21807 9.9403 5.2016V13.0373C9.9403 14.8076 8.50515 16.2428 6.7348 16.2428C4.96445 16.2428 3.5293 14.8076 3.5293 13.0373V7.69476C3.5293 7.30135 3.84822 6.98243 4.24163 6.98243C4.63504 6.98243 4.95396 7.30135 4.95396 7.69476V13.0373C4.95396 14.0208 5.75127 14.8181 6.7348 14.8181C7.71833 14.8181 8.51563 14.0208 8.51563 13.0373V5.2016C8.51563 3.43125 9.95079 1.99609 11.7211 1.99609C13.4915 1.99609 14.9266 3.43125 14.9266 5.2016V9.83177C14.9266 10.2252 14.6077 10.5441 14.2143 10.5441C13.8209 10.5441 13.502 10.2252 13.502 9.83177V5.2016C13.502 4.21807 12.7047 3.42076 11.7211 3.42076Z" fill="#777E91"/>
<path d="M3.62647 2.34169C3.90134 1.87048 4.58219 1.87048 4.85706 2.34169L6.11003 4.48964C6.38705 4.96452 6.04451 5.5609 5.49473 5.5609H2.9888C2.43902 5.5609 2.09648 4.96452 2.3735 4.48964L3.62647 2.34169Z" fill="#777E91"/>
</svg>
