<svg width="18" height="18" viewBox="0 0 18 18" fill="none" xmlns="http://www.w3.org/2000/svg">
<path fill-rule="evenodd" clip-rule="evenodd" d="M13.9495 14.822C14.3429 14.822 14.6618 14.5031 14.6618 14.1097C14.6618 13.7162 14.3429 13.3973 13.9495 13.3973C13.5561 13.3973 13.2372 13.7162 13.2372 14.1097C13.2372 14.5031 13.5561 14.822 13.9495 14.822ZM13.9495 16.2467C15.1297 16.2467 16.0865 15.2899 16.0865 14.1097C16.0865 12.9294 15.1297 11.9727 13.9495 11.9727C12.7693 11.9727 11.8125 12.9294 11.8125 14.1097C11.8125 15.2899 12.7693 16.2467 13.9495 16.2467Z" fill="#777E91"/>
<path fill-rule="evenodd" clip-rule="evenodd" d="M11.4565 3.42076C10.473 3.42076 9.67565 4.21807 9.67565 5.2016V13.0373C9.67565 14.8076 8.2405 16.2428 6.47015 16.2428C4.6998 16.2428 3.26465 14.8076 3.26465 13.0373V7.69476C3.26465 7.30135 3.58357 6.98243 3.97698 6.98243C4.37039 6.98243 4.68932 7.30135 4.68932 7.69476V13.0373C4.68932 14.0208 5.48662 14.8181 6.47015 14.8181C7.45368 14.8181 8.25098 14.0208 8.25098 13.0373V5.2016C8.25098 3.43125 9.68614 1.99609 11.4565 1.99609C13.2268 1.99609 14.662 3.43125 14.662 5.2016V9.83177C14.662 10.2252 14.3431 10.5441 13.9497 10.5441C13.5562 10.5441 13.2373 10.2252 13.2373 9.83177V5.2016C13.2373 4.21807 12.44 3.42076 11.4565 3.42076Z" fill="#777E91"/>
<path d="M3.36182 2.34169C3.63669 1.87048 4.31754 1.87048 4.59242 2.34169L5.84539 4.48964C6.1224 4.96452 5.77986 5.5609 5.23009 5.5609H2.72415C2.17438 5.5609 1.83184 4.96452 2.10885 4.48964L3.36182 2.34169Z" fill="#777E91"/>
</svg>
