<svg width="14" height="18" viewBox="0 0 14 18" fill="none" xmlns="http://www.w3.org/2000/svg">
<g clip-path="url(#clip0_815_11689)">
<path fill-rule="evenodd" clip-rule="evenodd" d="M9.48913 9.45201C6.73525 9.45201 4.50279 11.6845 4.50279 14.4383V15.863C4.50279 16.2564 4.18387 16.5753 3.79046 16.5753C3.39705 16.5753 3.07812 16.2564 3.07812 15.863V14.4383C3.07812 10.8976 5.94843 8.02734 9.48913 8.02734C13.0298 8.02734 15.9001 10.8976 15.9001 14.4383V15.863C15.9001 16.2564 15.5812 16.5753 15.1878 16.5753C14.7944 16.5753 14.4755 16.2564 14.4755 15.863V14.4383C14.4755 11.6845 12.243 9.45201 9.48913 9.45201Z" fill="#777E91"/>
<path fill-rule="evenodd" clip-rule="evenodd" d="M9.48982 8.02959C11.0635 8.02959 12.3392 6.7539 12.3392 5.18025C12.3392 3.60661 11.0635 2.33092 9.48982 2.33092C7.91618 2.33092 6.64049 3.60661 6.64049 5.18025C6.64049 6.7539 7.91618 8.02959 9.48982 8.02959ZM9.48982 9.45425C11.8503 9.45425 13.7638 7.54072 13.7638 5.18025C13.7638 2.81979 11.8503 0.90625 9.48982 0.90625C7.12936 0.90625 5.21582 2.81979 5.21582 5.18025C5.21582 7.54072 7.12936 9.45425 9.48982 9.45425Z" fill="#777E91"/>
</g>
<defs>
<clipPath id="clip0_815_11689">
<rect width="17.096" height="17.096" fill="white" transform="translate(0.941406 0.191406)"/>
</clipPath>
</defs>
</svg>
