<svg width="29" height="31" viewBox="0 0 29 31" fill="none" xmlns="http://www.w3.org/2000/svg">
<path fill-rule="evenodd" clip-rule="evenodd" d="M19.3337 5.67188H9.66699C6.99761 5.67188 4.83366 7.91045 4.83366 10.6719V20.6719C4.83366 23.4333 6.99761 25.6719 9.66699 25.6719H19.3337C22.003 25.6719 24.167 23.4333 24.167 20.6719V10.6719C24.167 7.91045 22.003 5.67188 19.3337 5.67188ZM9.66699 3.17188C5.66293 3.17188 2.41699 6.52974 2.41699 10.6719V20.6719C2.41699 24.814 5.66293 28.1719 9.66699 28.1719H19.3337C23.3377 28.1719 26.5837 24.814 26.5837 20.6719V10.6719C26.5837 6.52974 23.3377 3.17188 19.3337 3.17188H9.66699Z" fill="#B1B5C4"/>
<path d="M20.5413 10.6719C21.2087 10.6719 21.7497 10.1122 21.7497 9.42188C21.7497 8.73152 21.2087 8.17188 20.5413 8.17188C19.874 8.17188 19.333 8.73152 19.333 9.42188C19.333 10.1122 19.874 10.6719 20.5413 10.6719Z" fill="#B1B5C4"/>
<path fill-rule="evenodd" clip-rule="evenodd" d="M20.5413 15.6719C20.5413 19.1236 17.8364 21.9219 14.4997 21.9219C11.163 21.9219 8.45801 19.1236 8.45801 15.6719C8.45801 12.2201 11.163 9.42188 14.4997 9.42188C17.8364 9.42188 20.5413 12.2201 20.5413 15.6719ZM18.1247 15.6719C18.1247 17.743 16.5018 19.4219 14.4997 19.4219C12.4976 19.4219 10.8747 17.743 10.8747 15.6719C10.8747 13.6007 12.4976 11.9219 14.4997 11.9219C16.5018 11.9219 18.1247 13.6007 18.1247 15.6719Z" fill="#B1B5C4"/>
</svg>
