<svg width="22" height="21" viewBox="0 0 22 21" fill="none" xmlns="http://www.w3.org/2000/svg">
<path fill-rule="evenodd" clip-rule="evenodd" d="M15.0018 14.2139C16.2274 12.5126 17.0654 10.6427 17.0654 8.75C17.0654 5.36726 14.3232 2.625 10.9404 2.625C7.55768 2.625 4.81543 5.36726 4.81543 8.75C4.81543 10.6427 5.65341 12.5126 6.87909 14.2139C8.09552 15.9024 9.5913 17.2815 10.6577 18.1549C10.8326 18.2982 11.0482 18.2982 11.2232 18.1549C12.2896 17.2815 13.7853 15.9024 15.0018 14.2139ZM12.332 19.5088C14.5932 17.6567 18.8154 13.5552 18.8154 8.75C18.8154 4.40076 15.2897 0.875 10.9404 0.875C6.59119 0.875 3.06543 4.40076 3.06543 8.75C3.06543 13.5552 7.28763 17.6567 9.54884 19.5088C10.3687 20.1802 11.5122 20.1802 12.332 19.5088Z" fill="#777E91"/>
<path fill-rule="evenodd" clip-rule="evenodd" d="M10.9404 7C9.97393 7 9.19043 7.7835 9.19043 8.75C9.19043 9.7165 9.97393 10.5 10.9404 10.5C11.9069 10.5 12.6904 9.7165 12.6904 8.75C12.6904 7.7835 11.9069 7 10.9404 7ZM7.44043 8.75C7.44043 6.817 9.00743 5.25 10.9404 5.25C12.8734 5.25 14.4404 6.817 14.4404 8.75C14.4404 10.683 12.8734 12.25 10.9404 12.25C9.00743 12.25 7.44043 10.683 7.44043 8.75Z" fill="#777E91"/>
</svg>
