<svg width="17" height="16" viewBox="0 0 17 16" fill="none" xmlns="http://www.w3.org/2000/svg">
<path d="M7.88772 2.08612C8.11932 1.54942 8.88033 1.54942 9.11193 2.08612L10.5653 5.45404C10.6634 5.6813 10.8793 5.83552 11.126 5.85459L14.8531 6.14258C15.4511 6.18879 15.6887 6.9395 15.2262 7.32136L12.4233 9.63554C12.2256 9.79877 12.139 10.0609 12.2006 10.3098L13.0632 13.7953C13.2051 14.3685 12.5867 14.8296 12.0779 14.53L8.83804 12.6227C8.62931 12.4998 8.37034 12.4998 8.16161 12.6227L4.92179 14.53C4.41292 14.8296 3.79457 14.3685 3.93643 13.7953L4.79905 10.3098C4.86065 10.0609 4.77406 9.79877 4.57636 9.63554L1.77344 7.32136C1.31093 6.9395 1.54853 6.18879 2.14652 6.14258L5.87362 5.85459C6.1204 5.83552 6.3363 5.6813 6.43437 5.45404L7.88772 2.08612Z" fill="#FCFCFD"/>
</svg>
