<svg width="18" height="18" viewBox="0 0 18 18" fill="none" xmlns="http://www.w3.org/2000/svg">
<path fill-rule="evenodd" clip-rule="evenodd" d="M13.9495 14.9861C14.3429 14.9861 14.6618 14.6671 14.6618 14.2737C14.6618 13.8803 14.3429 13.5614 13.9495 13.5614C13.5561 13.5614 13.2372 13.8803 13.2372 14.2737C13.2372 14.6671 13.5561 14.9861 13.9495 14.9861ZM13.9495 16.4107C15.1297 16.4107 16.0865 15.454 16.0865 14.2737C16.0865 13.0935 15.1297 12.1367 13.9495 12.1367C12.7693 12.1367 11.8125 13.0935 11.8125 14.2737C11.8125 15.454 12.7693 16.4107 13.9495 16.4107Z" fill="#777E91"/>
<path fill-rule="evenodd" clip-rule="evenodd" d="M11.4565 3.58482C10.473 3.58482 9.67565 4.38213 9.67565 5.36566V13.2013C9.67565 14.9717 8.2405 16.4068 6.47015 16.4068C4.6998 16.4068 3.26465 14.9717 3.26465 13.2013V7.85883C3.26465 7.46542 3.58357 7.14649 3.97698 7.14649C4.37039 7.14649 4.68932 7.46542 4.68932 7.85883V13.2013C4.68932 14.1849 5.48662 14.9822 6.47015 14.9822C7.45368 14.9822 8.25098 14.1849 8.25098 13.2013V5.36566C8.25098 3.59531 9.68614 2.16016 11.4565 2.16016C13.2268 2.16016 14.662 3.59531 14.662 5.36566V9.99583C14.662 10.3892 14.3431 10.7082 13.9497 10.7082C13.5562 10.7082 13.2373 10.3892 13.2373 9.99583V5.36566C13.2373 4.38213 12.44 3.58482 11.4565 3.58482Z" fill="#777E91"/>
<path d="M3.36182 2.50575C3.63669 2.03454 4.31754 2.03454 4.59242 2.50575L5.84539 4.6537C6.1224 5.12858 5.77986 5.72496 5.23009 5.72496H2.72415C2.17438 5.72496 1.83184 5.12858 2.10885 4.6537L3.36182 2.50575Z" fill="#777E91"/>
</svg>
