<svg width="14" height="18" viewBox="0 0 14 18" fill="none" xmlns="http://www.w3.org/2000/svg">
<g clip-path="url(#clip0_809_11429)">
<path fill-rule="evenodd" clip-rule="evenodd" d="M9.48913 9.28795C6.73525 9.28795 4.50279 11.5204 4.50279 14.2743V15.699C4.50279 16.0924 4.18387 16.4113 3.79046 16.4113C3.39705 16.4113 3.07812 16.0924 3.07812 15.699V14.2743C3.07812 10.7336 5.94843 7.86328 9.48913 7.86328C13.0298 7.86328 15.9001 10.7336 15.9001 14.2743V15.699C15.9001 16.0924 15.5812 16.4113 15.1878 16.4113C14.7944 16.4113 14.4755 16.0924 14.4755 15.699V14.2743C14.4755 11.5204 12.243 9.28795 9.48913 9.28795Z" fill="#777E91"/>
<path fill-rule="evenodd" clip-rule="evenodd" d="M9.48982 7.86552C11.0635 7.86552 12.3392 6.58983 12.3392 5.01619C12.3392 3.44255 11.0635 2.16685 9.48982 2.16685C7.91618 2.16685 6.64049 3.44255 6.64049 5.01619C6.64049 6.58983 7.91618 7.86552 9.48982 7.86552ZM9.48982 9.29019C11.8503 9.29019 13.7638 7.37666 13.7638 5.01619C13.7638 2.65572 11.8503 0.742188 9.48982 0.742188C7.12936 0.742188 5.21582 2.65572 5.21582 5.01619C5.21582 7.37666 7.12936 9.29019 9.48982 9.29019Z" fill="#777E91"/>
</g>
<defs>
<clipPath id="clip0_809_11429">
<rect width="17.096" height="17.096" fill="white" transform="translate(0.941406 0.0273438)"/>
</clipPath>
</defs>
</svg>
