<svg width="14" height="18" viewBox="0 0 14 18" fill="none" xmlns="http://www.w3.org/2000/svg">
<g clip-path="url(#clip0_815_11718)">
<path fill-rule="evenodd" clip-rule="evenodd" d="M9.22448 9.45201C6.4706 9.45201 4.23814 11.6845 4.23814 14.4383V15.863C4.23814 16.2564 3.91922 16.5753 3.52581 16.5753C3.1324 16.5753 2.81348 16.2564 2.81348 15.863V14.4383C2.81348 10.8976 5.68378 8.02734 9.22448 8.02734C12.7652 8.02734 15.6355 10.8976 15.6355 14.4383V15.863C15.6355 16.2564 15.3166 16.5753 14.9232 16.5753C14.5297 16.5753 14.2108 16.2564 14.2108 15.863V14.4383C14.2108 11.6845 11.9784 9.45201 9.22448 9.45201Z" fill="#777E91"/>
<path fill-rule="evenodd" clip-rule="evenodd" d="M9.22517 8.02959C10.7988 8.02959 12.0745 6.7539 12.0745 5.18025C12.0745 3.60661 10.7988 2.33092 9.22517 2.33092C7.65153 2.33092 6.37584 3.60661 6.37584 5.18025C6.37584 6.7539 7.65153 8.02959 9.22517 8.02959ZM9.22517 9.45425C11.5856 9.45425 13.4992 7.54072 13.4992 5.18025C13.4992 2.81979 11.5856 0.90625 9.22517 0.90625C6.86471 0.90625 4.95117 2.81979 4.95117 5.18025C4.95117 7.54072 6.86471 9.45425 9.22517 9.45425Z" fill="#777E91"/>
</g>
<defs>
<clipPath id="clip0_815_11718">
<rect width="17.096" height="17.096" fill="white" transform="translate(0.676758 0.191406)"/>
</clipPath>
</defs>
</svg>
