<svg width="29" height="31" viewBox="0 0 29 31" fill="none" xmlns="http://www.w3.org/2000/svg">
<path fill-rule="evenodd" clip-rule="evenodd" d="M14.5003 25.6719C19.8391 25.6719 24.167 21.1948 24.167 15.6719C24.167 10.149 19.8391 5.67188 14.5003 5.67188C9.16157 5.67188 4.83366 10.149 4.83366 15.6719C4.83366 21.1948 9.16157 25.6719 14.5003 25.6719ZM14.5003 28.1719C21.1737 28.1719 26.5837 22.5754 26.5837 15.6719C26.5837 8.76831 21.1737 3.17188 14.5003 3.17188C7.82688 3.17188 2.41699 8.76831 2.41699 15.6719C2.41699 22.5754 7.82688 28.1719 14.5003 28.1719Z" fill="#B1B5C4"/>
<path d="M14.5003 13.1719C14.5003 12.4815 15.0413 11.9219 15.7087 11.9219H16.917C17.5844 11.9219 18.1253 11.3622 18.1253 10.6719C18.1253 9.98152 17.5844 9.42188 16.917 9.42188H15.7087C13.7066 9.42188 12.0837 11.1008 12.0837 13.1719V15.6719H10.8753C10.208 15.6719 9.66699 16.2315 9.66699 16.9219C9.66699 17.6122 10.208 18.1719 10.8753 18.1719H12.0837V25.6719C12.0837 26.3622 12.6246 26.9219 13.292 26.9219C13.9594 26.9219 14.5003 26.3622 14.5003 25.6719V18.1719H16.917C17.5844 18.1719 18.1253 17.6122 18.1253 16.9219C18.1253 16.2315 17.5844 15.6719 16.917 15.6719H14.5003V13.1719Z" fill="#B1B5C4"/>
</svg>
