<svg width="18" height="18" viewBox="0 0 18 18" fill="none" xmlns="http://www.w3.org/2000/svg">
<path d="M17.3595 0.905233C17.4654 0.919868 17.6797 1.39741 17.6869 1.63493C17.6914 1.78038 17.6142 2.32293 17.5637 2.50152C17.4721 2.82503 17.3811 3.08233 17.3485 3.10922C17.3308 3.12396 17.3122 3.16619 17.3074 3.20305C17.299 3.26702 17.1679 3.55127 17.0726 3.71222C17.0479 3.75394 17.0038 3.82909 16.9747 3.87922C16.8826 4.03797 16.6236 4.4179 16.5451 4.50948C16.5035 4.55797 16.4469 4.63513 16.4193 4.68098C16.3917 4.72683 16.3578 4.76283 16.344 4.76102C16.3302 4.75921 16.3169 4.77277 16.3145 4.79116C16.3095 4.82921 16.1517 5.00806 16.113 5.01952C16.0989 5.02369 16.0856 5.04098 16.0834 5.05798C16.0812 5.07495 15.9986 5.1716 15.8999 5.2727C15.8013 5.37384 15.6946 5.48606 15.6629 5.52208C15.6312 5.55814 15.5882 5.60197 15.5673 5.61954C15.5465 5.63707 15.4874 5.69741 15.4362 5.75362C15.3256 5.87494 15.3161 5.88441 15.1736 6.01346C15.113 6.06844 15.062 6.12204 15.0603 6.13255C15.0586 6.14305 15.024 6.18266 14.9835 6.22056C14.864 6.33207 14.858 6.33796 14.6482 6.54942C14.5376 6.6608 14.434 6.75511 14.4177 6.75896C14.4015 6.76285 14.3865 6.77913 14.3844 6.7952C14.3796 6.83178 14.1187 7.09735 14.0783 7.10679C14.0619 7.11066 14.0468 7.12633 14.0448 7.14163C14.0427 7.15696 13.9893 7.22809 13.9259 7.29973C13.8062 7.43518 13.7764 7.52425 13.8166 7.62604C13.8297 7.65898 13.8617 7.76226 13.8877 7.85558C13.9137 7.94891 14.0137 8.25627 14.1099 8.5386C14.2061 8.82094 14.2824 9.07004 14.2795 9.09212C14.2766 9.11423 14.2887 9.13419 14.3064 9.13651C14.324 9.13882 14.3365 9.1558 14.3341 9.17421C14.3317 9.19263 14.3596 9.30294 14.3962 9.41939C14.526 9.83265 14.5592 9.95115 14.5548 9.98464C14.5524 10.0033 14.5637 10.0203 14.58 10.0224C14.5962 10.0246 14.6134 10.0709 14.6181 10.1255C14.6228 10.1801 14.6399 10.2265 14.6562 10.2286C14.6725 10.2307 14.6838 10.2481 14.6813 10.2671C14.6788 10.2862 14.712 10.4119 14.7551 10.5465C14.7982 10.6812 14.8613 10.8832 14.8954 10.9956C14.9293 11.1079 14.9777 11.2581 15.0027 11.3294C15.0277 11.4007 15.0453 11.4802 15.0419 11.5062C15.0385 11.5322 15.0491 11.5552 15.0654 11.5573C15.0816 11.5594 15.0988 11.6058 15.1035 11.6604C15.1082 11.7149 15.1253 11.7613 15.1416 11.7635C15.1579 11.7656 15.1691 11.7829 15.1666 11.802C15.1641 11.821 15.1999 11.9545 15.2461 12.0985C15.2922 12.2425 15.3745 12.4986 15.4289 12.6675C15.5709 13.1088 15.6021 13.2186 15.5969 13.2585C15.5944 13.2779 15.6067 13.2957 15.6244 13.298C15.6421 13.3003 15.6543 13.3203 15.6515 13.3424C15.6456 13.388 15.8005 13.8349 15.8503 13.9161C15.8682 13.9454 15.8994 14.0231 15.9195 14.0886C15.9396 14.1542 15.9701 14.2524 15.9873 14.3068C16.0302 14.4423 15.9407 15.1254 15.8643 15.2453C15.8336 15.2934 15.7784 15.3804 15.7416 15.4385C15.5406 15.7556 15.0129 16.1925 14.801 16.217C14.755 16.2224 14.7157 16.2397 14.7136 16.2554C14.7076 16.3011 14.4384 16.2531 14.3262 16.1864C14.2057 16.1148 14.0681 15.9525 13.9191 15.7064C13.86 15.6088 13.7994 15.5107 13.7843 15.4884C13.7692 15.4661 13.7395 15.4127 13.7181 15.3696C13.6839 15.3005 13.6154 15.1761 13.5533 15.0699C13.5418 15.0504 13.4962 14.9782 13.4517 14.9095C13.4072 14.8407 13.3719 14.7746 13.3732 14.7625C13.3745 14.7505 13.3565 14.7159 13.3332 14.6855C13.2599 14.5902 13.1052 14.309 13.1092 14.2785C13.1113 14.2624 13.1008 14.2428 13.086 14.2349C13.0564 14.2191 12.8652 13.8948 12.8689 13.8667C12.8702 13.8572 12.8426 13.8132 12.8076 13.7691C12.7727 13.7249 12.712 13.6244 12.6727 13.5459C12.6335 13.4673 12.58 13.3719 12.5539 13.3338C12.4627 13.2008 12.3047 12.9334 12.307 12.916C12.3082 12.9063 12.2751 12.8501 12.2335 12.791C12.1918 12.732 12.1456 12.6629 12.1309 12.6375C12.1163 12.6121 12.0696 12.5353 12.0271 12.4668L11.8518 12.1833C11.6929 11.9258 11.1493 11.2401 11.099 11.2335C11.0821 11.2313 10.8547 10.9966 10.7449 10.868C10.6294 10.7328 10.5691 10.7207 10.4686 10.8123C10.4193 10.8572 10.3355 10.9324 10.2825 10.9794C10.2294 11.0264 10.1016 11.1494 9.99845 11.2527C9.89529 11.3561 9.80099 11.4467 9.7889 11.4541C9.77678 11.4615 9.69982 11.5324 9.61791 11.6115C9.53596 11.6907 9.45203 11.7698 9.43139 11.7873C9.41073 11.8048 9.32681 11.8815 9.24488 11.9578C9.16295 12.0342 9.03645 12.1482 8.96378 12.2112C8.89111 12.2742 8.78293 12.37 8.72338 12.424C8.66382 12.4779 8.40202 12.6886 8.14158 12.8921C7.78094 13.1738 7.63438 13.3109 7.52675 13.467C7.39417 13.6594 7.38301 13.6909 7.34611 13.9779C7.32445 14.1461 7.31751 14.3293 7.33061 14.385C7.34375 14.4406 7.37234 14.5989 7.39414 14.7366C7.41597 14.8743 7.44277 15.0176 7.45369 15.055C7.46464 15.0924 7.479 15.1899 7.4856 15.2717C7.49221 15.3535 7.5088 15.5175 7.52244 15.6361C7.53611 15.7548 7.55463 15.9485 7.56364 16.0666C7.58997 16.4112 7.60867 16.6035 7.62895 16.7371C7.64282 16.8286 7.63354 16.8941 7.59435 16.9816C7.56491 17.0473 7.53714 17.129 7.53266 17.1631C7.52417 17.2279 7.28718 17.5887 7.19984 17.6699C6.70733 18.1275 6.19367 18.0572 5.89578 17.4914C5.8634 17.4299 5.8387 17.3656 5.84092 17.3487C5.84314 17.3318 5.83475 17.3117 5.82225 17.3041C5.7891 17.2839 5.68126 17.0702 5.68598 17.0342C5.68821 17.0172 5.67982 16.9972 5.66732 16.9895C5.63284 16.9685 5.52642 16.755 5.53141 16.7169C5.53382 16.6985 5.52088 16.6815 5.50265 16.6792C5.48439 16.6768 5.46316 16.6482 5.45538 16.6157C5.44764 16.5833 5.43155 16.5407 5.41966 16.5211C5.40777 16.5016 5.31866 16.3431 5.2216 16.169C5.01399 15.7964 4.53835 15.1653 4.25165 14.8821C4.14021 14.772 4.04319 14.6703 4.03605 14.6561C4.02892 14.642 3.99185 14.616 3.95372 14.5984C3.91559 14.5808 3.88612 14.5529 3.88828 14.5364C3.89045 14.5199 3.87123 14.5036 3.84561 14.5003C3.81996 14.4969 3.7898 14.4746 3.77856 14.4506C3.75652 14.4037 3.68825 14.3519 3.29386 14.0827C2.87022 13.7936 2.62422 13.66 2.073 13.4197C1.94543 13.3641 1.82037 13.3038 1.79508 13.2857C1.76977 13.2675 1.68959 13.2344 1.61689 13.2121C1.54416 13.1898 1.47826 13.1573 1.47038 13.1398C1.46253 13.1224 1.42724 13.1043 1.39195 13.0997C1.20899 13.0757 0.91704 12.8053 0.840631 12.5891C0.797593 12.4672 0.841307 12.0981 0.904602 12.0495C0.929214 12.0306 0.951896 11.9957 0.955001 11.972C0.97172 11.8445 1.39034 11.509 1.66737 11.4012C1.84181 11.3332 1.9223 11.3231 2.18269 11.3359C2.35242 11.3443 2.65229 11.3575 2.84908 11.3653C3.04587 11.373 3.50798 11.418 3.87603 11.4654C4.56489 11.554 4.71287 11.5524 5.00848 11.4537C5.12368 11.4152 5.44157 11.1929 5.49311 11.1148C5.5078 11.0926 5.55316 11.0346 5.59386 10.9859C5.6346 10.9373 5.71911 10.8234 5.78168 10.7327C5.84424 10.642 5.9038 10.5615 5.91399 10.5538C5.92418 10.5462 5.97697 10.4722 6.03131 10.3894C6.08567 10.3066 6.13946 10.2327 6.15087 10.2253C6.18647 10.2019 6.26899 10.0976 6.32082 10.0105C6.34809 9.96461 6.38171 9.92857 6.3955 9.93038C6.40932 9.93219 6.42258 9.91863 6.42499 9.90024C6.42913 9.86861 6.57588 9.69492 6.62293 9.66594C6.63499 9.65853 6.65923 9.62123 6.67688 9.5831C6.6945 9.54497 6.7224 9.51551 6.73888 9.51767C6.75537 9.51983 6.77063 9.5082 6.77277 9.49184C6.77492 9.47544 7.03455 9.1674 7.34972 8.80732L7.92279 8.15258L7.83727 8.08095C7.79025 8.04153 7.75349 7.99627 7.75558 7.98033C7.75767 7.96439 7.74357 7.94926 7.72428 7.94674C7.70496 7.9442 7.65933 7.91246 7.62285 7.87623C7.58641 7.84 7.52703 7.78438 7.49094 7.75268C7.45485 7.72097 7.41101 7.67779 7.39347 7.65673C7.37597 7.63563 7.27502 7.54975 7.16913 7.46584C7.06325 7.38193 6.97062 7.30172 6.96331 7.28758C6.95598 7.27348 6.91168 7.24678 6.86483 7.22828C6.81798 7.20978 6.7812 7.18289 6.78308 7.16852C6.78497 7.15415 6.74436 7.12719 6.69285 7.1086C6.64135 7.09001 6.60095 7.06147 6.60308 7.04521C6.60522 7.02891 6.5871 7.013 6.56283 7.00982C6.53856 7.00664 6.45213 6.96468 6.37072 6.91657C6.28933 6.86847 6.17489 6.80125 6.11641 6.76723C6.05794 6.73318 5.98679 6.68829 5.9583 6.66745C5.92981 6.64659 5.89102 6.62751 5.87216 6.62503C5.85326 6.62256 5.77853 6.58356 5.70608 6.53836C5.63365 6.49313 5.4968 6.42069 5.40205 6.37734C5.30726 6.33399 5.23122 6.28701 5.23307 6.27297C5.23491 6.25892 5.2111 6.24403 5.18019 6.23988C5.14928 6.2357 5.08537 6.20525 5.0382 6.17223C4.99101 6.13917 4.936 6.10989 4.91596 6.10716C4.89588 6.1044 4.84333 6.07684 4.79913 6.04588C4.75497 6.01491 4.6722 5.9729 4.61521 5.95249C4.55825 5.93207 4.50558 5.90539 4.49819 5.89317C4.48262 5.8675 4.04943 5.64269 3.8783 5.57148C3.81433 5.54488 3.7637 5.51039 3.76574 5.49487C3.76777 5.47934 3.73689 5.46228 3.69714 5.45697C3.6574 5.45163 3.58625 5.42024 3.53909 5.38721C3.49189 5.35415 3.43688 5.32487 3.41684 5.32215C3.39677 5.31938 3.34421 5.29183 3.30001 5.26086C3.25585 5.2299 3.17678 5.18906 3.12431 5.17012C3.07183 5.15118 3.0224 5.12125 3.01445 5.1036C3.00653 5.08596 2.97561 5.06785 2.9458 5.06332C2.91599 5.05879 2.8374 5.01958 2.77117 4.97615C2.70493 4.93271 2.63271 4.89434 2.61071 4.89084C2.58867 4.88733 2.57257 4.87001 2.57488 4.85233C2.5772 4.83466 2.55538 4.81708 2.52635 4.81328C2.49733 4.80947 2.41905 4.73323 2.3524 4.64384C2.22563 4.47385 2.21866 4.42776 2.27432 4.12635C2.30091 3.98232 2.5641 3.54315 2.61948 3.55041C2.63462 3.55239 2.64945 3.53527 2.65246 3.51232C2.65932 3.45996 2.74457 3.37332 2.95421 3.20568C3.17386 3.03004 3.49086 2.87997 3.60939 2.89551C3.64128 2.89969 3.68694 2.88808 3.71086 2.86971C3.76732 2.82633 4.36896 2.90343 4.4634 2.96613C4.5677 3.03542 5.05553 3.18306 5.84075 3.3831C5.98866 3.42076 6.1729 3.47431 6.25018 3.50209C6.38775 3.55154 6.65806 3.62467 7.19741 3.75841C7.34544 3.79514 7.51539 3.84547 7.57508 3.8703C7.63476 3.89512 7.81889 3.94954 7.98425 3.99119C8.27254 4.06383 8.57837 4.1476 9.26248 4.34128C9.43587 4.39036 9.69151 4.46039 9.83058 4.4969C9.96965 4.53341 10.1179 4.58112 10.16 4.60295C10.2021 4.62478 10.3602 4.66837 10.5115 4.69984C10.6628 4.7313 10.8338 4.77442 10.8916 4.79566C10.9567 4.81956 11.014 4.82296 11.0421 4.80458C11.205 4.69835 11.4435 4.48235 11.4787 4.40931C11.4929 4.37973 11.5181 4.35726 11.5346 4.35942C11.551 4.36158 11.5674 4.34121 11.571 4.31414C11.5745 4.28705 11.6002 4.25942 11.6281 4.25274C11.6559 4.24603 11.6803 4.2283 11.6823 4.21332C11.6843 4.19834 11.7668 4.10212 11.8656 3.99947C11.9645 3.89685 12.0713 3.78332 12.103 3.7472C12.1347 3.71107 12.1812 3.66499 12.2064 3.64481C12.2315 3.62462 12.253 3.60058 12.2542 3.59142C12.256 3.57808 12.6522 3.15568 12.7765 3.03463C12.8502 2.96285 12.9608 2.84755 13.0135 2.78757C13.0452 2.75148 13.0881 2.7076 13.1087 2.69C13.1294 2.67244 13.1846 2.61897 13.2316 2.57117C13.4441 2.35445 13.4913 2.30996 13.6027 2.22108C13.668 2.16903 13.7224 2.1181 13.7238 2.10791C13.7315 2.04893 14.6089 1.43366 14.8769 1.29927C14.9196 1.27789 14.9728 1.24742 14.9952 1.23159C15.0636 1.18305 15.459 1.01593 15.4944 1.02057C15.5127 1.02297 15.534 1.01406 15.5418 1.00079C15.5617 0.966648 15.84 0.869716 15.8968 0.877161C15.9228 0.880565 15.9459 0.869529 15.9481 0.852655C15.9503 0.83578 16.0063 0.818994 16.0725 0.81535C16.1388 0.811673 16.233 0.794051 16.282 0.776114C16.331 0.758208 16.4079 0.74832 16.453 0.754103C16.4981 0.759918 16.5539 0.750219 16.5768 0.732536C16.6423 0.682237 17.1335 0.759413 17.2416 0.836967C17.2909 0.872365 17.344 0.903061 17.3595 0.905233Z" fill="white"/>
</svg>
