<svg width="16" height="16" viewBox="0 0 16 16" fill="none" xmlns="http://www.w3.org/2000/svg">
<path d="M14.9752 1.12431C15.0652 1.13674 15.2472 1.54242 15.2533 1.74421C15.2571 1.86777 15.1915 2.32868 15.1486 2.4804C15.0709 2.75523 14.9935 2.97382 14.9659 2.99666C14.9508 3.00918 14.935 3.04505 14.9309 3.07637C14.9238 3.13071 14.8124 3.3722 14.7314 3.50893C14.7104 3.54437 14.673 3.60821 14.6483 3.65079C14.57 3.78566 14.35 4.10842 14.2833 4.18622C14.248 4.22742 14.1999 4.29297 14.1764 4.33192C14.153 4.37086 14.1242 4.40145 14.1125 4.39991C14.1007 4.39837 14.0895 4.40989 14.0874 4.42551C14.0832 4.45784 13.9491 4.60978 13.9162 4.61952C13.9043 4.62306 13.893 4.63775 13.8911 4.65219C13.8892 4.66661 13.8191 4.74871 13.7352 4.8346C13.6514 4.92052 13.5608 5.01585 13.5339 5.04646C13.5069 5.07709 13.4704 5.11432 13.4527 5.12925C13.4349 5.14414 13.3848 5.1954 13.3413 5.24316C13.2473 5.34622 13.2392 5.35427 13.1182 5.46389C13.0667 5.5106 13.0234 5.55614 13.0219 5.56506C13.0205 5.57399 12.9911 5.60763 12.9567 5.63983C12.8551 5.73457 12.85 5.73957 12.6718 5.91921C12.5779 6.01383 12.4898 6.09395 12.4761 6.09722C12.4623 6.10052 12.4495 6.11435 12.4477 6.12801C12.4437 6.15908 12.222 6.38469 12.1877 6.39272C12.1737 6.396 12.1609 6.40931 12.1592 6.42231C12.1575 6.43534 12.1121 6.49576 12.0583 6.55662C11.9565 6.67169 11.9312 6.74736 11.9654 6.83383C11.9765 6.86181 12.0036 6.94956 12.0257 7.02884C12.0479 7.10812 12.1328 7.36923 12.2145 7.60908C12.2963 7.84893 12.3611 8.06055 12.3586 8.07931C12.3561 8.09809 12.3664 8.11505 12.3814 8.11702C12.3965 8.11899 12.4071 8.1334 12.405 8.14905C12.403 8.16469 12.4267 8.25841 12.4578 8.35733C12.568 8.70841 12.5962 8.80908 12.5925 8.83753C12.5904 8.85337 12.6 8.86782 12.6139 8.86963C12.6277 8.87144 12.6423 8.91085 12.6463 8.9572C12.6502 9.00355 12.6648 9.04296 12.6786 9.04477C12.6925 9.04658 12.702 9.06131 12.6999 9.0775C12.6978 9.09369 12.726 9.20052 12.7627 9.31487C12.7993 9.42924 12.8529 9.60089 12.8818 9.69634C12.9107 9.79178 12.9517 9.9194 12.973 9.97995C12.9942 10.0405 13.0092 10.1081 13.0063 10.1301C13.0034 10.1522 13.0124 10.1717 13.0262 10.1736C13.04 10.1754 13.0546 10.2148 13.0586 10.2611C13.0626 10.3075 13.0772 10.3469 13.091 10.3487C13.1048 10.3505 13.1144 10.3652 13.1123 10.3814C13.1101 10.3976 13.1405 10.511 13.1797 10.6333L13.335 11.1167C13.4557 11.4916 13.4822 11.5849 13.4778 11.6187C13.4756 11.6353 13.4861 11.6504 13.5012 11.6523C13.5162 11.6543 13.5265 11.6713 13.5241 11.6901C13.5192 11.7288 13.6508 12.1084 13.693 12.1774C13.7083 12.2023 13.7347 12.2683 13.7518 12.324C13.7689 12.3797 13.7948 12.4631 13.8095 12.5093C13.8459 12.6245 13.7699 13.2048 13.705 13.3066L13.6007 13.4707C13.4299 13.7402 12.9816 14.1113 12.8017 14.1321C12.7626 14.1367 12.7292 14.1514 12.7274 14.1647C12.7223 14.2035 12.4936 14.1628 12.3983 14.1061C12.2959 14.0453 12.179 13.9074 12.0525 13.6983C12.0023 13.6154 11.9507 13.5321 11.9379 13.5131C11.9251 13.4942 11.8998 13.4488 11.8817 13.4122C11.8526 13.3535 11.7945 13.2478 11.7416 13.1576C11.732 13.1411 11.6931 13.0797 11.6554 13.0213C11.6176 12.9629 11.5876 12.9067 11.5887 12.8965C11.5898 12.8863 11.5745 12.8568 11.5547 12.8311C11.4925 12.7501 11.361 12.5112 11.3644 12.4853C11.3662 12.4716 11.3573 12.455 11.3447 12.4482C11.3196 12.4348 11.1572 12.1594 11.1603 12.1355C11.1614 12.1274 11.1379 12.09 11.1082 12.0525C11.0785 12.015 11.027 11.9296 10.9936 11.8629C10.9603 11.7961 10.9149 11.7151 10.8927 11.6827C10.8152 11.5697 10.681 11.3426 10.6829 11.3278C10.684 11.3196 10.6559 11.2718 10.6204 11.2216C10.585 11.1715 10.5458 11.1128 10.5334 11.0912C10.5209 11.0696 10.4812 11.0044 10.4452 10.9462L10.2962 10.7053C10.1612 10.4866 9.69946 9.9041 9.6567 9.8985C9.64236 9.89662 9.44917 9.6972 9.35583 9.58795C9.25776 9.47313 9.20651 9.4628 9.12112 9.54063C9.07923 9.57877 9.00812 9.64266 8.96303 9.68258C8.91796 9.7225 8.80939 9.82701 8.72174 9.91481C8.6341 10.0026 8.55399 10.0796 8.54372 10.0859C8.53343 10.0922 8.46805 10.1524 8.39846 10.2196C8.32884 10.2869 8.25754 10.3541 8.24001 10.3689C8.22245 10.3838 8.15116 10.449 8.08156 10.5138C8.01196 10.5787 7.90449 10.6755 7.84276 10.7291C7.78102 10.7826 7.68912 10.8639 7.63853 10.9098C7.58794 10.9557 7.36553 11.1346 7.14427 11.3075C6.8379 11.5469 6.71339 11.6633 6.62196 11.7959C6.50933 11.9593 6.49985 11.9861 6.4685 12.2299C6.4501 12.3728 6.4442 12.5284 6.45533 12.5757C6.46649 12.623 6.49078 12.7574 6.5093 12.8744C6.52785 12.9914 6.55061 13.1132 6.55989 13.1449C6.5692 13.1767 6.58139 13.2595 6.587 13.329C6.59262 13.3985 6.60671 13.5378 6.6183 13.6386C6.62991 13.7395 6.64564 13.904 6.6533 14.0043C6.67567 14.2971 6.69155 14.4604 6.70878 14.5739C6.72056 14.6516 6.71268 14.7074 6.67939 14.7816C6.65438 14.8374 6.63078 14.9068 6.62698 14.9359C6.61977 14.9909 6.41844 15.2974 6.34424 15.3664C5.92584 15.7551 5.48947 15.6954 5.2364 15.2147C5.2089 15.1625 5.18791 15.1079 5.18979 15.0936C5.19168 15.0792 5.18455 15.0621 5.17394 15.0556C5.14578 15.0384 5.05416 14.8569 5.05817 14.8263C5.06006 14.8119 5.05293 14.7949 5.04232 14.7884C5.01303 14.7705 4.92262 14.5891 4.92686 14.5568C4.9289 14.5412 4.91791 14.5267 4.90243 14.5247C4.88692 14.5227 4.86888 14.4984 4.86227 14.4708C4.85569 14.4433 4.84202 14.4071 4.83192 14.3905C4.82182 14.3739 4.74612 14.2393 4.66366 14.0913C4.48729 13.7748 4.08323 13.2387 3.83966 12.998C3.74499 12.9045 3.66257 12.8181 3.65651 12.8061C3.65045 12.7941 3.61896 12.772 3.58656 12.757C3.55417 12.7421 3.52914 12.7184 3.53097 12.7044C3.53281 12.6904 3.51648 12.6765 3.49472 12.6737C3.47293 12.6708 3.44731 12.6519 3.43776 12.6315C3.41904 12.5917 3.36104 12.5476 3.026 12.319C2.6661 12.0733 2.45711 11.9598 1.98884 11.7557C1.88046 11.7085 1.77422 11.6572 1.75274 11.6418C1.73123 11.6264 1.66312 11.5983 1.60136 11.5794C1.53957 11.5604 1.48359 11.5328 1.4769 11.518C1.47023 11.5032 1.44024 11.4878 1.41026 11.4839C1.25484 11.4635 1.00682 11.2338 0.941903 11.0501C0.905341 10.9466 0.942478 10.633 0.996249 10.5917C1.01716 10.5756 1.03643 10.546 1.03907 10.5259C1.05327 10.4175 1.4089 10.1325 1.64425 10.0409C1.79244 9.9832 1.86081 9.97455 2.08202 9.9855C2.22621 9.99262 2.48096 10.0038 2.64814 10.0104C2.81532 10.017 3.2079 10.0552 3.52056 10.0954C4.10577 10.1707 4.23148 10.1694 4.48262 10.0856C4.58048 10.0529 4.85054 9.86402 4.89432 9.79766C4.9068 9.77874 4.94534 9.72946 4.97991 9.68817C5.01452 9.64687 5.08632 9.55005 5.13947 9.473C5.19262 9.39594 5.24321 9.32759 5.25187 9.32108C5.26053 9.31458 5.30538 9.25171 5.35154 9.18138C5.39772 9.11106 5.44342 9.04831 5.45311 9.04194C5.48335 9.0221 5.55346 8.93349 5.59749 8.8595C5.62065 8.82051 5.64922 8.7899 5.66093 8.79143C5.67267 8.79297 5.68393 8.78145 5.68598 8.76583C5.6895 8.73896 5.81417 8.59141 5.85414 8.56679C5.86438 8.56049 5.88498 8.52881 5.89997 8.49641C5.91494 8.46402 5.93864 8.43899 5.95264 8.44083C5.96665 8.44266 5.97961 8.43278 5.98143 8.41888C5.98326 8.40495 6.20382 8.14326 6.47156 7.83736L6.95841 7.28114L6.88575 7.22029C6.84581 7.1868 6.81458 7.14835 6.81635 7.13481C6.81813 7.12127 6.80615 7.10842 6.78977 7.10627C6.77336 7.10412 6.73459 7.07715 6.7036 7.04637C6.67264 7.01559 6.6222 6.96835 6.59154 6.94141C6.56088 6.91448 6.52364 6.8778 6.50873 6.8599C6.49386 6.84198 6.4081 6.76902 6.31815 6.69774C6.2282 6.62645 6.14951 6.55831 6.1433 6.5463C6.13707 6.53432 6.09943 6.51164 6.05964 6.49592C6.01984 6.48021 5.98859 6.45736 5.99019 6.44516C5.99179 6.43295 5.9573 6.41004 5.91354 6.39425C5.86978 6.37846 5.83546 6.35421 5.83727 6.3404C5.83909 6.32655 5.8237 6.31304 5.80308 6.31033C5.78247 6.30763 5.70904 6.27198 5.63987 6.23111C5.57074 6.19025 5.47351 6.13315 5.42383 6.10425C5.37416 6.07532 5.31372 6.03718 5.28952 6.01948C5.26531 6.00175 5.23236 5.98555 5.21633 5.98345C5.20028 5.98134 5.13679 5.94822 5.07525 5.90982C5.01371 5.87139 4.89746 5.80985 4.81696 5.77303C4.73644 5.7362 4.67184 5.69629 4.67341 5.68436C4.67497 5.67242 4.65474 5.65977 4.62849 5.65625C4.60223 5.65269 4.54793 5.62683 4.50787 5.59877C4.46777 5.57069 4.42104 5.54581 4.40401 5.5435C4.38696 5.54115 4.34231 5.51774 4.30477 5.49144C4.26725 5.46513 4.19693 5.42944 4.14852 5.4121C4.10013 5.39476 4.05538 5.37209 4.04911 5.36171C4.03588 5.3399 3.66788 5.14892 3.52249 5.08842C3.46815 5.06583 3.42514 5.03652 3.42687 5.02334C3.4286 5.01015 3.40236 4.99565 3.36859 4.99114C3.33483 4.98661 3.27439 4.95994 3.23432 4.93188C3.19423 4.90379 3.1475 4.87892 3.13047 4.8766C3.11342 4.87426 3.06877 4.85085 3.03122 4.82454C2.9937 4.79824 2.92653 4.76355 2.88195 4.74745C2.83737 4.73136 2.79538 4.70594 2.78862 4.69095C2.7819 4.67595 2.75564 4.66057 2.73031 4.65672C2.70498 4.65287 2.63822 4.61957 2.58195 4.58267C2.52568 4.54577 2.46433 4.51317 2.44563 4.51019C2.42692 4.50721 2.41323 4.4925 2.4152 4.47749C2.41717 4.46247 2.39863 4.44754 2.37397 4.44431C2.34932 4.44107 2.28281 4.37631 2.22619 4.30036C2.1185 4.15596 2.11258 4.11679 2.15986 3.86074C2.18246 3.73838 2.40604 3.36529 2.45309 3.37146C2.46595 3.37315 2.47855 3.3586 2.48111 3.33911C2.48694 3.29463 2.55936 3.22102 2.73745 3.0786C2.92405 2.92939 3.19335 2.8019 3.29405 2.8151C3.32114 2.81865 3.35993 2.8088 3.38025 2.79318C3.42821 2.75634 3.93932 2.82184 4.01955 2.8751C4.10816 2.93396 4.52259 3.05939 5.18965 3.22932C5.31531 3.26132 5.47183 3.30681 5.53747 3.33041C5.65434 3.37243 5.88398 3.43455 6.34217 3.54817C6.46793 3.57937 6.61231 3.62213 6.66301 3.64322C6.71371 3.66431 6.87014 3.71053 7.01062 3.74592C7.25553 3.80763 7.51534 3.8788 8.09651 4.04333C8.24381 4.08503 8.46099 4.14452 8.57913 4.17553C8.69728 4.20655 8.8232 4.24708 8.85896 4.26563C8.89472 4.28417 9.0291 4.3212 9.15761 4.34794C9.28609 4.37467 9.43138 4.4113 9.48048 4.42934C9.53576 4.44964 9.58449 4.45253 9.60839 4.43692C9.74671 4.34667 9.94936 4.16317 9.97924 4.10113C9.99134 4.07599 10.0127 4.05691 10.0267 4.05874C10.0407 4.06058 10.0546 4.04327 10.0577 4.02028C10.0607 3.99726 10.0825 3.97379 10.1062 3.96811C10.1298 3.96241 10.1505 3.94735 10.1522 3.93463C10.1539 3.9219 10.224 3.84016 10.308 3.75295C10.3919 3.66578 10.4827 3.56933 10.5096 3.53864C10.5366 3.50795 10.5761 3.4688 10.5974 3.45166C10.6188 3.43451 10.6371 3.41408 10.6381 3.4063C10.6396 3.39497 10.9762 3.03613 11.0818 2.93329C11.1444 2.87231 11.2383 2.77437 11.2831 2.72341C11.31 2.69275 11.3465 2.65547 11.364 2.64052C11.3816 2.6256 11.4285 2.58018 11.4684 2.53957C11.6489 2.35546 11.689 2.31766 11.7836 2.24216C11.8391 2.19794 11.8854 2.15468 11.8865 2.14602C11.8931 2.09591 12.6385 1.57322 12.8662 1.45905C12.9024 1.44089 12.9476 1.41501 12.9666 1.40156C13.0247 1.36032 13.3606 1.21835 13.3907 1.22229C13.4063 1.22433 13.4244 1.21676 13.431 1.20549C13.4478 1.17648 13.6843 1.09413 13.7326 1.10046C13.7547 1.10335 13.7742 1.09398 13.7761 1.07964C13.778 1.06531 13.8256 1.05105 13.8818 1.04795C13.9381 1.04483 14.0182 1.02986 14.0598 1.01462C14.1014 0.999406 14.1668 0.991005 14.2051 0.995918C14.2434 1.00086 14.2908 0.992619 14.3103 0.977597C14.3659 0.934866 14.7832 1.00043 14.875 1.06631C14.9169 1.09639 14.962 1.12246 14.9752 1.12431Z" fill="white"/>
</svg>
