<svg width="22" height="18" viewBox="0 0 22 18" fill="none" xmlns="http://www.w3.org/2000/svg">
<path fill-rule="evenodd" clip-rule="evenodd" d="M6.80479 0.525743L6.3886 0.858694L6.36669 3.54241L6.34477 6.22612L4.49384 6.29896C3.47585 6.33905 2.54248 6.42048 2.4197 6.47972C1.91847 6.72194 1.87824 7.11149 1.84412 12.0527L1.81054 16.9083L1.16365 16.95C0.50427 16.9926 0.2848 17.191 0.442397 17.6019C0.512455 17.7843 1.81346 17.81 10.9907 17.81H21.4592L21.4152 17.4285C21.3772 17.0972 21.3028 17.0413 20.8511 17.004L20.3309 16.9608V11.9874V7.01383L19.904 6.65466C19.4913 6.30728 19.416 6.29549 17.615 6.29549H15.7528V3.60914V0.922925L15.3871 0.557096L15.0213 0.191406L11.1212 0.1921L7.22098 0.192793L6.80479 0.525743ZM14.8869 9.03539L14.9227 16.9776H13.8117H12.7008V15.2435V13.5094H11.1054H9.51001V15.024C9.51001 15.8571 9.47214 16.6375 9.4258 16.7582C9.3588 16.9327 9.11713 16.9776 8.2466 16.9776H7.15162V9.16718C7.15162 3.22056 7.19185 1.3165 7.32031 1.18804C7.44614 1.06221 8.42335 1.02878 11.17 1.05624L14.8511 1.09315L14.8869 9.03539ZM8.22052 2.35947C8.04004 2.53995 8.10788 4.59689 8.29613 4.65058C8.39158 4.67777 8.90654 4.7001 9.44065 4.7001H10.4117V3.52091V2.34171L9.36504 2.30175C8.78931 2.2797 8.27435 2.30578 8.22052 2.35947ZM11.7574 2.43882C11.53 2.6662 11.5357 4.44137 11.7644 4.58302C12.0213 4.74214 13.7136 4.75018 13.9147 4.59342C14.0947 4.45275 14.1606 2.90037 14.0039 2.49181C13.9378 2.31979 13.7038 2.27234 12.9218 2.27234C12.3307 2.27234 11.8561 2.34018 11.7574 2.43882ZM9.78747 3.52965C9.78747 4.08206 9.77845 4.09247 9.3366 4.04988C8.98631 4.01617 8.8756 3.9346 8.84009 3.68419C8.76684 3.16756 8.91472 2.96599 9.36698 2.96599C9.7661 2.96599 9.78747 2.99457 9.78747 3.52965ZM13.3681 3.55559C13.4105 4.06819 13.4039 4.07582 12.9129 4.07582C12.3574 4.07582 12.2027 3.86606 12.3437 3.30407C12.4196 3.0022 12.4996 2.95558 12.8789 2.99221C13.2851 3.03147 13.3289 3.08197 13.3681 3.55559ZM8.15185 7.02382L8.19208 8.16833H9.30192H10.4117L10.452 7.02382L10.4924 5.8793H9.30192H8.11148L8.15185 7.02382ZM11.6491 6.06645C11.6097 6.16938 11.5959 6.68448 11.6188 7.21096L11.6603 8.16833H12.8395H14.0187L14.0612 7.34178C14.1354 5.89789 14.1197 5.8793 12.8326 5.8793C12.0277 5.8793 11.7011 5.93091 11.6491 6.06645ZM9.78747 7.0585C9.78747 7.52088 9.7643 7.54405 9.30192 7.54405C8.83953 7.54405 8.81636 7.52088 8.81636 7.0585C8.81636 6.59611 8.83953 6.57295 9.30192 6.57295C9.7643 6.57295 9.78747 6.59611 9.78747 7.0585ZM13.3944 7.0585C13.3944 7.52088 13.3713 7.54405 12.9089 7.54405C12.4465 7.54405 12.4233 7.52088 12.4233 7.0585C12.4233 6.59611 12.4465 6.57295 12.9089 6.57295C13.3713 6.57295 13.3944 6.59611 13.3944 7.0585ZM6.3388 10.7348C6.33963 12.6805 6.33575 14.881 6.32978 15.625L6.31924 16.9776H4.51576C3.52385 16.9776 2.70535 16.9307 2.69688 16.8736C2.68842 16.8164 2.65984 14.7162 2.63321 12.2065C2.60241 9.30411 2.63584 7.54807 2.72505 7.3816C2.85268 7.14285 3.01915 7.12315 4.60108 7.15852L6.337 7.19723L6.3388 10.7348ZM19.4656 12.0874L19.5021 16.9776H17.6275H15.7528V12.1453C15.7528 9.48737 15.7962 7.26951 15.8492 7.21637C15.9022 7.16338 16.7295 7.1373 17.6874 7.15866L19.4291 7.19723L19.4656 12.0874ZM3.46447 8.14669C3.42507 8.24921 3.41148 8.79539 3.43409 9.36057L3.47529 10.388L4.30184 10.4304C5.7424 10.5045 5.76432 10.4864 5.76432 9.22101C5.76432 7.95372 5.77126 7.96024 4.43072 7.96024C3.80963 7.96024 3.51414 8.01726 3.46447 8.14669ZM16.5443 8.04736C16.4904 8.10119 16.4465 8.63307 16.4465 9.22933C16.4465 10.4852 16.4698 10.5044 17.909 10.4304L18.7355 10.388V9.2088V8.0296L17.6888 7.98965C17.1131 7.96759 16.5981 7.99367 16.5443 8.04736ZM5.04474 9.17412C5.08649 9.60654 5.06804 9.62499 4.59387 9.62499C4.11983 9.62499 4.09957 9.60473 4.09957 9.1307C4.09957 8.65652 4.11803 8.63807 4.55044 8.67983C4.94693 8.71798 5.00659 8.77763 5.04474 9.17412ZM18.1112 9.13944C18.1112 9.60182 18.088 9.62499 17.6257 9.62499C17.1633 9.62499 17.1401 9.60182 17.1401 9.13944C17.1401 8.67705 17.1633 8.65388 17.6257 8.65388C18.088 8.65388 18.1112 8.67705 18.1112 9.13944ZM8.29613 9.43659C8.17821 9.48612 8.12272 9.85986 8.12272 10.605C8.12272 11.8742 8.14408 11.8918 9.5852 11.8177L10.4117 11.7753V10.5961V9.41689L9.44065 9.3904C8.90654 9.37569 8.39158 9.3965 8.29613 9.43659ZM11.7574 9.514C11.6616 9.60987 11.5909 10.0689 11.5909 10.5961C11.5909 11.1233 11.6616 11.5823 11.7574 11.6782C11.8533 11.774 12.3123 11.8447 12.8395 11.8447C13.3667 11.8447 13.8257 11.774 13.9216 11.6782C14.0202 11.5795 14.0881 11.1049 14.0881 10.5138C14.0881 9.73181 14.0406 9.49777 13.8686 9.43174C13.4768 9.28136 11.9297 9.3417 11.7574 9.514ZM9.78747 10.5961C9.78747 11.1378 9.77595 11.151 9.30192 11.151C8.84411 11.151 8.81636 11.1246 8.81636 10.6886C8.81636 10.1248 8.891 10.0412 9.39445 10.0412C9.76056 10.0412 9.78747 10.0793 9.78747 10.5961ZM13.3681 10.6308C13.4102 11.1396 13.4007 11.151 12.933 11.151C12.5138 11.151 12.4477 11.1025 12.397 10.757C12.3089 10.1569 12.4057 10.0212 12.8883 10.0681C13.2839 10.1065 13.3291 10.1596 13.3681 10.6308ZM3.43492 12.706L3.47529 13.8562H4.58513H5.69496V12.7464V11.6366L4.54476 11.5962L3.39455 11.5558L3.43492 12.706ZM16.4465 12.7519V13.9368L17.591 13.8965L18.7355 13.8562L18.7757 12.7117L18.8161 11.5672H17.6312H16.4465V12.7519ZM5.07068 12.7464C5.07068 13.2088 5.04751 13.2319 4.58513 13.2319C4.12274 13.2319 4.09957 13.2088 4.09957 12.7464C4.09957 12.284 4.12274 12.2608 4.58513 12.2608C5.04751 12.2608 5.07068 12.284 5.07068 12.7464ZM18.1112 12.7464C18.1112 13.2088 18.088 13.2319 17.6257 13.2319C17.1633 13.2319 17.1401 13.2088 17.1401 12.7464C17.1401 12.284 17.1633 12.2608 17.6257 12.2608C18.088 12.2608 18.1112 12.284 18.1112 12.7464ZM11.9773 15.5557L12.0168 16.9776H11.1251C10.0721 16.9776 10.0649 16.9678 10.0649 15.521C10.0649 14.0621 10.0777 14.0442 11.0879 14.0929L11.9378 14.1337L11.9773 15.5557Z" fill="#777E91"/>
</svg>
