<svg width="18" height="16" viewBox="0 0 18 16" fill="none" xmlns="http://www.w3.org/2000/svg">
<path fill-rule="evenodd" clip-rule="evenodd" d="M5.59672 1.09658L5.25769 1.3678L5.23983 3.554L5.22198 5.7402L3.71418 5.79953C2.88491 5.83219 2.12457 5.89853 2.02456 5.94678C1.61625 6.1441 1.58347 6.46143 1.55567 10.4867L1.52833 14.442L1.00136 14.4761C0.464214 14.5108 0.28543 14.6724 0.413811 15.0071C0.470881 15.1557 1.5307 15.1766 9.0066 15.1766H17.5344L17.4986 14.8658C17.4676 14.596 17.407 14.5504 17.0391 14.52L16.6153 14.4849V10.4334V6.38187L16.2676 6.08929C15.9314 5.80631 15.87 5.7967 14.4029 5.7967H12.8859V3.60836V1.42013L12.588 1.12212L12.29 0.824219L9.11295 0.824784L5.93575 0.825349L5.59672 1.09658ZM12.1805 8.02867L12.2097 14.4986H11.3047H10.3997V13.0859V11.6733H9.10006H7.80044V12.9071C7.80044 13.5858 7.76958 14.2214 7.73184 14.3198C7.67725 14.4619 7.48039 14.4986 6.77124 14.4986H5.87925V8.13603C5.87925 3.29181 5.91202 1.74074 6.01667 1.63609C6.11917 1.53359 6.91522 1.50635 9.15273 1.52873L12.1514 1.55879L12.1805 8.02867ZM6.75 2.59035C6.60297 2.73738 6.65823 4.413 6.81159 4.45673C6.88934 4.47888 7.30884 4.49708 7.74393 4.49708H8.53501V3.53648V2.57589L7.68234 2.54334C7.21334 2.52537 6.79385 2.54662 6.75 2.59035ZM9.63121 2.655C9.44599 2.84022 9.45062 4.28631 9.63686 4.4017C9.84616 4.53132 11.2248 4.53787 11.3885 4.41017C11.5352 4.29558 11.5889 3.03098 11.4612 2.69817C11.4074 2.55803 11.2168 2.51938 10.5797 2.51938C10.0982 2.51938 9.71156 2.57465 9.63121 2.655ZM8.02646 3.5436C8.02646 3.99361 8.01911 4.00209 7.65917 3.96739C7.37382 3.93993 7.28364 3.87348 7.25471 3.6695C7.19504 3.24864 7.31551 3.08444 7.68392 3.08444C8.00905 3.08444 8.02646 3.10772 8.02646 3.5436ZM10.9433 3.56474C10.9779 3.98231 10.9724 3.98853 10.5725 3.98853C10.12 3.98853 9.99398 3.81765 10.1088 3.35985C10.1706 3.11393 10.2358 3.07596 10.5448 3.1058C10.8757 3.13778 10.9114 3.17892 10.9433 3.56474ZM6.69406 6.39001L6.72683 7.32235H7.63092H8.53501L8.56778 6.39001L8.60067 5.45767H7.63092H6.66117L6.69406 6.39001ZM9.54295 5.61012C9.51086 5.69398 9.49967 6.11359 9.51832 6.54246L9.55211 7.32235H10.5127H11.4733L11.5079 6.64903C11.5683 5.47281 11.5556 5.45767 10.507 5.45767C9.85136 5.45767 9.58533 5.49971 9.54295 5.61012ZM8.02646 6.41826C8.02646 6.79493 8.00759 6.8138 7.63092 6.8138C7.25425 6.8138 7.23538 6.79493 7.23538 6.41826C7.23538 6.0416 7.25425 6.02273 7.63092 6.02273C8.00759 6.02273 8.02646 6.0416 8.02646 6.41826ZM10.9647 6.41826C10.9647 6.79493 10.9459 6.8138 10.5692 6.8138C10.1925 6.8138 10.1737 6.79493 10.1737 6.41826C10.1737 6.0416 10.1925 6.02273 10.5692 6.02273C10.9459 6.02273 10.9647 6.0416 10.9647 6.41826ZM5.21712 9.41306C5.2178 10.998 5.21463 12.7906 5.20977 13.3967L5.20118 14.4986H3.73204C2.92401 14.4986 2.25725 14.4604 2.25035 14.4138C2.24346 14.3672 2.22018 12.6564 2.19848 10.6119C2.17339 8.24757 2.20063 6.81708 2.27329 6.68147C2.37726 6.48697 2.51288 6.47093 3.80154 6.49974L5.21565 6.53127L5.21712 9.41306ZM15.9104 10.5149L15.9402 14.4986H14.413H12.8859V10.562C12.8859 8.39686 12.9213 6.59015 12.9645 6.54687C13.0076 6.5037 13.6815 6.48245 14.4619 6.49986L15.8807 6.53127L15.9104 10.5149ZM2.87564 7.30472C2.84355 7.38824 2.83247 7.83316 2.85089 8.29357L2.88446 9.13053L3.55778 9.16511C4.73128 9.22546 4.74914 9.21065 4.74914 8.17988C4.74914 7.14752 4.75479 7.15284 3.66276 7.15284C3.15681 7.15284 2.9161 7.19928 2.87564 7.30472ZM13.5307 7.22381C13.4868 7.26765 13.451 7.70094 13.451 8.18666C13.451 9.20975 13.47 9.22534 14.6423 9.16511L15.3157 9.13053V8.16993V7.20934L14.463 7.17679C13.994 7.15882 13.5745 7.18007 13.5307 7.22381ZM4.16295 8.14168C4.19697 8.49394 4.18194 8.50897 3.79567 8.50897C3.40951 8.50897 3.39301 8.49247 3.39301 8.10631C3.39301 7.72004 3.40804 7.70501 3.76029 7.73902C4.08328 7.7701 4.13187 7.8187 4.16295 8.14168ZM14.8071 8.11343C14.8071 8.49009 14.7882 8.50897 14.4116 8.50897C14.0349 8.50897 14.016 8.49009 14.016 8.11343C14.016 7.73676 14.0349 7.71789 14.4116 7.71789C14.7882 7.71789 14.8071 7.73676 14.8071 8.11343ZM6.81159 8.3555C6.71553 8.39584 6.67033 8.7003 6.67033 9.30728C6.67033 10.3412 6.68773 10.3556 7.86169 10.2952L8.53501 10.2606V9.30004V8.33945L7.74393 8.31787C7.30884 8.30589 6.88934 8.32284 6.81159 8.3555ZM9.63121 8.41856C9.55312 8.49665 9.4956 8.8706 9.4956 9.30004C9.4956 9.72949 9.55312 10.1034 9.63121 10.1815C9.7093 10.2596 10.0833 10.3171 10.5127 10.3171C10.9421 10.3171 11.3161 10.2596 11.3942 10.1815C11.4745 10.1012 11.5298 9.71457 11.5298 9.23303C11.5298 8.59599 11.4911 8.40534 11.351 8.35154C11.0319 8.22904 9.77157 8.2782 9.63121 8.41856ZM8.02646 9.30004C8.02646 9.74135 8.01708 9.75209 7.63092 9.75209C7.25798 9.75209 7.23538 9.73062 7.23538 9.37542C7.23538 8.91615 7.29618 8.848 7.7063 8.848C8.00453 8.848 8.02646 8.87908 8.02646 9.30004ZM10.9433 9.3283C10.9776 9.74282 10.9698 9.75209 10.5889 9.75209C10.2473 9.75209 10.1936 9.71254 10.1522 9.43114C10.0804 8.94225 10.1593 8.83173 10.5525 8.86992C10.8747 8.90123 10.9115 8.94451 10.9433 9.3283ZM2.85157 11.0188L2.88446 11.9558H3.78855H4.69263V11.0517V10.1476L3.75566 10.1147L2.81868 10.0819L2.85157 11.0188ZM13.451 11.0562V12.0215L14.3833 11.9886L15.3157 11.9558L15.3484 11.0235L15.3813 10.0911H14.4161H13.451V11.0562ZM4.18408 11.0517C4.18408 11.4284 4.16521 11.4473 3.78855 11.4473C3.41188 11.4473 3.39301 11.4284 3.39301 11.0517C3.39301 10.675 3.41188 10.6562 3.78855 10.6562C4.16521 10.6562 4.18408 10.675 4.18408 11.0517ZM14.8071 11.0517C14.8071 11.4284 14.7882 11.4473 14.4116 11.4473C14.0349 11.4473 14.016 11.4284 14.016 11.0517C14.016 10.675 14.0349 10.6562 14.4116 10.6562C14.7882 10.6562 14.8071 10.675 14.8071 11.0517ZM9.81034 13.3402L9.84254 14.4986H9.11611C8.25836 14.4986 8.25248 14.4905 8.25248 13.3119C8.25248 12.1235 8.26288 12.1089 9.08582 12.1486L9.77813 12.1818L9.81034 13.3402Z" fill="#353945"/>
</svg>
