<svg width="18" height="18" viewBox="0 0 18 18" fill="none" xmlns="http://www.w3.org/2000/svg">
<path fill-rule="evenodd" clip-rule="evenodd" d="M6.9163 0.136977C6.88395 0.229381 6.84103 0.565879 6.82106 0.88485L6.78471 1.4648L6.03774 1.50359L5.29064 1.54251L5.32892 2.34129L5.36707 3.1402L5.98928 3.17989C6.79915 3.23157 6.97803 3.06996 6.97803 2.28677V1.65811H7.62241H8.2668V2.28677C8.2668 3.06996 8.44568 3.23157 9.25554 3.17989L9.87776 3.1402L9.9422 2.43137L10.0066 1.72255L10.6832 1.68363L11.3598 1.64458V2.34644C11.3598 3.11816 11.4443 3.20463 12.1975 3.20463C12.9611 3.20463 13.0352 3.12357 13.0352 2.28871V1.52923L12.4231 1.5273C12.0865 1.52614 11.7421 1.48155 11.6581 1.42807C11.574 1.37471 11.487 1.04208 11.4648 0.689086L11.4243 0.0471494H10.651H9.87776L9.81332 0.755973L9.74888 1.4648L9.24858 1.50578C8.62211 1.5572 8.48962 1.42459 8.40147 0.658671L8.33124 0.0471494L7.65321 0.00809972C7.18346 -0.0188356 6.95702 0.0207297 6.9163 0.136977ZM8.07348 4.19299C6.17912 4.28553 4.1881 4.68337 4.01669 5.00363C3.95032 5.12761 3.71383 5.80292 3.491 6.5044C3.2683 7.20588 3.04354 7.82513 2.99161 7.88055C2.93967 7.93609 2.45883 7.99628 1.92296 8.01432C0.721438 8.05479 0.53418 8.18766 0.53418 8.99984C0.53418 9.63173 0.795542 10.0351 1.20511 10.0351C1.50089 10.0351 1.70206 10.33 1.55978 10.555C1.49406 10.6589 1.43941 12.0594 1.43825 13.6671L1.43632 16.5903L1.81058 16.8568C2.12993 17.0842 2.37712 17.1233 3.49448 17.1233C5.31964 17.1233 5.67817 16.8967 5.68513 15.7379L5.68926 15.0613H9.09071C12.8776 15.0613 12.6486 15.0022 12.6486 15.9802C12.6486 16.3674 12.7314 16.5679 12.9896 16.8073C13.3094 17.1036 13.4205 17.1233 14.7751 17.1233C16.1297 17.1233 16.2408 17.1036 16.5605 16.8073L16.9016 16.4912V13.593C16.9016 11.7998 16.8525 10.6643 16.7727 10.6151C16.5232 10.4609 16.6478 10.168 16.9982 10.0847C17.6021 9.94129 17.8037 9.66975 17.8037 8.99984C17.8037 8.60883 17.7327 8.33239 17.6051 8.22645C17.4912 8.13186 16.9603 8.04358 16.3614 8.01948C15.7868 7.99641 15.3075 7.962 15.2964 7.94305C15.2853 7.92411 15.0475 7.21657 14.768 6.37076C14.189 4.61906 14.3522 4.7518 12.3909 4.43734C11.1799 4.24325 9.26495 4.13487 8.07348 4.19299ZM12.0898 5.14578C12.3617 5.20893 12.7685 5.2619 12.9939 5.26357C13.5341 5.2677 13.7367 5.49362 14.0041 6.39022C14.1263 6.80004 14.3352 7.45822 14.4685 7.85284C14.8978 9.1246 15.4527 9.0041 9.16894 9.0041C3.71809 9.0041 3.62723 8.99984 3.62723 8.74699C3.62723 8.43562 4.5179 5.63693 4.66958 5.47132C5.08946 5.01317 10.4965 4.77603 12.0898 5.14578ZM2.6524 8.86182C2.69158 8.92535 2.61915 9.1063 2.49143 9.26417C2.30405 9.49563 2.18148 9.53391 1.85659 9.46251C1.40771 9.36392 1.11271 9.08593 1.23952 8.88089C1.34095 8.71683 2.55265 8.70046 2.6524 8.86182ZM16.966 9.06377C16.966 9.24072 16.8347 9.35426 16.529 9.44202C16.1462 9.55182 16.0623 9.53069 15.853 9.27229C15.5223 8.86375 15.6629 8.72662 16.3656 8.77199C16.863 8.80408 16.966 8.85408 16.966 9.06377ZM15.7121 10.4058L16.1337 11.0276L16.0988 13.6567L16.0639 16.2856L14.8587 16.3229C13.458 16.3662 13.2613 16.2722 13.3186 15.5879C13.3567 15.1344 13.3694 15.1246 14.0018 15.0613C14.5903 15.0024 14.6497 14.9661 14.6869 14.6425L14.7278 14.2881H9.18827C3.3861 14.2881 3.36831 14.2899 3.64914 14.8358C3.73368 15.0002 3.923 15.0613 4.34765 15.0613H4.93017L4.89087 15.6735L4.85156 16.2856L3.53057 16.3224L2.20958 16.3591V13.6519V10.9447L2.62108 10.361L3.03246 9.77736L9.16159 9.78071L15.2906 9.78406L15.7121 10.4058ZM3.25696 11.2074C1.98082 12.3963 3.61859 14.2939 4.98043 13.2042C5.32054 12.9321 5.36707 12.8143 5.36707 12.2271C5.36707 11.6552 5.31513 11.5146 5.00544 11.2482C4.52962 10.8389 3.67388 10.8189 3.25696 11.2074ZM13.2831 11.314C12.458 12.139 13.0207 13.5148 14.1832 13.5148C15.3845 13.5148 15.9771 12.175 15.1551 11.3171C14.639 10.7782 13.8202 10.7768 13.2831 11.314ZM6.54848 11.1521C6.50118 11.1993 6.46252 11.3732 6.46252 11.5387V11.8394H9.16894H11.8754V11.531C11.8754 11.3614 11.7836 11.1874 11.6715 11.1444C11.3932 11.0375 6.65583 11.0446 6.54848 11.1521ZM4.5938 11.9683C4.73763 12.4214 4.54908 12.7415 4.13861 12.7415C3.6753 12.7415 3.41999 12.3555 3.62723 11.9683C3.71641 11.8015 3.89709 11.7105 4.13861 11.7105C4.39881 11.7105 4.53684 11.7886 4.5938 11.9683ZM14.7106 11.9683C14.9179 12.3555 14.6626 12.7415 14.1993 12.7415C13.7888 12.7415 13.6002 12.4214 13.7441 11.9683C13.801 11.7886 13.9391 11.7105 14.1993 11.7105C14.4408 11.7105 14.6215 11.8015 14.7106 11.9683ZM6.46252 12.9211C6.46252 13.0907 6.55428 13.2646 6.6664 13.3077C6.93215 13.4096 11.4057 13.4096 11.6715 13.3077C11.7836 13.2646 11.8754 13.0907 11.8754 12.9211V12.6127H9.16894H6.46252V12.9211Z" fill="#353945"/>
</svg>
