<svg width="22" height="21" viewBox="0 0 22 21" fill="none" xmlns="http://www.w3.org/2000/svg">
<path fill-rule="evenodd" clip-rule="evenodd" d="M7.78637 0.167116C7.7469 0.279852 7.69455 0.690389 7.67017 1.07954L7.62583 1.78709L6.71451 1.83442L5.80302 1.88191L5.84972 2.85644L5.89626 3.83113L6.65539 3.87956C7.64344 3.94261 7.86168 3.74544 7.86168 2.78993V2.02294H8.64785H9.43402V2.78993C9.43402 3.74544 9.65226 3.94261 10.6403 3.87956L11.3994 3.83113L11.4781 2.96635L11.5567 2.10156L12.3822 2.05408L13.2076 2.00644V2.86273C13.2076 3.80425 13.3106 3.90975 14.2296 3.90975C15.1613 3.90975 15.2517 3.81085 15.2517 2.79229V1.86571L14.5048 1.86335C14.0941 1.86194 13.674 1.80753 13.5715 1.74228C13.469 1.67719 13.3628 1.27137 13.3356 0.840705L13.2862 0.0575236H12.3428H11.3994L11.3208 0.922309L11.2422 1.78709L10.6318 1.83709C9.86751 1.89983 9.70588 1.73804 9.59833 0.803598L9.51264 0.0575236L8.68543 0.00988189C8.11231 -0.0229799 7.83606 0.0252908 7.78637 0.167116ZM9.19817 5.11557C6.88699 5.22847 4.45789 5.71385 4.24877 6.10457C4.16779 6.25583 3.87927 7.07974 3.60741 7.93556C3.33571 8.79138 3.0615 9.54689 2.99813 9.6145C2.93477 9.68227 2.34813 9.7557 1.69435 9.77771C0.22846 9.82708 0 9.98919 0 10.9801C0 11.751 0.31887 12.2431 0.818558 12.2431C1.17941 12.2431 1.42485 12.6029 1.25127 12.8774C1.17108 13.0041 1.10441 14.7128 1.10299 16.6743L1.10064 20.2407L1.55724 20.5658C1.94687 20.8432 2.24844 20.891 3.61166 20.891C5.8384 20.891 6.27583 20.6144 6.28432 19.2007L6.28935 18.3752H10.4392C15.0594 18.3752 14.78 18.3031 14.78 19.4963C14.78 19.9687 14.8809 20.2133 15.196 20.5055C15.5861 20.8669 15.7216 20.891 17.3743 20.891C19.027 20.891 19.1625 20.8669 19.5526 20.5055L19.9687 20.1198V16.5839C19.9687 14.3961 19.9088 13.0107 19.8114 12.9507C19.507 12.7626 19.6591 12.4052 20.0866 12.3037C20.8234 12.1287 21.0693 11.7974 21.0693 10.9801C21.0693 10.503 20.9827 10.1658 20.827 10.0365C20.688 9.92111 20.0404 9.8134 19.3097 9.784C18.6086 9.75585 18.0239 9.71387 18.0103 9.69076C17.9968 9.66765 17.7067 8.80443 17.3657 7.77251C16.6592 5.63539 16.8584 5.79734 14.4655 5.41369C12.9881 5.1769 10.6518 5.04466 9.19817 5.11557ZM14.0982 6.278C14.43 6.35505 14.9262 6.41967 15.2012 6.42171C15.8603 6.42675 16.1075 6.70238 16.4337 7.79625C16.5828 8.29625 16.8377 9.09925 17.0003 9.5807C17.524 11.1323 18.2011 10.9853 10.5347 10.9853C3.88446 10.9853 3.77361 10.9801 3.77361 10.6716C3.77361 10.2917 4.86025 6.87722 5.04531 6.67518C5.55758 6.11621 12.1543 5.8269 14.0982 6.278ZM2.58429 10.8117C2.63209 10.8892 2.54373 11.11 2.38791 11.3026C2.15929 11.585 2.00976 11.6317 1.61337 11.5445C1.06573 11.4243 0.705822 11.0851 0.86054 10.8349C0.984283 10.6348 2.46259 10.6148 2.58429 10.8117ZM20.0473 11.0581C20.0473 11.2739 19.8871 11.4125 19.5141 11.5195C19.0471 11.6535 18.9448 11.6277 18.6894 11.3125C18.286 10.814 18.4575 10.6467 19.3147 10.7021C19.9217 10.7412 20.0473 10.8022 20.0473 11.0581ZM18.5176 12.6953L19.0319 13.454L18.9893 16.6616L18.9467 19.869L17.4764 19.9144C15.7674 19.9672 15.5275 19.8526 15.5974 19.0177C15.6438 18.4644 15.6594 18.4524 16.4309 18.3752C17.1488 18.3034 17.2213 18.2591 17.2668 17.8642L17.3166 17.4318H10.5582C3.47942 17.4318 3.45773 17.434 3.80034 18.1001C3.90348 18.3007 4.13446 18.3752 4.65254 18.3752H5.36324L5.31528 19.1221L5.26733 19.869L3.65568 19.9138L2.04404 19.9586V16.6557V13.3529L2.54609 12.6408L3.04797 11.9287L10.5257 11.9328L18.0033 11.9368L18.5176 12.6953ZM3.32188 13.6733C1.76495 15.1238 3.76307 17.4389 5.42456 16.1095C5.8395 15.7776 5.89626 15.6339 5.89626 14.9174C5.89626 14.2197 5.8329 14.0482 5.45507 13.7232C4.87456 13.2238 3.83053 13.1994 3.32188 13.6733ZM15.554 13.8034C14.5474 14.81 15.2339 16.4884 16.6521 16.4884C18.1179 16.4884 18.8408 14.8538 17.838 13.8071C17.2083 13.1497 16.2094 13.148 15.554 13.8034ZM7.33762 13.6059C7.27992 13.6634 7.23275 13.8757 7.23275 14.0776V14.4444H10.5347H13.8366V14.0681C13.8366 13.8612 13.7246 13.649 13.5878 13.5964C13.2484 13.4661 7.4686 13.4747 7.33762 13.6059ZM4.95286 14.6016C5.12833 15.1545 4.8983 15.545 4.39751 15.545C3.83226 15.545 3.52078 15.0741 3.77361 14.6016C3.88241 14.3982 4.10286 14.2872 4.39751 14.2872C4.71497 14.2872 4.88336 14.3825 4.95286 14.6016ZM17.2957 14.6016C17.5485 15.0741 17.2371 15.545 16.6718 15.545C16.171 15.545 15.941 15.1545 16.1165 14.6016C16.186 14.3825 16.3543 14.2872 16.6718 14.2872C16.9665 14.2872 17.1869 14.3982 17.2957 14.6016ZM7.23275 15.7641C7.23275 15.971 7.3447 16.1833 7.48149 16.2358C7.80571 16.3601 13.2636 16.3601 13.5878 16.2358C13.7246 16.1833 13.8366 15.971 13.8366 15.7641V15.3878H10.5347H7.23275V15.7641Z" fill="#777E91"/>
</svg>
